<?xml version="1.0" standalone="no"?>
<!DOCTYPE svg PUBLIC "-//W3C//DTD SVG 1.1//EN" "http://www.w3.org/Graphics/SVG/1.1/DTD/svg11.dtd" >
<svg>
<metadata>
Created by FontForge 20090622 at Tue Apr  3 12:25:16 2018
 By deploy user
Copyright (c) 2018, ION
</metadata>
<defs>
<font id="Hesterica" horiz-adv-x="316" >
  <font-face 
    font-family="Hesterica"
    font-weight="400"
    font-stretch="normal"
    units-per-em="1000"
    panose-1="2 0 5 3 0 0 0 0 0 0"
    ascent="800"
    descent="-200"
    x-height="154"
    cap-height="531"
    bbox="-217 -588 777 717.75"
    underline-thickness="50"
    underline-position="-100"
    unicode-range="U+0020-U+017E"
  />
<missing-glyph horiz-adv-x="364" 
d="M33 0v666h265v-666h-265zM66 33h199v600h-199v-600z" />
    <glyph glyph-name=".notdef" horiz-adv-x="364" 
d="M33 0v666h265v-666h-265zM66 33h199v600h-199v-600z" />
    <glyph glyph-name=".null" horiz-adv-x="0" 
 />
    <glyph glyph-name="nonmarkingreturn" horiz-adv-x="333" 
 />
    <glyph glyph-name="space" unicode=" " horiz-adv-x="185" 
 />
    <glyph glyph-name="exclam" unicode="!" horiz-adv-x="168" 
d="M147 441h1q7 0 11.5 -4.5t4.5 -10.5q0 -2 -1 -4q-35 -131 -56.5 -286t-24.5 -293q0 -7 -4.5 -11.5t-11 -4.5t-11 4.5t-4.5 11.5q3 141 25 297t57 290q3 10 14 11zM68 -193q6 0 10.5 -4t4.5 -10q1 -11 -1 -22q-1 -5 -5.5 -9t-9.5 -4q-7 0 -11.5 4.5t-4.5 11.5q0 1 1 3
q1 7 0 14v1q0 6 4.5 10.5t11.5 4.5z" />
    <glyph glyph-name="quotedbl" unicode="&#x22;" horiz-adv-x="233" 
d="M158 471q6 0 10.5 -4t4.5 -10q1 -3 1 -7q0 -19 -9 -45q-10 -30 -24 -47q-4 -6 -11 -6t-11.5 4.5t-4.5 11.5q0 5 4 9q10 13 18 37q8 26 7 40v2q0 6 4.5 10.5t10.5 4.5zM92 466h1q5 0 9.5 -4.5t5.5 -9.5v-6q0 -19 -12 -44q-11 -23 -26 -41q-5 -6 -12 -6t-11.5 4.5
t-4.5 10.5t4 10q13 16 22 35q11 21 9 34v1q0 6 4.5 10.5t10.5 5.5z" />
    <glyph glyph-name="numbersign" unicode="#" horiz-adv-x="481" 
d="M350 433h1q6 0 10.5 -4.5t4.5 -10.5v-5q-28 -92 -52 -211q64 17 118 22h0.5h1.5q6 0 10.5 -4t4.5 -11q0 -6 -4 -10t-10 -5q-57 -6 -128 -26l-15 -75q25 4 49 7q1 1 2 1q6 -1 10.5 -5.5t4.5 -10.5q0 -5 -4 -9.5t-10 -5.5q-28 -3 -57 -9q-34 -194 -45 -343q0 -6 -4.5 -10.5
t-10.5 -4.5t-10.5 4.5t-4.5 11.5v1q11 146 43 334q-47 -11 -92 -27q-14 -80 -33 -203q0 -6 -4.5 -10t-10.5 -4t-10.5 4.5t-4.5 10.5v3q17 114 30 187q-27 -11 -50 -22q-4 -2 -7 -2q-7 0 -11.5 4.5t-4.5 10.5q0 10 9 14q33 16 70 30l12 62q-43 -18 -85 -38q-3 -2 -7 -2
q-6 0 -10.5 4.5t-4.5 11.5q0 9 9 14q53 25 105 46q17 79 35 141q3 11 14 11h1q6 0 10.5 -4.5t4.5 -10.5q0 -2 -1 -5q-15 -53 -30 -119q47 18 91 31q27 130 56 230q3 11 14 11zM273 158q-44 -14 -92 -33l-12 -63q45 15 91 25q6 35 13 71z" />
    <glyph glyph-name="dollar" unicode="$" horiz-adv-x="309" 
d="M227 481q6 0 10.5 -4.5t4.5 -10.5q0 -2 -1 -4q-12 -52 -25 -118l0.5 0.5l0.5 0.5h12q3 1 6 1q44 0 64 -27q13 -16 13 -41q0 -28 -17 -67q-4 -9 -14 -9q-6 0 -10.5 4.5t-4.5 10.5q0 4 1 7q14 32 14 54q0 14 -6 23q-11 14 -41 14q-6 0 -13 -1q-42 -4 -85 -28
q-44 -23 -57 -48q-10 -18 -10 -33q0 -18 17 -39q5 -6 11.5 -12.5t15.5 -14l15.5 -12.5l19 -15l17.5 -14q61 -47 78 -87q8 -20 8 -41q0 -43 -31 -90q-32 -46 -87 -64q-3 -21 -7.5 -56t-5.5 -40.5t-5.5 -9.5t-9.5 -4q-7 0 -11.5 4.5t-4.5 10.5q0 1 1 2q1 10 5 40t6 48
q-16 -1 -28 6q-14 8 -16 25q-1 4 -1 8q0 26 32 70q5 6 13 6q6 0 10.5 -4.5t4.5 -10.5q0 -5 -3 -9q-26 -36 -26 -54q0 -4 2 -5q4 -2 12 -2q4 0 10 2q3 2 8 2h1q20 7 41.5 21t32.5 31q27 40 27 71q0 16 -7 32q-13 32 -67 74q-5 3 -22.5 16.5t-24.5 19.5l-19 17t-19 21
q-22 27 -22 59q0 23 12 45q18 34 69 61q30 17 63 25q14 73 28 131q2 12 15 12z" />
    <glyph glyph-name="percent" unicode="%" horiz-adv-x="382" 
d="M423 558h1q6 0 10.5 -4.5t4.5 -10.5q0 -4 -2 -8l-56.5 -98l-88.5 -155.5l-86 -154.5q-75 -139 -119 -236q-52 -116 -60 -171q-1 -5 -5.5 -9t-9.5 -4q-6 0 -10.5 4.5t-4.5 11.5v2q8 59 63 179q44 97 119 238l190 335q-13 -9 -19 -14q-63 -44 -97 -53q-2 -1 -4 -1
q-6 0 -10.5 4.5t-4.5 10.5q0 12 11 15q29 8 87 49q49 35 81 66q4 4 10 4zM205 423h2q6 0 12 -3q16 -9 16 -31q0 -18 -12 -44q-19 -42 -41 -59q-14 -11 -27 -11q-7 0 -12 3q-16 8 -18 30q-1 3 -1 7q0 13 5 30q13 44 42 71q4 4 10 4q4 0 7 -1q9 4 17 4zM204 392h-2
q-6 -3 -9 -10q-4 -8 -14 -8h-3q-12 -18 -17 -38q-5 -15 -4 -25q0 -3 1 -5q3 1 7 4q16 13 32 48q9 20 9 31v3zM221 -46h2q7 -1 14 -4q18 -10 18 -36q0 -21 -15 -53q-24 -52 -50 -73q-16 -13 -32 -13q-7 0 -13 3q-18 9 -21 35v8q0 16 6 36q15 55 51 89q5 4 11 4q4 0 8 -3
q0 1 0.5 1t1.5 1q9 4 19 5zM221 -77q-3 0 -5 -2q-8 -4 -13 -13q-4 -8 -14 -8q-3 0 -6 1q-16 -25 -24 -52q-4 -16 -4 -29q0 -12 3 -14q6 1 13 6q21 16 42 62q11 25 11 40q0 8 -2 9h-1z" />
    <glyph glyph-name="ampersand" unicode="&#x26;" horiz-adv-x="429" 
d="M275 510q6 -1 10.5 -5.5t4.5 -10.5q0 -2 -1 -4q-9 -35 -29 -141q26 11 45 11h5q4 0 9 -1q21 -5 29 -24q4 -9 4 -20t-4 -24q-2 -12 -15 -12q-6 0 -10.5 4.5t-4.5 10.5q0 2 1 4q4 18 1 26q-2 4 -8 5h-4q-21 0 -52 -16q-39 -21 -67 -51q-24 -26 -24 -44q0 -7 6 -10
q8 -3 23 -2q26 1 89 18h4q6 0 10.5 -4.5t4.5 -10.5q0 -9 -7 -13q-167 -106 -208 -198q-12 -24 -12 -45q0 -23 10 -31q9 -7 27 -7q4 0 7 1q25 2 57 14q67 26 127 76q28 23 46 47.5t21 41.5q3 15 -8 25q-14 14 -50 20q-12 2 -12 15q0 7 4.5 11.5t10.5 4.5q1 0 3 -1
q45 -7 66 -28q17 -17 17 -42q0 -5 -1 -11q-8 -48 -78 -106q-63 -54 -135 -81q-1 -1 -2.5 -1.5l-1.5 -0.5q-14 -58 -24 -126q-1 -5 -5.5 -9t-9.5 -4q-7 0 -11.5 4.5t-4.5 11.5v2q10 58 21 111q-14 -4 -27 -5h-11q-27 0 -44 12q-23 18 -23 55q0 27 15 59q36 79 154 166
q-10 -1 -17 -2h-8q-17 0 -30 6q-19 8 -22 29q-1 5 -1 9q0 29 32 64q24 27 59 48q26 135 34 167q2 12 14 12h1z" />
    <glyph glyph-name="quotesingle" unicode="'" horiz-adv-x="167" 
d="M96 466h1q5 0 9.5 -4.5t5.5 -9.5v-8q0 -35 -30 -72q-4 -5 -12 -5q-6 0 -10.5 4t-4.5 11q0 5 4 9q25 31 22 58v1q0 7 4.5 11t10.5 5z" />
    <glyph glyph-name="parenleft" unicode="(" 
d="M331 645h2q21 0 38 -9q8 -5 8 -14q0 -6 -4.5 -10.5t-10.5 -4.5q-4 0 -8 2q-11 6 -23 6q-14 0 -31 -8q-33 -16 -68 -61q-77 -96 -124 -258q-38 -134 -38 -267q0 -245 130 -399q3 -4 3 -10t-4.5 -10.5t-10.5 -4.5q-7 0 -12 5q-137 163 -137 418q0 137 40 277
q48 167 129 269q40 49 79 68q21 11 42 11z" />
    <glyph glyph-name="parenright" unicode=")" horiz-adv-x="313" 
d="M112 648q104 -1 154 -83q39 -64 39 -170q0 -35 -4 -74q-17 -154 -98 -346t-214 -384q-5 -7 -13 -7q-6 0 -10.5 4.5t-4.5 10.5q0 5 3 9q131 189 210.5 378t95.5 338q4 37 4 70q0 98 -34 155q-42 69 -129 69q-13 0 -26 -1q-1 -1 -2 -1q-7 0 -11.5 4.5t-4.5 11.5
q0 6 4.5 10.5t10.5 4.5q15 2 30 1z" />
    <glyph glyph-name="asterisk" unicode="*" horiz-adv-x="233" 
d="M117 535v0q6 -1 10.5 -5.5t4.5 -10.5v-2l-1 -2q0 -12 -2 -25v-19q26 19 63 29h4q6 0 10.5 -4.5t4.5 -10.5q0 -12 -12 -15q-45 -11 -67 -35q1 -4 2 -7q8 -46 28 -63q6 -5 6 -12q0 -6 -4.5 -10.5t-11.5 -4.5q-5 0 -10 4q-22 19 -33 57q-12 -36 -26 -55q-5 -7 -13 -7
q-6 0 -10.5 4.5t-4.5 11.5q0 5 3 9q15 19 27 64q-11 1 -29 -4h-4q-6 0 -10.5 4.5t-4.5 10.5q0 12 11 15q17 5 29 5h12q2 -1 4 -1q4 19 6 37l2 25v0.5v1.5q0 5 4.5 9.5t9.5 4.5l1 1h1z" />
    <glyph glyph-name="plus" unicode="+" horiz-adv-x="307" 
d="M171 270q6 0 10.5 -4.5t4.5 -10.5q0 -2 -1 -4q-13 -56 -23 -109q57 7 108 7q7 0 14 -1q7 0 11.5 -4.5t4.5 -10.5t-4.5 -10.5t-11.5 -4.5h-14q-52 0 -114 -7q-14 -89 -14 -147v-6v-1q0 -6 -4.5 -10.5t-11 -4.5t-11 4.5t-4.5 10.5v1v7q0 57 14 142q-53 -8 -89 -17
q-2 -1 -5 -1q-6 0 -10.5 4.5t-4.5 11.5q0 12 12 15q43 10 102 18q10 58 25 120q3 12 15 12h1z" />
    <glyph glyph-name="comma" unicode="," horiz-adv-x="143" 
d="M68 -49q6 0 10.5 -4t5.5 -10v-7q0 -35 -30 -72q-4 -6 -12 -6q-6 0 -10.5 4.5t-4.5 10.5t3 10q26 31 23 57v2q0 6 4.5 10.5t10.5 4.5z" />
    <glyph glyph-name="hyphen" unicode="-" horiz-adv-x="254" 
d="M181 124h5q26 0 49 -2q6 0 10 -4.5t4 -10.5t-4.5 -10.5t-10.5 -4.5h-1q-22 2 -47 2q-37 0 -156 -12h-2q-6 0 -10.5 4.5t-4.5 11.5q0 5 4 9.5t10 5.5q118 11 154 11z" />
    <glyph glyph-name="period" unicode="." horiz-adv-x="147" 
d="M75.5 -50q6.5 0 10.5 -4.5t4 -10.5v-3q-1 -10 -6 -21q-4 -9 -14 -9q-6 0 -10.5 4.5t-4.5 10.5q0 4 1 7q3 6 4 13q1 5 5 9t10.5 4z" />
    <glyph glyph-name="slash" unicode="/" horiz-adv-x="341" 
d="M361 556q6 0 10.5 -4.5t4.5 -10.5q0 -4 -2 -8q-75 -132 -181 -375t-142 -371q-3 -11 -15 -11q-6 0 -10.5 4.5t-4.5 10.5q0 2 1 4q37 133 142.5 375.5t183.5 377.5q4 8 13 8z" />
    <glyph glyph-name="zero" unicode="0" horiz-adv-x="401" 
d="M297 388h6q15 0 28 -5q47 -18 59 -85q3 -19 3 -41q0 -61 -25 -145q-56 -192 -134 -274q-49 -50 -96 -50q-12 0 -22 3q-49 17 -67 89q-9 35 -9 81q0 33 5 69q11 88 45 175.5t85 149.5q5 5 12 5q6 0 10.5 -4.5t4.5 -10.5t-4 -10q-47 -57 -80 -141t-43 -168q-4 -33 -4 -64
q0 -43 8 -75q14 -55 47 -67q5 -2 12 -2q34 0 74 41q73 77 127 261q24 80 24 138q0 19 -3 35q-9 50 -40 61q-8 4 -17 4q-22 0 -45 -16q-37 -25 -54 -73q-3 -11 -14 -11q-6 0 -10.5 4.5t-4.5 11.5v5q21 58 66 89q28 18 56 20z" />
    <glyph glyph-name="one" unicode="1" horiz-adv-x="292" 
d="M268 396h1q8 0 13 -7q2 -4 2 -9q0 -3 -1 -6q-83 -222 -123 -510q41 5 89 8l1 1q6 -1 10.5 -5t4.5 -11q0 -6 -4 -10.5t-10 -4.5q-51 -3 -95 -9q-1 -6 -1 -10q-1 -6 -5.5 -9.5t-9.5 -3.5q-7 0 -11.5 4.5t-4.5 10.5v2l0.5 0.5t0.5 1.5q-54 -8 -105 -21q-2 -1 -4 -1
q-6 0 -10.5 4.5t-4.5 11.5q0 12 12 15q57 14 116 22q33 245 98 445l-47 -60l-71 -91l-22 -28q-5 -5 -7 -8q-1 -1 -2 -1q-4 -3 -9 -4q-9 0 -14 8q-3 4 -2 9q0 3 1 5q2 6 7 8q2 2 2 3q8 8 22 27l71 91l72 91l22 28q5 6 8 8l2 2q4 3 8 3zM255 385l-0.5 -0.5t0.5 0.5zM83 125
l-1 -1q1 0 1 1z" />
    <glyph glyph-name="two" unicode="2" horiz-adv-x="332" 
d="M233 396q4 1 6 1q39 0 63 -24q18 -17 22 -47v-14q0 -21 -6 -48q-14 -63 -62 -153q-73 -139 -180 -267q87 37 183 47h2q6 0 10.5 -4.5t4.5 -11.5q0 -5 -4 -9.5t-10 -5.5q-99 -9 -189 -51q-12 -5 -43 -21q-3 -2 -6 -3q-2 -1 -3 -1q-7 -2 -13 2q-7 4 -7 12q0 3 1 7q1 2 3 4
q1 2 4 5q58 62 118 146t102 165q46 86 60 146q5 23 5 41q0 6 -1 11q-2 19 -12 28q-16 15 -41 15q-11 0 -25 -3q-41 -10 -81 -44q-39 -33 -50 -67q-4 -11 -4 -20q0 -17 17 -30q7 -4 7 -12q0 -6 -4.5 -10.5t-11.5 -4.5q-5 0 -9 3q-28 21 -28 57q0 13 4 26q13 43 59 82
q45 38 94 50q13 3 25 3z" />
    <glyph glyph-name="three" unicode="3" horiz-adv-x="357" 
d="M336 388q10 -5 14 -15t0 -25q-4 -12 -12 -27q-17 -30 -49 -68q-48 -56 -113 -109q35 8 64 8q22 0 40 -4q33 -9 50 -32q16 -21 16 -53q0 -57 -48 -126q-49 -70 -124 -119q-35 -23 -63 -24h-2q-27 0 -43 21.5t-16 56.5q0 24 8 55q3 12 15 12q6 0 10.5 -4.5t4.5 -10.5v-4
q-6 -24 -6 -46q0 -28 9 -40q6 -10 19 -9q19 1 47 19q70 45 116 110q43 61 43 109q0 22 -11 35q-10 14 -33 20q-13 3 -31 3q-56 0 -141 -32q-3 -1 -6 -1q-6 0 -10.5 4.5t-4.5 11.5q0 8 7 12q106 71 180 157q30 35 45 63q7 12 9 20q1 2 1 4h-2q-11 0 -29 -6q-42 -13 -92 -43
q-54 -34 -86 -70q-31 -34 -31 -62v-5v-2q0 -6 -4.5 -10.5t-10.5 -4.5t-10.5 4t-4.5 9q-1 5 -1 10q0 38 39 82q35 39 93 75q53 32 99 47q23 7 38 7q10 0 17 -3z" />
    <glyph glyph-name="four" unicode="4" horiz-adv-x="369" 
d="M258 402q7 0 11.5 -4.5t4.5 -10.5q0 -4 -2 -8q-44 -85 -144 -203q-58 -69 -80 -101q-11 -17 -15 -27q-2 -7 -1 -8t3 -1q7 -2 23 -1q24 1 95 12l110 19q25 138 51 259q3 13 15 13q6 0 10.5 -4.5t4.5 -11.5v-3q-25 -116 -49 -247l31 5h3q6 0 10.5 -4t4.5 -11q0 -13 -12 -15
q-7 -1 -14 -2.5t-15.5 -2.5t-13.5 -2q-26 -148 -40 -254q0 -5 -4.5 -9t-10.5 -4t-10.5 4.5t-4.5 10.5v2q13 102 38 244l-99 -17q-72 -12 -98 -13h-10q-13 0 -23 2q-17 5 -23 18q-3 6 -3 13q0 8 4 18q5 14 18 34q22 34 82 104q97 115 140 197q4 9 13 9z" />
    <glyph glyph-name="five" unicode="5" horiz-adv-x="364" 
d="M425 405q7 0 11.5 -4.5t4.5 -10.5t-4.5 -10.5t-10.5 -4.5q-124 -9 -194 -19q-14 -27 -52 -95l-61.5 -113t-40.5 -84q83 70 142 87q19 6 35 6q14 0 26 -5q26 -10 35 -39q5 -15 5 -33q0 -41 -25 -96q-38 -81 -111 -146q-66 -60 -122 -67h-10q-13 0 -23 5q-17 8 -24 27
q-5 14 -5 32q0 30 14 78q3 11 15 11q6 0 10.5 -4.5t4.5 -10.5q0 -2 -1 -4q-12 -43 -12 -71q0 -13 2.5 -20.5t8.5 -10.5t16 -1q21 2 53 21t53 37q68 62 103 137q22 48 22 85q0 13 -3 22q-5 15 -17 20q-7 2 -15 2q-12 0 -27 -4q-68 -21 -178 -124q-5 -4 -11 -4t-10.5 4.5
t-4.5 10.5q0 3 1 5q12 36 34.5 83t35.5 72l52.5 96.5l46.5 83.5q-19 -3 -35 -7q-2 -1 -4 -1q-6 0 -10.5 4.5t-4.5 11.5q0 12 12 14q27 7 61 13q4 4 10 4h1q3 0 6 -2q70 11 194 19h1z" />
    <glyph glyph-name="six" unicode="6" horiz-adv-x="333" 
d="M285 414q16 1 28 -7q17 -11 21 -36q2 -9 2 -20q0 -15 -4 -34q-1 -6 -5 -9.5t-10 -3.5t-10.5 4.5t-4.5 10.5v3q3 17 3 30q0 8 -1 14q-2 12 -8 16q-5 3 -15 1q-13 -3 -31 -15q-40 -28 -84.5 -93t-76.5 -154q-19 -54 -29 -113q91 60 160 66q8 1 16 1q28 0 47 -10
q27 -14 29 -42v-8q0 -57 -59 -136q-66 -88 -135 -104q-8 -2 -16 -2q-33 0 -53 27q-21 29 -27 85q-1 15 -1 33q0 16 1 33q-11 3 -11 15q0 8 6 12q1 2 4 4t4 2q9 74 35 147q34 94 80.5 162.5t92.5 99.5q22 16 42 20q5 1 10 1zM238 45q-7 0 -15 -1q-71 -7 -169 -76
q-3 -26 -3 -49q0 -16 2 -32q4 -47 21 -69q11 -15 26 -15q5 0 11 1q27 7 59 32.5t59 60.5q23 32 38 65.5t15 54.5q0 14 -13 21q-12 6 -31 7z" />
    <glyph glyph-name="seven" unicode="7" horiz-adv-x="324" 
d="M312 418q3 0 7 -1q8 -2 11 -10q2 -6 0 -12q-30 -80 -103 -236l102 34q3 1 5 1h1q6 0 10.5 -4.5t4.5 -10.5q0 -11 -11 -15l-130 -43q-91 -196 -128 -338q-3 -12 -15 -12q-6 0 -10.5 4.5t-4.5 10.5v4q36 141 118 318l-97 -33h-5q-6 0 -10.5 4.5t-4.5 10.5q0 11 10 14
l124 42q81 172 105 234l-36 -15l-38 -16q-55 -23 -92 -33q-40 -12 -64 -12q-8 0 -15 1q-13 2 -13 15q0 6 4.5 10.5t10.5 4.5h3h8q22 0 57 10t89 32l38.5 16t37.5 16q17 6 25 8q4 1 5 1h1z" />
    <glyph glyph-name="eight" unicode="8" horiz-adv-x="319" 
d="M250 400q17 1 29 -8q21 -13 21 -44q0 -27 -16 -66q-26 -68 -83 -143q11 -23 44 -76q36 -58 44 -92q3 -15 3 -29q0 -40 -25 -78q-35 -55 -106 -78q-31 -9 -59 -9q-35 0 -60 15q-13 8 -22.5 19.5t-14 26.5t-4.5 32q0 19 5 40q23 92 139 228q5 6 12 6q5 0 10 -4
q-22 51 -22 100q0 18 3 37q10 66 52 102q24 21 50 21zM250 370q-14 -1 -30 -14q-33 -28 -42 -84q-2 -17 -2 -33q0 -34 11 -67q47 65 69 121q12 32 13 53q1 16 -6 20q-5 4 -13 4zM172 128q0 -6 -4 -10q-111 -130 -132 -215q-4 -18 -4 -33q0 -13 3 -23q6 -19 23 -29t45 -10
q24 0 49 7q60 20 90 66q20 31 20 60q0 11 -3 23q-7 29 -40 83q-35 55 -47 81z" />
    <glyph glyph-name="nine" unicode="9" horiz-adv-x="429" 
d="M424 398q7 0 11.5 -4.5t4.5 -11.5q0 -92 -81 -310l-31.5 -84.5l-33.5 -89t-26 -74t-22 -72.5q-3 -12 -14 -12q-7 0 -11.5 4.5t-4.5 10.5q0 2 1 4q8 32 22 75t26 75.5l33.5 89l31.5 84.5q58 154 73 237q-116 -175 -221 -247q-49 -34 -88 -39q-6 -1 -12 -1q-31 0 -45 20
q-10 14 -10 34q0 21 12 53q18 53 60 109q45 61 101 101t115 40q6 0 10.5 -4.5t4.5 -11t-4.5 -11t-10.5 -4.5q-47 0 -99 -36.5t-93 -91.5q-38 -53 -55 -101q-9 -24 -9 -43q0 -12 3 -16q7 -10 28 -7q32 5 75 34q116 80 246 293q5 7 13 7z" />
    <glyph glyph-name="colon" unicode=":" horiz-adv-x="127" 
d="M82 209q6 0 10.5 -4.5t4.5 -11.5v-2q-2 -11 -6 -21q-4 -9 -14 -9q-6 0 -10.5 4.5t-4.5 10.5q0 3 1 6q3 7 4 13q0 6 4.5 10t10.5 4zM62 49q6 0 10.5 -4.5t4.5 -11.5v-2q-2 -11 -6 -21q-4 -9 -14 -9q-6 0 -10.5 4.5t-4.5 10.5q0 3 1 6q3 7 4 13q0 6 4.5 10t10.5 4z" />
    <glyph glyph-name="semicolon" unicode=";" horiz-adv-x="122" 
d="M82 209q6 0 10.5 -4.5t4.5 -11.5v-2q-2 -11 -6 -21q-4 -9 -14 -9q-7 0 -11.5 4.5t-4.5 10.5q0 3 1 6q3 7 4 13t5.5 10t9.5 4h1zM60 50q7 0 11.5 -4.5t4.5 -11.5q0 -1 -1 -3q-8 -38 -28 -60q-5 -5 -12 -5q-6 0 -10.5 4.5t-4.5 11.5q0 5 4 10q15 16 21 45q3 13 15 13z" />
    <glyph glyph-name="less" unicode="&#x3c;" horiz-adv-x="414" 
d="M374 313q6 0 10.5 -4.5t4.5 -11t-4 -10.5l-23 -24t-25 -23.5l-23 -20.5t-25 -21l-22.5 -18t-25 -18.5t-22 -16t-23 -16.5t-20.5 -14q-54 -39 -76 -60q-29 -27 -33 -50q-1 -6 -1 -11q0 -15 14 -29.5t56 -36.5q2 -1 15 -8l16.5 -9l16 -9t17.5 -10.5t16.5 -10.5t18 -12.5
l16.5 -13.5t17.5 -15.5l16 -16.5t15.5 -19q3 -4 3 -10t-4.5 -10.5t-10.5 -4.5q-8 0 -12 6q-20 26 -48 48.5t-46.5 33.5t-50.5 28q-7 4 -10 6q-47 24 -64 42q-22 23 -22 54q0 6 1 14q6 32 42 66q23 22 79 63l19 13t20.5 14.5t19.5 14t21.5 15.5l20 15.5t21.5 17.5l20.5 17.5
t21.5 19.5l20 19.5t20 21.5q5 5 12 5z" />
    <glyph glyph-name="equal" unicode="=" horiz-adv-x="254" 
d="M172 171h10q27 0 52 -2q6 -1 10 -5.5t4 -10.5t-4.5 -10.5t-10.5 -4.5h-1q-27 3 -55 3q-41 0 -137 -9q-1 -1 -2 -1q-6 0 -10.5 4.5t-4.5 11.5q0 6 4 10.5t10 4.5q95 9 135 9zM149 83h5q32 0 67 -3q6 0 10 -4.5t4 -10.5q0 -7 -4.5 -11t-10.5 -4h-1q-35 3 -66 3
q-39 0 -112 -7h-2q-6 0 -10.5 4t-4.5 11q0 6 4 10.5t10 4.5q72 7 111 7z" />
    <glyph glyph-name="greater" unicode="&#x3e;" horiz-adv-x="414" 
d="M111 324h1q8 0 12 -7q16 -21 34.5 -38t47 -34.5t39 -23l45.5 -24.5q51 -27 70 -46q26 -25 26 -56q0 -7 -1 -13q-6 -33 -52 -71q-28 -24 -100 -72q-57 -37 -83.5 -55.5t-73 -55t-76.5 -70.5q-5 -5 -12 -5q-6 0 -10.5 4.5t-4.5 11.5q0 6 4 10q33 35 81 73.5t73.5 56
l85.5 56.5q69 46 97 69q37 32 41 53q1 5 1 10q0 16 -17 32q-16 16 -63 41q-3 1 -17 8.5t-18 9.5t-17.5 9.5t-19 11.5t-18 11.5t-19 13t-17.5 14t-18.5 16l-16 16.5t-15.5 19q-3 4 -3 9q0 6 4 10.5t10 5.5z" />
    <glyph glyph-name="question" unicode="?" horiz-adv-x="303" 
d="M260 488q20 0 32 -12q14 -14 15 -41v-5q0 -42 -38 -118q-16 -33 -85 -151q-57 -99 -89.5 -174t-31.5 -132q0 -7 -4.5 -11.5t-11 -4.5t-11 4.5t-4.5 11.5q0 46 20.5 106t43 103t62.5 112q68 117 84 150q35 69 35 105v2q-1 16 -7 21q-4 4 -12 3q-26 -2 -65.5 -34.5
t-71 -80.5t-33.5 -85q0 -6 -4.5 -10t-10.5 -4t-10.5 4.5t-4.5 10.5v1q2 47 35.5 98t79.5 89q47 39 82 42h5zM45 -190q6 0 10.5 -4.5t4.5 -11.5q0 -11 -3 -22t-15 -11q-6 0 -10.5 4.5t-4.5 11.5q0 2 1 4q2 7 2 13q0 7 4.5 11.5t10.5 4.5z" />
    <glyph glyph-name="at" unicode="@" horiz-adv-x="550" 
d="M375 417h1q32 0 60 -13q67 -32 86 -121q6 -27 6 -58q0 -70 -30 -149q-38 -101 -85 -150q-23 -24 -46 -31q-9 -4 -19 -4q-14 0 -26 7q-39 23 -39 106q0 36 9 82q-46 -75 -80 -105q-22 -20 -40 -20q-4 0 -9 2q-12 3 -18 15q-5 9 -7 21v12q0 47 29 94q37 57 90 57q7 0 14 -1
q6 -1 10 -5t4 -10t-4.5 -10.5t-11.5 -4.5h-3q-4 1 -9 1q-37 0 -64 -44q-25 -39 -25 -79q0 -3 1 -6q0 -7 2 -10l1 -1q1 0 2.5 0.5t4 2l6 3.5t7.5 6q50 44 132 206q5 8 14 8q6 0 10.5 -4.5t4.5 -10.5v-5q-39 -116 -39 -194q0 -33 7 -53.5t17 -25.5q8 -5 20 -1q15 5 33 23
q43 44 79 140q27 74 27 138q0 28 -5 52q-15 74 -69 99q-22 11 -47 11q-36 0 -76 -22q-80 -43 -149 -159q-97 -163 -97 -301q0 -66 24 -106q30 -49 86 -49q9 0 18 2q81 9 184 103q4 4 10 4t10.5 -4.5t4.5 -10.5q0 -7 -5 -11q-109 -101 -200 -112q-10 -1 -20 -1q-75 0 -114 63
q-30 50 -30 124q0 142 103 315q73 123 160 170q46 25 90 25z" />
    <glyph glyph-name="A" unicode="A" horiz-adv-x="496" 
d="M346 525h2q14 -1 23 -13q7 -9 10 -24q5 -20 5 -52q0 -8 -1 -18q-2 -74 -24 -225l-25 -158q38 -2 83 -5q6 -1 10 -5.5t4 -10.5t-4.5 -10.5t-10.5 -4.5h-2q-46 4 -85 6q-46 -287 -60 -402q-1 -6 -5.5 -9.5t-9.5 -3.5q-7 0 -11.5 4.5t-4.5 10.5q0 1 1 2q14 116 60 399
q-25 1 -48 1q-82 0 -156 -11q-62 -112 -130 -215q-5 -7 -13 -7q-6 0 -10.5 4.5t-4.5 10.5q0 5 2 8q61 93 117 193q-49 -9 -102 -24q-2 -1 -4 -1q-7 0 -11.5 4.5t-4.5 10.5q0 12 12 15q67 19 129 29q65 120 137 281q59 132 72 157q15 30 27 44q16 19 33 19zM346 495
q-4 -2 -9 -8q-10 -12 -24 -39q-13 -25 -71 -155q-67 -151 -127 -264q66 9 139 9h8q21 0 44 -1l25 160q22 150 24 222v15q0 31 -4 48q-2 8 -5 12v1z" />
    <glyph glyph-name="B" unicode="B" horiz-adv-x="420" 
d="M251 512q27 0 47 -11q29 -16 39 -50q4 -14 4 -30q0 -60 -53 -131q-50 -66 -138 -125q26 4 48 4q36 0 63 -10q38 -13 57.5 -44.5t19.5 -71.5v-1q0 -82 -65.5 -178.5t-177.5 -170.5q-57 -38 -108 -53q-24 -6 -42 -6h-7q-26 2 -39 18q-11 14 -11 35q0 6 1 13q4 28 24 69
q28 56 87 136q25 94 57 203q-5 -2 -9 -3q-2 -1 -5 -1q-7 0 -11.5 4.5t-4.5 10.5q0 9 9 14l34 18q61 201 76 258q3 11 15 11h1q6 0 10 -4.5t4 -10.5v-4q-18 -66 -67 -227q101 64 154 135q47 62 47 113q0 12 -3 21q-6 21 -24 31q-13 7 -32 7q-8 0 -18 -1q-79 -13 -174 -114
q-5 -6 -12 -6q-6 0 -10.5 4.5t-4.5 11t5 11.5q102 108 191 123q10 2 19 2h4zM200 138h-1q-46 0 -106 -18q-25 -82 -44 -151q12 16 26 32q5 6 12 6q6 0 10.5 -4.5t4.5 -10.5t-3 -10q-40 -48 -71 -90q-18 -68 -34 -135q-2 -12 -15 -12q-6 0 -10.5 4.5t-4.5 10.5v4q7 26 14 56
q-24 -36 -38 -65q-18 -36 -21 -59q-2 -17 4 -25q5 -6 17 -7h4q15 0 35 6q46 13 99 48q105 70 167.5 162.5t62.5 162.5q0 67 -57 87q-22 8 -51 8z" />
    <glyph glyph-name="C" unicode="C" horiz-adv-x="391" 
d="M310 528q12 0 23 -3q30 -11 37 -51q3 -14 3 -31q0 -76 -57 -221q-4 -10 -14 -10q-7 0 -11.5 4.5t-4.5 10.5q0 3 2 6q54 139 54 213q0 13 -2 22q-4 23 -17 28q-4 1 -9 1q-13 0 -31 -9q-62 -30 -134 -129q-79 -109 -123 -245q-12 -37 -20 -73.5t-11.5 -68.5t-3.5 -62
q0 -129 56 -187q30 -30 66 -30q16 0 34 6q66 23 126 122q4 8 13 8q6 0 10.5 -4.5t4.5 -11.5q0 -4 -2 -8q-65 -108 -142 -135q-21 -7 -43 -7q-51 0 -89 39q-66 67 -66 205q0 101 38 216q45 140 128 254q75 105 144 139q23 11 41 12z" />
    <glyph glyph-name="D" unicode="D" horiz-adv-x="520" 
d="M230 528q6 0 10.5 -4.5t4.5 -10.5q0 -2 -1 -4l-10 -48q47 15 91 15h8q31 -1 57 -10q36 -12 61 -40t34 -70q4 -20 4 -43q0 -80 -48 -190q-74 -172 -188 -312q-104 -127 -179 -156q-16 -7 -30 -7h-4q-19 2 -29 16t-10 36q0 18 7 46q16 61 67 158l116 506q-58 -27 -104 -69
q-5 -4 -11 -4t-10.5 4.5t-4.5 10.5q0 7 5 12q60 55 133 85l16 67q2 12 15 12zM328 445q-48 0 -103 -20l-97 -426q33 56 74 119q4 8 13 8q6 0 10.5 -4.5t4.5 -11.5q0 -4 -3 -8q-76 -118 -124 -209l-23 -100q-2 -12 -15 -12q-7 0 -11 6q-11 -27 -16.5 -48.5t-5.5 -37.5
q0 -14 3 -19q3 -3 7 -3q8 -1 21 4q29 12 74 51t92 96q112 137 184 305q45 104 45 178q0 20 -3 37q-13 67 -75 87q-23 8 -52 8z" />
    <glyph glyph-name="E" unicode="E" horiz-adv-x="378" 
d="M319 523q10 0 18 -3q18 -7 26 -27q8 -18 8 -46q0 -27 -8 -67q-2 -12 -15 -12q-6 0 -10.5 4.5t-4.5 10.5v3q7 35 7 61q0 22 -5 34q-3 8 -9 11q-7 2 -17 -1q-24 -6 -63 -40t-74 -79q-36 -48 -60.5 -98.5t-26.5 -86.5v-8q0 -30 18 -45q19 -14 55 -14q14 0 31 2q1 1 2 1
q6 0 10.5 -4.5t4.5 -11.5q0 -8 -7 -12q-115 -81 -177 -189q-46 -80 -46 -142q0 -9 1 -17q4 -26 19 -36q10 -7 25 -7q9 0 20 3q79 19 200 150q4 4 11 4q6 0 10.5 -4.5t4.5 -10.5t-4 -10q-127 -137 -214 -158q-15 -4 -28 -4q-24 0 -42 12q-26 18 -32 57q-2 10 -2 22
q0 69 50 156q54 94 148 169q-36 3 -58 20q-31 24 -31 70q0 4 1 9q5 85 93 201q86 113 153 131q10 2 18 2z" />
    <glyph glyph-name="F" unicode="F" horiz-adv-x="439" 
d="M377 594q16 0 30 -5q59 -21 74 -110q1 -1 1 -3q0 -6 -4.5 -10.5t-11.5 -4.5q-5 0 -9.5 4t-5.5 9q-12 72 -54 86q-10 4 -21 4q-35 0 -75 -33q-61 -50 -114 -162.5t-79 -275.5q106 21 186 21q21 0 41 -2q6 0 10.5 -4.5t4.5 -10.5t-4.5 -10.5t-11.5 -4.5h-1q-18 1 -38 1
q-80 0 -192 -22q-11 -86 -11 -191q0 -86 8 -198h1v-1q0 -6 -4.5 -10.5t-11.5 -4.5q-5 0 -9.5 4t-5.5 9v1q-1 29 -7.5 58.5t-17 58t-19 49t-22.5 49.5t-19 42q-21 48 -21 74q0 10 3 20q6 23 27 37q20 14 55 22l27 6q26 174 81.5 293.5t124.5 175.5q49 39 94 39h1zM72 54
q-2 0 -7.5 -1.5t-8.5 -2.5q-30 -6 -45 -17q-12 -8 -15 -20q-1 -5 -1 -11q0 -22 18 -62q4 -11 22 -48.5t27 -62.5v43q0 100 10 182z" />
    <glyph glyph-name="G" unicode="G" horiz-adv-x="488" 
d="M322 528h3q7 0 14 -2q29 -9 40 -46q7 -23 7 -53q0 -68 -33 -185q-3 -11 -15 -11q-6 0 -10.5 4.5t-4.5 10.5q0 2 1 4q31 111 31 179q0 26 -5 42q-6 21 -19 25q-4 1 -8 1q-13 0 -30 -9q-56 -29 -123 -124q-74 -103 -122 -232q-62 -168 -65 -289v-8q0 -48 11 -79
q10 -30 29 -40q9 -5 19 -5q12 0 26 6q32 13 71 53q82 84 173 264q-1 0 -2.5 -0.5t-2.5 -0.5q-88 -30 -150 -76q-4 -4 -10 -4t-10.5 4.5t-4.5 10.5q0 9 7 13q63 48 145.5 77t147.5 31h1v0q6 0 10.5 -4t4.5 -10.5t-4.5 -11t-10.5 -4.5q-35 -1 -79 -12v-1q-5 -18 -8 -33
q-14 -60 -25 -119q-24 -141 -24 -256q0 -45 4 -85v-2q0 -6 -4.5 -10.5t-11.5 -4.5q-5 0 -9.5 4t-5.5 10q-4 42 -4 88q0 118 25 261l9 47q-72 -129 -139 -198q-44 -44 -81 -59q-20 -8 -38 -8t-33 8q-29 15 -44 57q-12 36 -12 89v9q2 126 66 298q50 134 126 240
q71 101 134 133q24 13 43 13z" />
    <glyph glyph-name="H" unicode="H" horiz-adv-x="587" 
d="M480 599q6 0 10.5 -4.5t4.5 -10.5v-3q-37 -180 -85 -536q49 3 99 5q7 0 11.5 -4.5t4.5 -10.5t-4.5 -10.5t-10.5 -4.5l-104 -6q-46 -352 -46 -473v-13t-4.5 -10.5t-10.5 -4.5t-10.5 4t-5.5 10v15q0 121 46 470q-142 -11 -267 -30q-2 -81 -7 -136q-5 -54 -14 -82
q-5 -17 -12 -26q-10 -14 -26 -12q-12 1 -24 16q-10 11 -20 32q-20 41 -46 123q-12 30 -12 45q0 10 4 19q7 16 26 26q19 9 50 13q26 5 52 9q1 68 1 158q0 60 -1 167t-1 147v7v1q0 6 4.5 10.5t10.5 4.5h1q6 0 10.5 -4.5t4.5 -10.5v-1v-7q0 -40 1 -147t1 -168q0 -86 -2 -153
q126 19 270 30q48 361 86 544q2 12 15 12zM78 -22q-27 -5 -46 -8h-1q-26 -4 -40 -11q-9 -4 -12 -10q-1 -2 -1 -6q0 -11 10 -35v-1q25 -80 45 -120q8 -17 15 -26q2 -2 4 -3q3 5 6 15q8 25 12 75q5 53 8 130z" />
    <glyph glyph-name="I" unicode="I" horiz-adv-x="343" 
d="M247 531q6 0 10.5 -4.5t4.5 -11.5q0 -4 -3 -8q-5 -9 -15 -37q133 45 159 53h4h1q6 0 10.5 -4t4.5 -11q0 -11 -11 -14l-53.5 -17.5l-67.5 -22.5l-60 -20q-10 -32 -21 -75q-31 -117 -60 -265q-31 -152 -44 -256q-4 -28 -6 -50q70 17 127 17q3 0 6 -1q6 0 10.5 -4t4.5 -10.5
t-4.5 -11t-10.5 -4.5h-1h-5q-57 0 -129 -19v-1.5v-2.5q0 -16 1 -24q1 -3 2 -5h-1q5 -4 5 -12q0 -6 -4.5 -10.5t-10.5 -4.5t-11 4q-8 7 -10 23q-1 10 -1 25q-96 -30 -174 -79q-3 -3 -8 -3q-6 0 -10.5 4.5t-4.5 11.5q0 8 7 13q87 55 191 85q2 27 6 63q14 105 45 258
q30 149 61 266l15 56q-96 -30 -145 -38q-1 -1 -2 -1q-7 0 -11.5 4.5t-4.5 11.5q0 5 4 9.5t9 5.5q49 8 161 44q2 6 2 7q15 43 25 59q5 6 13 7z" />
    <glyph glyph-name="J" unicode="J" horiz-adv-x="458" 
d="M286 570q14 -1 27 -8q34 -18 47 -76q8 -34 8 -83q0 -117 -46 -317q37 32 75 59q4 3 9 3q6 0 10.5 -5t4.5 -11q-1 -7 -7 -12q-56 -40 -105 -86q-55 -230 -106 -358q-33 -83 -63 -116q-18 -21 -36 -24q-4 -1 -7 -1q-19 0 -34 16q-9 10 -11 33q-1 8 -1 17q0 15 2 33
q8 67 41 145q62 149 188 271q6 27 7 29q48 205 48 326q0 44 -7 75q-10 43 -32 56q-9 4 -19 4q-13 0 -30 -7q-30 -12 -66.5 -46.5t-68 -79t-52 -90.5t-22.5 -79q-1 -6 -5.5 -10.5t-10.5 -4.5q-7 1 -11 5.5t-4 10.5v1q6 80 80 185q75 106 148 137q22 9 42 9q3 0 7 -1zM267 -9
q-95 -104 -145 -224q-31 -73 -39 -137q-1 -16 -1 -29v-14q2 -13 4 -16q6 -7 12 -5q8 1 19 14q26 30 57 108q44 110 93 303z" />
    <glyph glyph-name="K" unicode="K" horiz-adv-x="471" 
d="M235 572h1q6 0 10 -4.5t4 -11.5v-2q-39 -201 -79 -460q61 33 122 96q117 119 186 291q4 10 15 10q7 -1 11 -5.5t4 -10.5q0 -3 -1 -6q-71 -177 -193 -301q-76 -77 -147 -110q35 -28 72 -62l202 -194q5 -5 5 -12q-1 -7 -5.5 -11t-10.5 -4t-10 5l-203 194q-29 28 -58 51
q-39 -264 -39 -351v-11v-2q0 -6 -4.5 -10.5t-10.5 -4.5q-6 1 -10.5 5t-4.5 11v14q0 92 41 368q-40 -11 -74 -11q-35 0 -60 12q-22 11 -31 28q-4 8 -4 17q0 12 7 21q11 15 36 17q4 1 8 1q22 0 49 -10q34 -13 75 -40l1 11q41 262 81 469q2 13 15 13zM15 98h-6q-11 -1 -15 -5
q-1 -3 0 -6q4 -8 17 -15q19 -9 48 -9q18 0 40 5q-26 15 -47 22q-19 7 -35 8h-2z" />
    <glyph glyph-name="L" unicode="L" horiz-adv-x="359" 
d="M237 552q6 0 10.5 -4.5t4.5 -10.5q0 -2 -1 -4q-62 -264 -98 -445t-45 -292q0 -6 -4.5 -10t-10.5 -4t-10.5 4.5t-4.5 10.5v1q15 193 144 742q2 12 14 12h1zM346 -189h5q6 0 10.5 -4.5t4.5 -11t-4.5 -11t-11.5 -4.5h-5q-76 0 -190 -29.5t-188 -76.5q-4 -2 -8 -2
q-7 0 -11.5 4.5t-4.5 10.5q0 9 8 13q80 51 195 81t198 30h2z" />
    <glyph glyph-name="M" unicode="M" horiz-adv-x="709" 
d="M357 565q18 0 29 -12q14 -15 20 -47q5 -28 5 -70q0 -52 -8 -128q-5 -50 -16.5 -147t-14.5 -130q-4 -30 -6 -53q8 16 22.5 49.5l24.5 55t26.5 53.5t33.5 59q46 79 77 96q10 5 21 5q9 0 15 -3q13 -8 20 -27q10 -27 10 -80v-8q0 -31 -2 -75q-10 -149 -11 -206q-1 -21 -1 -40
q0 -53 4 -86q2 -26 7 -40q1 -5 3 -8q12 -4 11 -15q0 -7 -5 -11t-11 -4h-2q-10 2 -17 12q-5 6 -8 17q-6 17 -9 46q-3 35 -3 88v42q1 57 11 207q3 43 3 73v8q-1 48 -8 69q-4 9 -7 11q-1 1 -6 -2q-24 -13 -66 -84q-34 -56 -75.5 -148.5t-59.5 -126.5q-2 -4 -5 -6q-3 -3 -7 -4
q-7 -1 -12 3q-5 3 -7 10q-1 2 -1 5q-1 8 0 26q2 29 9 96q4 32 15 129l17 148q7 72 7 124q0 40 -4 65q-5 23 -12 31q-4 4 -9 3q-9 -3 -25.5 -19.5t-33.5 -42.5q-38 -55 -80 -145q-106 -225 -183 -567q-1 -2 -1.5 -3.5t-0.5 -2.5q-3 -4 -7 -6q-9 -5 -17 2q-3 2 -4 6q-1 2 -1 4
q-1 5 -1 15v1q0 19 2 58q3 88 11 212q21 333 46 490q0 5 5 9t10 4q7 0 11 -5t4 -11v-2q-25 -155 -46 -487l-8 -144q70 264 152 440q43 92 82 149q44 64 76 74q6 1 11 1zM337 -80z" />
    <glyph glyph-name="N" unicode="N" horiz-adv-x="500" 
d="M407 545h5q17 -5 23 -27q4 -15 4 -40q0 -40 -11 -129q-3 -18 -11 -77.5t-12 -92.5t-9 -83.5t-7 -90.5q-1 -27 -1 -52q0 -157 47 -212q4 -5 4 -11t-5 -10.5t-11 -3.5q-7 0 -11 5q-55 64 -55 224q0 28 2 61q1 41 6 92.5t9.5 85l12.5 92t10 77.5q11 87 11 124q0 22 -2 32
q-1 3 -2 5q-5 -1 -10 -5q-13 -11 -34 -36q-43 -53 -118 -175q-49 -80 -88.5 -167t-76.5 -177t-65 -145q-2 -4 -5 -7q-5 -4 -11 -4q-9 0 -13 7q-3 4 -3 10v6q1 11 5 38q8 50 28 152q32 166 94 455q1 6 5.5 9.5t9.5 3.5q7 -1 11 -5.5t4 -10.5q0 -2 -1 -3l-93 -455l-18 -96
l38 91.5l44 103.5t47 98t62 112q76 123 121 178q22 28 38.5 40.5t28.5 12.5h3zM10 -182v-2v1v1z" />
    <glyph glyph-name="O" unicode="O" horiz-adv-x="532" 
d="M281 507q15 -1 29 -4q38 -10 67.5 -42t45.5 -82q16 -53 16 -120q0 -74 -19 -162q-8 -37 -19 -73q52 18 87 40q4 3 8 3q7 0 11 -5t4 -11q0 -8 -7 -12q-47 -31 -116 -51q-31 -86 -77 -142q-66 -82 -137 -82h-5q-35 2 -63 26.5t-41 67.5q-11 36 -11 83q0 35 7 75
q-20 16 -32 37q-23 39 -23 92q0 51 21 114q44 132 126 199q59 49 122 49h6zM280 477h-6q-51 0 -102 -42q-75 -62 -116 -186q-20 -58 -20 -104q0 -44 19 -76q5 -9 13 -18q5 26 12 48q3 12 15 11q6 0 10.5 -4.5t4.5 -10.5q0 -3 -1 -5q-9 -30 -15 -61q16 -11 35 -18t42 -11
q27 -5 59 -5q64 0 135 19q15 44 25 89q18 85 18 155q0 64 -15 112q-26 86 -91 103q-11 3 -22 4zM89 -4q-4 -29 -4 -56q0 -42 10 -73q21 -70 75 -72h4q57 0 113 70q37 45 65 113q-62 -14 -119 -14q-36 0 -68 6q-43 8 -76 26z" />
    <glyph glyph-name="P" unicode="P" horiz-adv-x="384" 
d="M348 590q11 0 20 -3q36 -14 46 -71q3 -18 3 -39q0 -108 -66 -226q-29 -52 -68 -97t-95.5 -86.5t-122.5 -68.5q-3 -1 -7 -1q-8 1 -12 8q-15 -65 -21 -134l-2 -25q-3 -51 -3 -88v-1q-1 -6 -5.5 -10.5t-10.5 -3.5q-6 0 -10 4t-4 10v0h-1v1.5v0.5v6v24q1 28 3 58
q9 197 35 392q18 134 39 214q11 44 23 69q15 32 33 37q3 1 5 1q6 0 10.5 -5t4.5 -11q-1 -11 -12 -14q1 0 -1 -1.5t-5.5 -7t-6.5 -12.5q-11 -22 -22 -64q-20 -78 -37 -210q-9 -60 -15 -127q5 17 6 18q124 335 232 431q36 32 67 32zM348 560q-19 -1 -47 -25
q-45 -40 -102.5 -144t-121.5 -274q-15 -42 -27 -91l4 2q177 71 270 238q62 111 62 213q0 18 -3 32q-6 40 -26 47q-4 2 -9 2z" />
    <glyph glyph-name="Q" unicode="Q" horiz-adv-x="461" 
d="M307 514q30 -1 56.5 -23.5t41.5 -63.5q17 -47 17 -110q0 -74 -23 -166q-46 -179 -113 -270l-6 -8q1 -1 3 -2.5t3 -1.5l178 -127q7 -5 7 -13q0 -6 -4.5 -10.5t-10.5 -4.5q-5 0 -10 3l-177 126q-2 2 -5 4t-4 3q-51 -52 -104 -52h-3q-75 2 -115 79q-34 64 -37 168v18
q0 93 23 181.5t63 139.5q5 6 12 6t11.5 -4.5t4.5 -10.5t-4 -10q-34 -44 -56.5 -130t-22.5 -173v-17q2 -96 33 -154q32 -61 89 -63h2q39 0 78 39l-58 38q-42 27 -55 31q-10 4 -10 15q0 6 4 10.5t10 4.5h1q3 0 5 -1q16 -5 61 -34q26 -16 62 -41l7 9q64 87 108 260
q22 87 22 158q0 58 -15 99q-12 35 -31 51t-39 16h-4q-28 -2 -61 -37t-56 -92q-35 -85 -35 -188q0 -62 14 -126v-3q0 -6 -4.5 -10.5t-10.5 -4.5q-13 0 -15 12q-14 66 -14 132q0 109 37 200q26 65 63.5 104.5t78.5 43.5h8z" />
    <glyph glyph-name="R" unicode="R" horiz-adv-x="388" 
d="M351 590q9 0 17 -3q36 -14 46 -71q3 -18 3 -39q0 -108 -66 -226q-92 -164 -262 -241q5 -4 11 -8q29 -21 72 -55l146 -118q6 -5 6 -13q-1 -6 -5.5 -10.5t-10.5 -3.5q-5 0 -9 3q-125 102 -146 118q-43 34 -71 54q-11 8 -21 14.5l-16 10.5q-14 -63 -20 -130l-2 -25
q-3 -51 -3 -88v-1q-1 -6 -5.5 -10.5t-10.5 -3.5q-6 0 -10 4t-4 10v0h-1v1.5v0.5v6v24q1 28 3 58q9 197 35 392q18 134 39 214q11 44 23 69q15 32 33 37q3 1 5 1q6 0 10.5 -5t4.5 -11q-1 -11 -12 -14q1 0 -1 -1.5t-5.5 -7t-6.5 -12.5q-11 -22 -22 -64q-20 -78 -37 -210
q-9 -60 -15 -127q5 17 6 18q124 335 232 431q36 32 67 32h3zM349 560h-1q-19 -1 -47 -25q-45 -40 -102.5 -144t-121.5 -274q-14 -39 -25 -85q3 -1 6 -3q174 72 266 237q62 111 62 213q0 18 -3 32q-6 40 -26 47q-3 2 -8 2z" />
    <glyph glyph-name="S" unicode="S" horiz-adv-x="531" 
d="M349 523q47 -2 76 -31q40 -39 40 -122q0 -38 -9 -85q-1 -6 -5.5 -10t-10.5 -4q-6 1 -10.5 5.5t-3.5 10.5v3q8 44 8 79q0 71 -30 101q-23 23 -61 23q-25 0 -56 -10q-77 -25 -146 -92q-70 -68 -81 -132q-1 -10 -1 -20q0 -44 39 -73q29 -22 117 -51q93 -30 129 -58
q28 -21 42 -51l56 44q5 4 10 4q7 -1 11 -5.5t4 -10.5q-1 -7 -6 -12q-34 -26 -64 -52q3 -15 3 -32q0 -6 -1 -13q-6 -81 -61 -149q-51 -63 -105 -63q-5 0 -10 1q-10 0 -18.5 7.5t-12.5 19.5q-1 6 -1 14q0 21 13 48q36 73 159 178q-10 27 -38 48q-32 24 -119 53q-93 31 -126 56
q-24 17 -37.5 42.5t-13.5 57.5q0 10 1 21v1q13 74 90 149q74 72 158 99q34 11 65 11h6zM369 -49q-107 -95 -137 -158q-11 -20 -11 -35q0 -3 1 -5q1 -6 3 -5h1h1h5q40 0 83 52q48 60 54 131q1 10 0 20z" />
    <glyph glyph-name="T" unicode="T" horiz-adv-x="356" 
d="M240 570q7 0 11 -4.5t4 -11.5v-3q-4 -16 -8 -35q198 35 318 35q16 0 30 -1q7 0 11 -4.5t4 -11t-4.5 -11t-11.5 -3.5h-28q-119 0 -327 -36q-34 -163 -62.5 -380t-28.5 -355v-7q0 -7 -4.5 -11t-11.5 -4q-6 0 -10 4.5t-4 10.5v7q0 140 27.5 351.5t61.5 377.5
q-45 -8 -254 -51h-4q-7 0 -11 4.5t-4 10.5q0 13 12 15q229 47 268 54q6 27 11 47q3 12 15 12z" />
    <glyph glyph-name="U" unicode="U" horiz-adv-x="544" 
d="M495 538h1q6 0 10.5 -4.5t4.5 -10.5v-3q-2 -7 -5 -20.5l-8.5 -36.5l-10.5 -43q-22 -98 -37 -187q-27 -169 -27 -315q0 -98 12 -183v-2q0 -6 -4.5 -10.5t-10.5 -4.5t-10 3.5t-5 9.5q-13 88 -13 188q0 147 28 319q4 27 10 59q-121 -319 -209 -446q-52 -76 -94 -82h-7
q-19 0 -34 14t-25 41q-20 55 -20 155q0 70 10 152q25 212 87 335q4 9 14 9q6 0 10.5 -4.5t4.5 -10.5q0 -4 -2 -8q-59 -118 -84 -324q-9 -77 -9 -146q0 -99 18 -148q7 -20 17 -29q7 -7 16 -6q28 4 73 69q114 165 285 660q4 10 14 10z" />
    <glyph glyph-name="V" unicode="V" horiz-adv-x="395" 
d="M486 560h1q6 0 10.5 -4.5t3.5 -11.5q0 -4 -2 -8q-12 -17 -24 -36.5t-25 -46l-23.5 -47t-25.5 -54.5l-23 -53l-24.5 -59.5l-23 -56l-24 -60t-21.5 -55.5q-61 -151 -92 -211q-23 -42 -41 -61q-11 -11 -22 -15q-15 -6 -28 2q-8 5 -13 18q-4 9 -7 24q-4 25 -8 70
q-4 46 -10 203q-5 144 -12 212q-5 49 -11 80q-7 33 -15 45q-3 4 -2 9q0 7 4.5 11t11.5 4q7 -1 12 -7q11 -17 19 -55q6 -33 11 -84q7 -69 13 -214q6 -155 9 -202q4 -43 8 -67l5 -18q1 -1 2 -3h1q4 2 10 9q15 15 36 54q30 58 90 208q4 9 28 70l31.5 79l29 69.5t33.5 76.5
l30 63t34 65.5t31 50.5q5 6 13 6zM118 -191z" />
    <glyph glyph-name="W" unicode="W" horiz-adv-x="636" 
d="M584 528q12 0 15 -12q1 -7 1 -17v-16q-1 -19 -5 -49q-6 -54 -21 -141q-20 -125 -59 -326q-19 -100 -45 -158q-13 -28 -27 -45q-16 -19 -33 -22h-6q-17 0 -31 14q-13 14 -23 41q-20 55 -26 159q-9 140 -30 328q-38 -151 -77 -250q-26 -67 -51 -107q-29 -45 -57 -56
q-7 -3 -15 -3q-15 0 -25 10q-13 12 -19 39q-7 31 -7 83q0 22 1 48q7 155 52 386q1 6 5.5 9.5t9.5 3.5q7 0 11.5 -4.5t4.5 -10.5q0 -2 -1 -3q-44 -230 -52 -382q-1 -24 -1 -45q0 -51 7 -78q4 -18 10 -24q3 -3 8 -1q19 8 42 44q24 38 49 102q49 124 96 330q3 12 15 12
q5 0 9.5 -4t5.5 -9q7 -53 20 -184t19 -232q7 -100 25 -150q8 -22 16 -31q6 -5 10 -5q6 1 15 12q11 13 22 38q25 55 43 151q38 200 59 325q14 87 21 139q3 29 4 48q1 18 0 25v3q0 6 4 10.5t11 4.5z" />
    <glyph glyph-name="X" unicode="X" horiz-adv-x="429" 
d="M444 564h1q6 0 10.5 -4.5t4.5 -10.5t-4 -10q-54 -66 -131 -176.5t-144 -224.5q1 -1 3 -8q53 -148 92 -238q49 -115 80 -151q3 -4 3 -10t-4.5 -10.5t-10.5 -4.5q-7 0 -11 5q-35 39 -86 159q-36 85 -86 223q-105 -187 -130 -303q-2 -12 -15 -12q-6 0 -10.5 4.5t-4.5 10.5v4
q29 131 146 335l-43 123.5l-30 87.5q-39 112 -51 135q-2 3 -2 7q0 6 4.5 10.5t10.5 4.5q10 0 14 -8q13 -24 53 -139l28.5 -83l36.5 -103q64 109 137.5 213t127.5 168q4 6 11 6z" />
    <glyph glyph-name="Y" unicode="Y" horiz-adv-x="495" 
d="M410 552q9 0 14 -9q14 -26 14 -84v-6q-1 -56 -13 -137q-15 -99 -45 -222q22 23 42 42q5 4 11 4t10.5 -4.5t4.5 -10.5q0 -7 -5 -11q-41 -39 -79 -82l-16 -61q-55 -191 -109 -309q-28 -62 -52 -91q-14 -17 -28 -24q-7 -3 -15 -3q-11 0 -19 6q-6 4 -9 14q-2 8 -2 20
q0 16 4 38q10 61 40 136q61 152 178 288q40 153 59 275q12 83 12 136q0 13 -1 28q-126 -317 -222 -439q-47 -60 -86 -71q-9 -3 -18 -3q-11 0 -21 4q-16 7 -28 26q-30 45 -30 139q0 36 4 78q17 157 80 282q5 9 14 9q6 0 10.5 -4.5t4.5 -11.5q0 -4 -1 -7q-62 -119 -78 -271
q-3 -35 -3 -67q0 -95 24 -130q7 -11 15 -14.5t19 -0.5q29 9 70 61q101 128 236 477q4 9 14 10zM316 -27q-83 -109 -130 -227q-29 -71 -38 -129q-3 -20 -3 -34v-8h1q7 3 17 15q21 26 49 85q52 114 104 298zM146 -428z" />
    <glyph glyph-name="Z" unicode="Z" horiz-adv-x="492" 
d="M399 549q8 0 15 -1q32 -2 48 -22q14 -16 14 -43q0 -19 -7 -44q-15 -55 -62 -129q-82 -131 -234 -281q59 27 102 33q12 1 23 1q23 0 41 -7q25 -12 35 -39q6 -15 6 -33q0 -37 -23 -85q-21 -45 -59 -89q33 5 64 8h1q7 0 11.5 -4.5t4.5 -10.5t-4.5 -10.5t-10.5 -5.5
q-54 -4 -103 -15q-1 0 -1.5 -0.5t-0.5 -1.5q-120 -108 -193 -138q-23 -9 -35 -9q-8 0 -15 3q-13 6 -15 20q-1 10 5 22q23 44 109 87q58 28 131 45q55 53 84 112q19 41 19 73q0 13 -3 22q-6 14 -20 21q-11 5 -29 5q-8 0 -18 -1q-73 -10 -196 -88q-4 -2 -8 -2q-6 0 -10.5 4.5
t-4.5 10.5q0 7 5 11q212 192 316 358q44 71 58 121q6 20 6 35q0 17 -6 25q-8 9 -28 11h-7q-20 0 -46 -7q-65 -17 -142 -64q-79 -49 -126 -103q-43 -49 -43 -85q0 -5 1 -9v-3q0 -6 -4.5 -10.5t-10.5 -4.5q-13 0 -15 12q-2 8 -2 16q0 47 51 104q50 57 133 109q81 50 150 68
q28 7 49 8zM192 -247q-35 -12 -63 -26q-37 -18 -62.5 -38.5t-32.5 -33.5q10 1 21 6q51 21 137 92z" />
    <glyph glyph-name="bracketleft" unicode="[" horiz-adv-x="300" 
d="M247 691h27q7 0 11.5 -4.5t4.5 -11t-4.5 -11t-11.5 -4.5q-9 1 -17 1q-43 0 -65 -8q-24 -7 -36 -30l-4.5 -11.5t-4.5 -15.5t-4 -17t-3.5 -21.5t-3 -23t-3 -27.5l-2.5 -29.5t-3.5 -34t-3.5 -36.5q-11 -109 -23 -191.5t-28.5 -174.5t-23.5 -142q-17 -160 -17 -215
q0 -30 3 -43q2 -8 4 -9q4 -1 14 3l32 16q62 32 106 43q2 1 3 1q7 0 11.5 -4.5t4.5 -11.5q0 -12 -12 -15q-40 -10 -99 -40q-25 -13 -35 -17q-14 -5 -23 -5q-6 0 -11 2q-18 5 -24 28q-5 18 -5 51q0 58 17 220q8 51 24.5 143t28.5 174t22 190l6 62l5.5 57t5 40.5t8.5 39.5
t11 28q17 34 53 45q25 8 65 9z" />
    <glyph glyph-name="backslash" unicode="\" horiz-adv-x="392" 
d="M8 535q9 0 13 -8q50 -101 144 -343t147 -353q1 -3 1 -7q0 -6 -4.5 -10.5t-10.5 -4.5q-10 0 -14 9q-45 95 -98 229l-102.5 259.5t-89.5 206.5q-2 3 -2 7q0 6 4.5 10.5t11.5 4.5z" />
    <glyph glyph-name="bracketright" unicode="]" horiz-adv-x="295" 
d="M255 695q15 0 24 -8q12 -11 14 -35v-16q0 -16 -2 -41q-3 -40 -30 -230v-1q-28 -184 -46 -484q-8 -122 -16 -171q-10 -56 -33 -76q-17 -15 -60 -19q-54 -6 -85 -16h-5q-6 0 -10.5 4.5t-4.5 10.5q0 12 11 15q35 10 91 16q33 3 43 12q14 13 22 58q9 47 16 167q18 302 47 488
q26 189 30 228q2 24 2 39q0 8 -1 13q-1 13 -4 15q-1 2 -8 1q-8 -1 -31 -8q-64 -18 -113 -19h-1q-6 0 -10.5 4.5t-4.5 10.5t4.5 10.5t10.5 4.5q45 2 106 19q25 7 36 8q4 1 8 0z" />
    <glyph glyph-name="asciicircum" unicode="^" horiz-adv-x="220" 
d="M118 455h2q16 0 35 -18q8 -7 44 -46q4 -4 4 -10t-4.5 -10.5t-10.5 -4.5q-7 0 -12 5q-34 37 -41 44q-11 10 -15 9q-5 0 -18 -11l-20 -20t-24 -23q-4 -5 -10.5 -5t-11 4.5t-4.5 11.5q0 6 5 11q8 7 23 22t22 21q20 19 36 20z" />
    <glyph glyph-name="underscore" unicode="_" horiz-adv-x="362" 
d="M222 -133q34 0 60 -2q6 -1 10.5 -5.5t4.5 -10.5t-4.5 -10.5t-11.5 -4.5h-1q-26 2 -61 2q-81 0 -182 -9h-2q-6 0 -10.5 4.5t-4.5 10.5t4 10.5t10 4.5q103 10 184 10h4z" />
    <glyph glyph-name="grave" unicode="`" horiz-adv-x="153" 
d="M46 351q8 0 12 -5l52 -65q4 -5 4 -10q0 -6 -4.5 -10.5t-10.5 -4.5q-8 0 -12 6l-53 64q-3 5 -3 10q0 7 4.5 11t10.5 4z" />
    <glyph glyph-name="a" unicode="a" 
d="M175 205q6 0 10.5 -4.5t4.5 -10.5v-1q-5 -103 -7 -202v-6q0 -47 10 -57q2 -1 5 -1q6 1 16 8q31 22 97 110q5 6 13 6q6 0 10.5 -4.5t4.5 -10.5q0 -5 -3 -10q-69 -92 -104 -116q-16 -11 -29 -13h-6q-15 0 -25 10q-20 18 -20 73q0 6 1 12q1 44 2 94q-20 -34 -68 -106
q-22 -33 -45 -59q-27 -29 -45 -36q-16 -7 -28 2q-11 8 -11 29q0 27 21 86q28 80 76 126q42 40 89 40q7 0 14 -1l1 28q1 6 5.5 10t10.5 4zM143 134q-34 0 -67 -32q-43 -41 -68 -114q-20 -55 -19 -77q13 8 30 27q22 24 43 55q62 93 87 140q-3 1 -6 1z" />
    <glyph glyph-name="b" unicode="b" horiz-adv-x="281" 
d="M143 676q8 1 14 -5t8 -19q2 -10 2 -27q0 -12 -1 -28q-6 -87 -40 -233t-97 -325q0 -1 -1 -1l-6 -49q23 59 51 97q39 55 78 57h5q18 -1 31 -13q14 -13 20 -36q3 -16 3 -35q0 -25 -6 -54q11 5 17 7q2 1 5 1q7 0 11.5 -4.5t4.5 -10.5q0 -11 -10 -15q-20 -8 -39 -17
q-31 -95 -67 -132q-19 -18 -36 -19h-1q-10 0 -18 6.5t-11 14.5q-2 8 -2 17q0 30 29 68q29 36 80 65q13 41 13 74q0 15 -3 26q-4 15 -11 22q-5 5 -13 5q-24 -2 -55 -45q-39 -54 -70 -154q-12 -40 -19 -80t-12 -61v0l-2 -6v0q-5 -8 -14 -8q-6 0 -10.5 4.5t-4.5 10.5q0 2 1 4
q43 420 118 762q12 55 23 88q11 34 22 43q5 5 12 5h1zM136 617q-10 -32 -21 -83q-33 -151 -60 -316q71 237 80 381q1 9 1 18zM151 -60q-24 -19 -40 -38q-13 -18 -18.5 -34t-3.5 -22q7 1 15 10q24 24 47 84z" />
    <glyph glyph-name="c" unicode="c" horiz-adv-x="274" 
d="M139 206q4 1 8 0q18 -2 26 -19q5 -11 5 -25q0 -23 -14 -64q-4 -10 -15 -10q-6 0 -10.5 4.5t-4.5 10.5q0 3 1 5q11 34 11 56q0 7 -1 10q-1 2 -2 2q-4 0 -13 -4q-22 -10 -50.5 -44t-45.5 -73q-26 -62 -28 -120v-7q0 -51 21 -68q10 -8 26 -7q20 2 49 20q69 43 168 169
q5 6 12 6t11.5 -4.5t4.5 -10.5t-4 -10q-103 -130 -176 -176q-35 -21 -62 -24q-4 -1 -8 -1q-24 0 -41 14q-31 27 -31 91v9q2 64 30 131q19 45 50 81.5t61 51.5q12 6 22 6z" />
    <glyph glyph-name="d" unicode="d" horiz-adv-x="262" 
d="M354 717q13 3 22 -6q12 -11 12 -36v-6q-1 -28 -10 -68q-22 -95 -84 -232q-11 -24 -75 -154q-55 -296 -56 -463v-5q0 -18 1 -43q0 -7 -4.5 -11.5t-11 -4.5t-11 4.5t-4.5 10.5q-1 25 -1 44v5q1 145 34 353l-21.5 -43.5t-19.5 -40.5q-35 -68 -68 -111q-34 -43 -58 -50
q-4 -2 -9 -2q-13 0 -21 9q-10 10 -11 30v5q0 33 21 95q25 76 74 137q62 78 129 82h2h2q1 1 2 3.5t1 3.5q34 180 47 231q31 132 69 206q16 32 31 46q9 8 18 11zM356 682q-12 -12 -24 -36q-35 -69 -66 -199q-5 -19 -12.5 -59l-10.5 -55q4 9 11 22.5l13 25.5q60 132 81 227
q9 37 9 62q0 6 -1 12zM169 182q-47 -12 -92 -67q-46 -58 -70 -127q-9 -29 -13.5 -51t-4.5 -36l2 -12q15 6 42 39q31 40 65 107l34 71z" />
    <glyph glyph-name="e" unicode="e" horiz-adv-x="230" 
d="M111 215q6 0 12 -4q10 -6 13 -20q2 -10 0 -24q-5 -28 -27 -66q-16 -28 -40 -50.5t-48 -32.5q-7 -32 -7 -57q0 -44 19 -55q5 -4 13 -4q20 0 49 18q54 33 131 120q4 5 11 5t11.5 -4.5t4.5 -10.5t-4 -10q-80 -91 -138 -126q-37 -22 -65 -22q-16 0 -29 7q-33 20 -33 82
q0 50 22 118q10 29 30 66q21 38 42 56q11 9 21 13q6 1 12 1zM106 183q-4 -1 -8 -5q-17 -15 -36 -48q-18 -34 -27 -61q-1 -1 -3 -8q33 26 50 55v0q19 33 24 56q1 7 0 11z" />
    <glyph glyph-name="f" unicode="f" horiz-adv-x="214" 
d="M141 521q3 0 7 -1q11 -4 17 -17q5 -10 7 -25q2 -12 2 -27q0 -62 -26 -151q-39 -136 -122 -274q-1 -4 -4 -27q3 0 6 -2q32 -21 66 -21q19 0 39 7q47 16 76 55q5 6 13 6q6 0 10.5 -4.5t4.5 -10.5q0 -5 -3 -10q-35 -46 -91 -65q-24 -8 -48 -8q-29 0 -55 11l15 -94
q8 -60 8 -109q0 -36 -4 -65q-5 -30 -15 -48q-11 -21 -28 -24h-4q-17 0 -29 17q-10 14 -16 42q-6 29 -6 69q0 39 6 86q28 210 72 444q30 162 66 219q9 14 17.5 20.5t18.5 6.5zM139 488q-4 -4 -8 -10q-33 -53 -62 -208q-16 -84 -28 -155q51 99 78 193q24 85 24 144q0 13 -1 22
q-1 8 -3 14zM12 -64l-15 -109q-5 -44 -5 -82q0 -37 5 -63q5 -21 12 -31q1 -2 2 -3q3 2 6 8q7 13 11 38q5 26 5 60q0 47 -8 104q-5 33 -13 78z" />
    <glyph glyph-name="g" unicode="g" horiz-adv-x="268" 
d="M121 175q19 -1 37 -11q7 -4 7 -13q0 -6 -4 -10.5t-11 -4.5q-4 0 -7 2q-12 7 -23 7q-13 0 -27 -9q-25 -16 -47 -55q-20 -36 -26 -73q-1 -9 -1 -18q0 -19 4 -23.5t9 -5.5q6 0 16 5q21 12 49 46q24 29 46 67t31 61q0 3 2 4q4 8 13 8v1q7 0 11 -4.5t4 -11.5v-1
q-9 -95 -33 -233q5 3 8 4q4 2 8 2q6 0 10.5 -4.5t4.5 -10.5q0 -10 -9 -14q-14 -7 -29 -18q-17 -92 -17 -93q-22 -118 -61 -192q-36 -68 -73 -74q-3 -1 -6 -1q-19 0 -30 17q-9 15 -9 40q0 61 46 159q49 103 122 161q19 107 28 176q-21 -35 -44 -63q-31 -38 -57 -52
q-16 -9 -30 -9h-2q-6 0 -11.5 2t-10.5 5.5t-9 7.5q-13 14 -13 39q0 12 3 29q7 41 30 82q25 45 57 66q18 11 39 12q2 1 5 1zM127 -171q-51 -51 -85 -124q-43 -89 -44 -142q0 -20 5 -28q2 -3 5 -2q7 1 22 16.5t29 41.5q37 70 58 183q1 10 10 55z" />
    <glyph glyph-name="h" unicode="h" horiz-adv-x="358" 
d="M137 663q3 1 5 0q8 -2 12 -9q3 -6 4 -18q2 -18 -2 -54q-20 -197 -129 -541q-7 -71 -12 -138q1 1 3.5 6t3.5 8q68 151 109 225q29 52 44 70q10 12 19 15q9 2 16 -2q6 -4 9 -11q6 -11 6 -49q0 -11 -1 -37.5t-1 -42.5q0 -65 11 -102q10 -30 24 -35t35 13q28 23 58 76
q5 7 14 7q6 0 10.5 -4t4.5 -11q0 -4 -2 -8q-34 -57 -65 -83q-35 -29 -65 -19q-29 10 -43 55q-13 42 -12 111q0 17 0.5 43.5t0.5 36.5q0 9 -1 20q-13 -19 -35 -58q-41 -73 -108 -222q-22 -48 -30 -61q-4 -5 -7 -8t-6 -5q-7 -2 -13 1q-9 3 -11 14q-1 4 -1 11v1q5 89 14 183v1
q0 3 1 5q28 262 88 500q12 48 22 76q4 13 9 22q5 11 11 15q5 3 10 3zM125 580l-11 -40q-34 -139 -60 -299q57 213 71 339z" />
    <glyph glyph-name="i" unicode="i" horiz-adv-x="168" 
d="M53 219q7 0 11.5 -4.5t4.5 -10.5q0 -2 -1 -4q-6 -20 -10 -37q-3 -12 -15 -12q-6 0 -10.5 4.5t-4.5 10.5v4q5 19 11 38q3 11 14 11zM31 135q7 0 11.5 -4.5t4.5 -10.5q0 -2 -1 -4q-18 -62 -26 -110q-5 -33 -5 -58q0 -17 3 -27q2 -8 6 -9q6 -2 19 5q42 24 120 120q5 6 12 6
q6 0 10.5 -4.5t4.5 -10.5t-3 -10q-82 -101 -129 -127q-18 -10 -32 -10q-6 0 -12 2q-9 3 -15.5 11t-10.5 19q-4 15 -4 36q0 24 6 62q8 50 27 113q3 11 14 11z" />
    <glyph glyph-name="j" unicode="j" horiz-adv-x="119" 
d="M39 225q7 0 11 -4.5t4 -10.5v-4q-2 -8 -3.5 -16t-3.5 -15q-2 -12 -14 -12q-7 0 -11.5 4.5t-4.5 10.5q0 2 1 4q1 6 2.5 14t3.5 17q3 12 15 12zM26 152q6 0 10.5 -4.5t4.5 -10.5q0 -1 -1 -2l-35 -228q9 9 17 16q5 3 10 3q7 0 11.5 -4.5t4.5 -10.5q0 -7 -6 -12
q-18 -15 -46 -47q-2 -14 -8.5 -51l-10.5 -59v0q-19 -111 -53 -178q-15 -29 -30 -45q-18 -18 -34 -18h-1q-21 1 -29 24q-5 12 -5 29q0 8 1 18q6 63 50 158q31 64 92 136q17 104 42 273q1 6 5.5 10t9.5 4zM-43 -199q-36 -49 -53 -84q-42 -90 -47 -148q-1 -7 -1 -14
q0 -13 2 -20l2 -4v0q3 0 12 9q12 13 25 38q32 63 50 169q5 30 10 54z" />
    <glyph glyph-name="k" unicode="k" horiz-adv-x="348" 
d="M161 675q2 0 4 -1q8 -1 13 -7.5t6 -19.5q1 -8 1 -20q0 -16 -2 -38q-8 -87 -44 -227t-101 -306l-6 -45l14 34q31 67 61 100q14 15 25 20q9 3 16 1q10 -3 14 -13q4 -11 -1 -29q-5 -16 -17 -37q-29 -48 -85 -103q-2 -2 -6 -5q-1 -2 -2 -6q12 -20 45 -59q1 -1 6.5 -8t7 -8.5
t7 -7.5t8.5 -8t8.5 -6t10 -5.5t10.5 -3t12 -1.5h2q71 3 174 170q4 7 13 7q6 0 10.5 -4.5t4.5 -10.5q0 -5 -2 -8q-112 -181 -198 -185h-4q-9 0 -18 2t-15.5 5t-14 8t-12 8.5t-11 10t-9 9.5l-7.5 9t-6 7q-25 29 -33 40q-11 -41 -19 -84q-5 -30 -8 -60q0 -4 -0.5 -8.5
l-0.5 -4.5q0 -2 -0.5 -2.5t-0.5 -1.5t-1 -2q-2 -5 -10 -9l-4.5 2t-8.5 4t-5 3q0 2 -1 4v1v5q4 109 23 253q-3 4 -3 9q0 3 1 6t3 8t3 7q35 246 94 480q13 54 25 86q6 15 11 25q6 12 13 16q5 3 10 4zM154 616q-10 -31 -22 -79q-37 -147 -68 -319q75 227 89 374q1 11 1 24z
M127 121q-19 -21 -39 -60q18 23 29 42q6 9 10 18z" />
    <glyph glyph-name="l" unicode="l" horiz-adv-x="230" 
d="M148 673q7 -1 13 -4q5 -4 8 -11q4 -9 5 -25q1 -12 1 -27q0 -22 -2 -52q-10 -114 -48 -259.5t-100 -262.5q-2 -32 -2 -58q0 -23 2 -43q3 -53 16 -77q5 -11 11 -14q5 -3 13 -2q23 6 61 50q43 51 100 149q4 8 13 8q6 0 10.5 -4.5t4.5 -10.5q0 -5 -2 -8q-58 -101 -103 -154
q-44 -52 -77 -59q-6 -2 -12 -2q-13 0 -23 6q-14 9 -24 27q-15 30 -19 89q-1 22 -1 48q0 22 1 48q-2 3 -2 6q0 4 2 8h1q5 104 26.5 230.5t49.5 232.5v0q20 79 37 121q8 20 16 32q9 14 20 17q2 1 4 1zM144 628q-4 -7 -7 -16q-17 -40 -37 -118q-48 -183 -68 -376
q45 106 74 226.5t36 211.5q3 28 3 50q0 13 -1 22z" />
    <glyph glyph-name="m" unicode="m" horiz-adv-x="525" 
d="M210 208q15 1 25 -10q8 -8 12 -23q4 -16 4 -37q0 -17 -2 -40q-5 -38 -8 -70.5t-5 -56.5q43 70 65 110q24 43 40 54q13 9 25 5q10 -4 16 -16q5 -13 7 -40v-27v-7.5v-6.5q0 -42 3.5 -70.5t8.5 -42.5q4 -10 8 -13q3 -1 7 1q16 7 45 41l58 76q5 7 13 7q6 0 10.5 -4.5
t4.5 -11.5q0 -5 -3 -9q-49 -64 -60 -77q-33 -40 -56 -50q-8 -3 -17 -3t-16 3q-14 8 -22 28q-14 36 -14 125v6.5v6.5q0 16 -1 26q0 14 -3 25q-12 -13 -27 -41q-15 -27 -93 -155q-3 -7 -9 -9q-8 -2 -14 2q-4 2 -6 6q-2 5 -3 14v7q0 11 2 31q3 49 13 140q2 20 2 36q0 18 -2 29
q-2 8 -5 10v1v-1q-9 0 -25 -21q-21 -26 -43 -74q-109 -230 -120 -266q-2 -6 -6 -9t-9 -3t-9 3t-6 7q-1 3 -2 9q0 8 -1 27v15q0 35 2 79q4 147 15 228q0 6 4.5 10t10.5 4t10.5 -4.5t4.5 -11.5v-2q-11 -80 -15 -225q-1 -24 -1 -49l94 201q24 51 47 80q25 31 46 33zM210 -72
l-1 -1v-1q0 1 0.5 1.5zM-3 -172l-1 -3q0 1 0.5 2z" />
    <glyph glyph-name="n" unicode="n" horiz-adv-x="368" 
d="M43 186q6 0 10.5 -4.5t4.5 -10.5q0 -2 -1 -4q-31 -130 -51 -252q0 -3 -4 -26q20 34 50 80l62 100q28 47 50 72q11 14 22 21q13 10 25 10q15 -1 24 -15q6 -11 9 -30q1 -12 1 -28q0 -30 -5 -76q-5 -41 -5 -71q0 -27 3 -40q3 -8 5 -9t7 2q18 9 49 48q25 30 62 84q4 7 12 7
q7 0 11.5 -4.5t4.5 -10.5q0 -5 -3 -9q-38 -56 -63 -87q-35 -43 -59 -55q-11 -6 -21 -6q-6 0 -12 3q-15 6 -22 28q-5 18 -5 48t5 76q5 44 5 73q0 14 -1 23q-1 13 -4 18q-3 -1 -5 -3q-8 -6 -17 -17q-20 -23 -47 -68q-30 -51 -53.5 -86.5l-41.5 -64.5t-50 -88q-1 -3 -4 -5
q-3 -3 -6 -4q-7 -2 -12.5 1.5t-7.5 9.5q-1 3 -1 5q0 7 1 21q3 27 11 78q20 123 52 254q2 12 14 12h1zM-31 -171q-1 0 -1 -1z" />
    <glyph glyph-name="o" unicode="o" horiz-adv-x="241" 
d="M115 216q10 -1 20 -4q41 -13 50 -67q3 -14 3 -29q0 -48 -25 -113v-1.5v-0.5q38 7 74 40q5 4 11 4t10.5 -4.5t4.5 -10.5q0 -7 -5 -11q-51 -47 -109 -50q-22 -46 -49 -66q-18 -13 -37 -13t-34 14q-14 12 -22.5 32t-11.5 47q-1 11 -1 22q0 48 17 100q1 2 3 4q10 55 45 85
q26 22 55 22h1zM114 185q-18 0 -35 -14q-29 -24 -36 -71q-1 -5 -1 -11q0 -24 15 -46t40 -34q15 -8 32 -10q4 9 6 14q22 60 22 104q0 12 -2 23q-6 36 -30 43q-5 2 -11 2zM27 34q-2 -15 -2 -29q0 -10 1 -19q4 -43 23 -59q7 -6 14 -6q9 0 19 7q17 12 34 43q-17 3 -32 10
q-38 18 -57 53z" />
    <glyph glyph-name="p" unicode="p" horiz-adv-x="371" 
d="M51 233q6 0 10.5 -4.5t4.5 -10.5q0 -2 -1 -3q-48 -211 -73 -410q57 219 150 312q32 32 60 39q8 1 15 1q24 -1 37 -19t13 -50v-14q-3 -30 -15 -67q52 22 114 39h4q6 0 10.5 -4.5t4.5 -10.5q0 -12 -11 -15q-78 -21 -139 -50q-47 -92 -97 -126q-21 -15 -38 -15q-2 0 -4 1
q-12 1 -19 9t-7 20q1 19 18 43q18 24 51 48q31 22 73 43q21 50 24 87q1 6 1 11q0 23 -8 33q-6 9 -20 6q-20 -5 -45 -30q-30 -30 -59 -82.5t-57.5 -131.5t-50.5 -195t-31 -252v-8q0 -7 -4.5 -11t-10.5 -4t-10.5 4t-4.5 10q-1 1 -1 3v1q0 1 0.5 3t0.5 3q2 362 100 785
q2 12 15 12zM185 -60q-17 -11 -28 -19q-29 -21 -44 -42q-11 -13 -12 -23q9 2 20 9q31 21 64 75z" />
    <glyph glyph-name="q" unicode="q" horiz-adv-x="349" 
d="M145 202h4q17 -1 32 -10q8 -4 8 -13q0 -6 -4.5 -10.5t-10.5 -4.5q-4 0 -8 2q-10 6 -21 6q-14 0 -33 -12q-29 -20 -56 -65q-26 -42 -36 -83q-5 -18 -5 -31q0 -11 3 -15q5 -4 10 -5q6 0 15 5q22 12 49 46q24 29 46.5 67t30.5 61q1 3 2 4q5 8 14 8v1q6 0 10.5 -4.5
t4.5 -11.5v-1q-5 -50 -13 -106.5t-15 -95.5l-19 -105t-18 -102q38 100 90 183t121 131q4 3 9 3q7 0 11.5 -4.5t4.5 -11.5q0 -8 -7 -13q-45 -30 -85 -82t-69.5 -112.5t-49.5 -114t-35 -107.5q-11 -39 -19 -76q-3 -12 -4 -21q-1 -5 -1 -5.5t-1 -0.5v-1v0v-2q-1 -2 -8.5 0
t-14.5 4.5l-7 2.5v1v0v1h1v1t0.5 3t0.5 5l5 29l17 124v1q9 57 32.5 188t33.5 202q-21 -35 -44 -63q-32 -38 -58 -52q-16 -9 -30 -9h-2q-8 0 -16 4t-15 11q-10 12 -10 35q0 17 5 38q12 46 40 92q30 50 65 74q25 16 50 17z" />
    <glyph glyph-name="r" unicode="r" horiz-adv-x="258" 
d="M33 181h1q6 0 10.5 -4.5t4.5 -10.5v-3q-26 -133 -37 -228q46 101 73 145q22 37 39 46q14 9 27 1q9 -7 14 -22v-4q2 -39 6 -60q4 -25 12 -34q6 -6 17 -3q20 5 53 34q4 4 10 4t10.5 -4.5t4.5 -10.5q0 -7 -5 -12q-19 -17 -34.5 -27t-29.5 -14q-7 -2 -15 -2q-21 0 -34 15
q-13 16 -19 49q-4 21 -6 61q-11 -12 -24 -33q-36 -59 -110 -228q-4 -9 -14 -9q-7 0 -11.5 4.5t-4.5 10.5v1q12 139 48 326q2 12 14 12z" />
    <glyph glyph-name="s" unicode="s" horiz-adv-x="222" 
d="M64 215q16 -1 24 -12q7 -10 7 -25q0 -6 -1 -13q-8 -51 -67 -130q0 -1 -1 -1l4 -21q10 -45 14 -91l17 14q25 20 52.5 39.5l61 41.5l39.5 26q4 3 9 3q6 0 10.5 -4.5t4.5 -10.5q0 -9 -7 -13.5l-40 -26l-60 -40.5t-51 -39q-16 -13 -33 -29q1 -15 1 -28q0 -43 -7 -75
q-10 -48 -29 -75q-19 -29 -43 -29q-13 0 -23 9q-8 8 -12 22q-3 11 -3 24q0 19 6 42q15 60 79 122q-4 57 -16 111q-8 38 -8 71q0 40 11 73q18 54 52 64q4 1 9 1zM63 184q-5 -2 -15 -13.5t-16 -30.5q-8 -25 -9 -58q35 55 40 87q2 10 0 15zM17 -148q-19 -22 -32 -43.5
t-19 -43.5q-4 -18 -4 -34q0 -9 1 -16q2 -6 5 -8q0 -1 1 -1q8 0 18 16q16 23 24 64q6 27 6 66z" />
    <glyph glyph-name="t" unicode="t" horiz-adv-x="228" 
d="M505 421q7 0 11.5 -4.5t4.5 -10.5t-4 -10t-9 -5l-385 -68q-40 -173 -96 -289q-4 -50 -4 -87q0 -66 10 -100q5 -16 12 -23q5 -5 10 -5q22 1 60 49q46 55 109 169q4 8 13 8q6 0 10.5 -4.5t4.5 -10.5q0 -4 -2 -8q-64 -116 -111 -174q-47 -57 -82 -59h-2q-19 0 -32 14
q-12 12 -19 36q-6 20 -9 46.5t-3 60.5q0 143 41 361l-232 -41q-1 -1 -3 -1q-6 0 -10.5 4.5t-4.5 11.5q0 5 4 9.5t9 5.5l243 43q28 142 60 239q14 41 24 54q4 5 9 7q3 2 8 2t9 -2q9 -5 12 -19q2 -11 2 -28q0 -10 -1 -26q-2 -35 -9 -83q-8 -62 -23 -128l372 66h3zM132 581
q-3 -8 -4 -13q-29 -89 -56 -223l26 4q16 72 25 138q7 47 9 81v13zM90 317l-24 -5q-17 -89 -28 -172q29 80 52 177z" />
    <glyph glyph-name="u" unicode="u" horiz-adv-x="303" 
d="M190 209q6 0 10.5 -4.5t4.5 -10.5v-2q-3 -21 -8 -127q-1 -19 -1 -34q0 -27 3 -44q4 -27 11 -32q2 -1 6 0q7 2 17 10q26 19 65 72q5 7 13 7q6 0 10.5 -4.5t4.5 -11.5q0 -5 -3 -9q-42 -56 -71 -79q-16 -11 -29 -15q-17 -3 -29 5q-20 12 -25 52q-3 20 -3 48q0 16 1 36
q0 12 0.5 24.5t1.5 19.5q-32 -69 -57 -114t-44 -70q-13 -17 -22.5 -24.5t-21.5 -8.5q-14 -1 -23 11q-6 8 -9 21q-3 15 -3 37q0 34 8 88q12 78 29 125q4 11 15 11q6 0 10.5 -4.5t4.5 -11.5q0 -3 -1 -5q-16 -44 -28 -120q-7 -48 -7 -85q0 -18 2 -29l2 -6q10 7 20 20
q47 61 132 255q4 9 14 9z" />
    <glyph glyph-name="v" unicode="v" horiz-adv-x="209" 
d="M222 272h1q6 0 10.5 -4.5t4.5 -11.5q0 -2 -1 -5q-56 -154 -117 -277q-29 -60 -50 -93q-12 -17 -21 -27q-5 -5 -10 -8q-8 -5 -16 -4q-12 2 -20 14q-5 8 -8 21q-6 22 -6 58q0 41 6 97v5q0 4 2 7q3 23 6 43q13 67 24 90q4 6 7 10q3 3 6 5q7 3 13 0q9 -3 12 -13q1 -4 1 -10
q1 -24 -9 -61q-11 -40 -31 -74q-7 -57 -7 -98q1 -33 5 -51q1 -5 3 -9q7 7 17 22q20 31 48 89q61 123 117 275q3 9 13 10z" />
    <glyph glyph-name="w" unicode="w" horiz-adv-x="344" 
d="M319 236h1q6 0 10.5 -4.5t4.5 -10.5q0 -4 -2 -8q-13 -23 -32 -103l-9.5 -45.5l-11 -50.5t-9.5 -41q-13 -58 -21 -84q-13 -40 -26 -51q-6 -5 -14 -6q-8 0 -15 5q-9 6 -17 23q-13 28 -28 99h-1q-4 20 -10 56l-44 -75q-31 -53 -46 -76q-24 -37 -39 -47q-6 -4 -12 -5
q-10 -1 -17 5q-9 8 -11 26q-2 29 9 100l23.5 142.5t19.5 94.5q2 12 14 12q7 0 11.5 -4.5t4.5 -10.5q0 -3 -1 -5q-14 -55 -42 -234q-10 -61 -8 -88q11 13 22 30q15 23 46 75q44 76 63 113q5 8 14 8q12 0 15 -12l9.5 -52l8.5 -46v-1q15 -67 27 -92q1 -3 2 -5q7 13 13 30
q7 25 20 82v0l14.5 65t15.5 72q20 84 35 111q4 8 13 8z" />
    <glyph glyph-name="x" unicode="x" horiz-adv-x="285" 
d="M230 192h1h1q6 -1 10 -5.5t4 -10.5q0 -8 -6 -12q-15 -11 -51 -53q-32 -37 -78 -96q-16 -20 -34 -45q7 -11 16 -23q25 -36 48 -43q6 -3 12 -3q11 0 25 9q31 20 101 127q5 7 13 7q6 0 10.5 -4.5t4.5 -10.5q0 -5 -2 -8q-27 -42 -39.5 -60t-33 -41.5t-38.5 -35.5
q-20 -13 -42 -13q-11 0 -22 4q-31 11 -62 55q-6 7 -11 15l-99 -135q-5 -7 -13 -7q-6 0 -10.5 4.5t-4.5 11.5q0 5 3 9l106 143q-35 53 -80 137q-1 3 -1 7q0 6 4.5 10.5t10.5 4.5q9 0 13 -8q42 -78 73 -125q14 20 28 36q46 60 79 98q38 45 56 58q4 2 8 3z" />
    <glyph glyph-name="y" unicode="y" horiz-adv-x="291" 
d="M50 180q6 0 10.5 -4.5t4.5 -10.5q0 -3 -1 -5q-52 -150 -54 -212q-1 -18 3 -26q3 0 7 2q29 15 80 82q50 67 99 155q4 8 13 8q6 0 10.5 -4t4.5 -10q1 -14 1 -29q0 -100 -33 -230q1 0 3.5 1t3.5 2q3 1 6 1q7 0 11 -4.5t4 -10.5q0 -10 -9 -14q-14 -7 -30 -16
q-28 -99 -58 -161q-50 -104 -90 -153q-19 -23 -34 -31q-10 -5 -18 -5q-11 -1 -19 7q-11 10 -11 32q0 20 8 49q17 60 61 135q56 96 134 147q35 124 40 222q-37 -62 -73 -109q-55 -73 -90 -91q-11 -6 -21 -6q-13 0 -22 9q-12 13 -12 40v9q3 66 56 221q4 10 15 10zM143 -174
q-53 -44 -94 -113q-42 -72 -58 -129q-6 -23 -6 -39q0 -5 1 -9q1 0 1 1q10 5 25 24q38 46 87 146q21 44 44 119z" />
    <glyph glyph-name="z" unicode="z" horiz-adv-x="322" 
d="M125 154q19 0 27 -16q2 -4 2 -10q0 -3 -1 -7q-2 -7 -6 -18q-7 -21 -22 -52q-21 -46 -52 -100q47 27 79 27h3q27 -1 40 -21l1 -1q59 48 122 85q4 3 8 3q7 0 11.5 -4.5t4.5 -10.5q0 -10 -8 -14q-67 -40 -129 -92v-12q-3 -50 -38 -119.5t-89 -129.5q-43 -49 -75 -73
q-28 -22 -44 -22q-4 0 -8 1q-14 3 -19 18q-3 10 -1 24q4 25 24 63q29 58 85.5 128t131.5 134q-1 3 -2 5q-5 7 -16 8h-1q-39 0 -119 -59q-4 -3 -9 -3q-7 0 -11.5 4.5t-4.5 10.5q0 5 3 8q51 79 86 155q13 29 21 50l3 9q-9 -3 -20 -10q-36 -26 -83 -91q-4 -6 -12 -6
q-7 0 -11 4.5t-4 10.5q0 5 2 9q50 69 91 98q20 14 35 16h5zM123 130v-1v1zM172 -106q-66 -59 -115 -122t-75 -113q-17 -33 -21 -53v-7q12 5 24 14q29 22 71 69q43 49 75 109t41 103z" />
    <glyph glyph-name="braceleft" unicode="{" horiz-adv-x="300" 
d="M335.5 689h1.5q6 0 10.5 -4.5t4.5 -11.5q0 -6 -4.5 -10t-9.5 -5q-94 -9 -135 -68q-29 -43 -43 -139q-2 -13 -5.5 -40t-6 -43.5t-7 -40t-10.5 -42.5q-20 -68 -62 -110q20 -5 31 -19q20 -23 20 -72q0 -22 -4 -52t-8 -50.5t-12.5 -61t-11.5 -56.5q-18 -86 -18 -135
q0 -33 8 -52q10 -28 38 -35q8 -1 18 -1q33 0 82 18q3 1 6 1q6 0 10.5 -4.5t4.5 -10.5q0 -11 -10 -15q-54 -20 -92 -20q-14 0 -26 3q-44 9 -60 53q-10 27 -10 65q0 46 19 139q3 16 11.5 57l12.5 60.5t8 48t4 47.5q0 39 -13 53q-9 11 -27 11q-8 0 -21 -2q-1 -1 -3 -1
q-6 0 -10.5 4.5t-4.5 11.5q0 8 7 12q60 39 84 122q5 17 9.5 39.5t7 38t6 43t5.5 40.5q15 103 48 152q49 70 156 82h1.5z" />
    <glyph glyph-name="bar" unicode="|" horiz-adv-x="231" 
d="M164 526q6 0 10.5 -4.5t4.5 -10.5v-2q-63 -452 -85 -698q0 -6 -4.5 -10.5t-10.5 -4.5q-7 0 -11.5 4.5t-4.5 11.5v2q23 247 85 699q1 5 5.5 9t9.5 4h1z" />
    <glyph glyph-name="braceright" unicode="}" horiz-adv-x="295" 
d="M175 696q12 0 24 -2q45 -5 64 -35q11 -19 11 -48q0 -9 -1 -20q-3 -29 -18 -81q-2 -9 -9.5 -34l-11.5 -38t-9 -33.5t-8 -37.5t-4 -33q-1 -10 -1 -19q0 -76 60 -113q7 -4 7 -13q0 -6 -4.5 -10.5t-10.5 -4.5q-35 -1 -51 -27q-16 -25 -16 -79q0 -58 34 -235q4 -21 4 -42
q0 -84 -55 -145q-47 -52 -106 -52q-25 0 -49 12q-8 4 -8 13q0 7 4.5 11.5t10.5 4.5q4 0 7 -2q17 -9 37 -9q43 0 81 43q47 52 47 125q0 18 -3 35q-1 6 -6.5 35t-7.5 38t-6 33.5l-6 37t-4.5 32t-3 35t-0.5 30.5q0 62 20 96q15 23 41 34q-46 44 -46 120q0 9 1 18q1 22 6.5 49
t9.5 41.5t15 51t12 41.5q14 49 17 76q1 8 1 15q0 21 -7 33q-11 17 -42 21q-9 1 -19 1q-36 0 -90 -12h-4q-6 0 -10.5 4t-4.5 11q0 12 12 15q57 13 96 13z" />
    <glyph glyph-name="asciitilde" unicode="~" horiz-adv-x="257" 
d="M99 155h1q24 0 50 -25q16 -17 28 -17h3q11 2 22 22q5 8 14 8q6 0 10.5 -4.5t4.5 -11.5q0 -4 -2 -7q-18 -32 -44 -37h-8q-24 0 -50 25q-16 16 -28 16h-3q-11 -2 -22 -22q-5 -7 -14 -7q-6 0 -10.5 4t-4.5 11q0 4 2 8q18 31 44 36q3 0 7 1z" />
    <glyph glyph-name="uni00A0" unicode="&#xa0;" horiz-adv-x="220" 
 />
    <glyph glyph-name="cent" unicode="&#xa2;" horiz-adv-x="315" 
d="M236 352q6 -1 10.5 -5.5t4.5 -10.5q0 -2 -1 -4q-11 -44 -22 -102q12 4 22 4q13 -1 23 -8q15 -11 15 -33q0 -15 -8 -34q-4 -10 -15 -10q-6 0 -10.5 4.5t-4.5 10.5q0 3 1 6q7 15 6 25q0 5 -2 7q-2 1 -7 1q-11 0 -26 -9q-33 -18 -67.5 -67.5t-55.5 -124.5q-12 -42 -12 -72
q0 -21 5 -34q10 -25 37 -25h2q29 1 70 29.5t67 70.5q4 8 13 8q7 0 11.5 -4.5t4.5 -10.5q0 -5 -3 -9q-26 -42 -63 -72t-75 -39l-14 -110q0 -5 -4.5 -9t-10.5 -4t-10.5 4t-4.5 11v2q6 51 13 103q-45 3 -61 43q-8 20 -8 46q0 33 13 80q21 74 54.5 125.5t70.5 77.5v1v4
q14 69 27 122q2 12 15 12z" />
    <glyph glyph-name="sterling" unicode="&#xa3;" horiz-adv-x="399" 
d="M325 385q9 0 17 -4q18 -8 28 -33q8 -20 11 -49q1 -12 1 -24q0 -48 -14 -93q-3 -11 -15 -11q-6 0 -10.5 4.5t-4.5 10.5q0 3 1 5q12 40 12 85q0 11 -1 20q-2 25 -8 41q-6 13 -13 17q-6 2 -18 -4q-17 -11 -39 -40q-51 -69 -115 -227q64 23 147 36h2q6 0 10.5 -4.5t4.5 -10.5
t-3.5 -10.5t-9.5 -4.5q-96 -15 -166 -44q-41 -106 -41 -157q0 -20 6 -32q6 -10 19 -14q9 -3 24 -3q26 0 66 9q18 3 64.5 14.5t74.5 17.5h3q6 0 10.5 -4t4.5 -11q0 -12 -12 -15q-26 -5 -72.5 -16.5t-65.5 -15.5q-46 -10 -71 -10q-20 0 -36 5q-24 8 -35 28q-10 19 -10 47v6
q1 49 31 133q-22 -11 -47 -26q-3 -3 -8 -3q-6 0 -10.5 4.5t-4.5 11.5q0 8 8 13q39 24 78 41q4 11 5 12q69 173 125 248q25 34 48 48q14 9 29 9z" />
    <glyph glyph-name="degree" unicode="&#xb0;" horiz-adv-x="165" 
d="M126 487q6 0 11 -3q17 -9 17 -31q0 -18 -12 -44q-20 -42 -41 -59q-14 -11 -27 -11q-7 0 -12 2q-16 8 -18 31q-1 3 -1 6q0 14 5 30q13 45 42 72q4 4 10 4q4 0 7 -2v1q9 4 19 4zM123 456q-1 0 -2 -1q-6 -2 -9 -9q-4 -8 -14 -8h-3q-12 -18 -18 -38q-4 -15 -3 -26q0 -3 1 -4
q3 1 7 4q16 12 32 48q9 19 9 31v3z" />
    <glyph glyph-name="plusminus" unicode="&#xb1;" horiz-adv-x="314" 
d="M174 293q6 0 10.5 -4.5t4.5 -10.5v-4q-14 -56 -24 -109q58 6 108 6h15q6 0 10.5 -4.5t4.5 -10.5t-4.5 -10.5t-10.5 -4.5h-1h-13q-53 0 -114 -7q-7 -44 -11 -81.5t-4 -65.5v-6v-1q0 -6 -4.5 -10.5t-10.5 -4.5t-10.5 4.5t-4.5 10.5v8q0 57 13 142q-52 -8 -89 -17
q-2 -1 -4 -1q-6 0 -10.5 4.5t-4.5 11.5q0 12 12 14q43 11 102 19q10 58 25 120q3 12 15 12zM192 -71h5q26 0 49 -2q6 0 10 -4.5t4 -10.5t-4.5 -10.5t-10.5 -4.5h-2q-22 2 -46 2q-37 0 -156 -12h-2q-6 0 -10.5 4.5t-4.5 11.5q0 5 4 9.5t10 5.5q118 11 154 11z" />
    <glyph glyph-name="acute" unicode="&#xb4;" horiz-adv-x="159" 
d="M84 342h1q6 0 10.5 -4.5t4.5 -10.5t-3 -10l-52 -65q-5 -6 -12 -6t-11.5 4.5t-4.5 11.5q0 5 4 9l52 65q4 6 11 6z" />
    <glyph glyph-name="periodcentered" unicode="&#xb7;" horiz-adv-x="147" 
d="M75.5 50q6.5 0 10.5 -4.5t4 -10.5v-3q-1 -10 -6 -21q-4 -9 -14 -9q-6 0 -10.5 4.5t-4.5 10.5q0 4 1 7q3 6 4 13q1 5 5 9t10.5 4z" />
    <glyph glyph-name="cedilla" unicode="&#xb8;" horiz-adv-x="191" 
d="M63 -63q6 0 9.5 -3.5t3.5 -9.5v-1l-2 -20q23 0 36 -10q15 -9 15 -26q0 -4 -2 -9q-5 -13 -22 -23q-13 -8 -29 -11q-17 -3 -28 2q-9 3 -12 11t0 18q3 8 12 8q5 0 8.5 -3.5t3.5 -8.5v-3q6 -1 12 1q11 2 21 7q9 6 11 12q1 2 -4 5q-8 5 -25 5h-9h-1q-5 0 -9 3.5t-4 8.5
q0 1 1 1l2 34q0 5 3.5 8.5t8.5 3.5z" />
    <glyph glyph-name="questiondown" unicode="&#xbf;" horiz-adv-x="299" 
d="M286 488h1q6 0 10.5 -4.5t4.5 -10.5q0 -2 -1 -5q-2 -6 -2 -13t-4.5 -11.5t-10.5 -4.5t-10.5 4.5t-4.5 11.5q0 11 3 22t14 11zM281 410h1q6 0 10.5 -4.5t4.5 -11.5q0 -45 -20.5 -105t-43 -103.5t-62.5 -111.5q-68 -118 -84 -151q-35 -69 -35 -104q0 -18 7 -24q4 -4 12 -3
q26 2 65.5 35t71 81t33.5 84q0 6 4.5 10t10.5 4t10.5 -4.5t4.5 -10.5v-1q-2 -47 -35.5 -98t-79.5 -89q-47 -38 -82 -41q-2 -1 -5 -1q-20 0 -32 13q-15 15 -15 45q0 42 38 118q16 34 85 152q57 99 89.5 173.5t31.5 131.5q0 7 4.5 11.5t10.5 4.5z" />
    <glyph glyph-name="Agrave" unicode="&#xc0;" horiz-adv-x="496" 
d="M296 671q8 0 12 -5l52 -65q4 -5 4 -10q0 -6 -4.5 -10.5t-10.5 -4.5q-8 0 -12 6l-53 64q-3 5 -3 10q0 7 4.5 11t10.5 4zM346 525h2q14 -1 23 -13q7 -9 10 -24q5 -20 5 -52q0 -8 -1 -18q-2 -74 -24 -225l-25 -158q38 -2 83 -5q6 -1 10 -5.5t4 -10.5t-4.5 -10.5t-10.5 -4.5
h-2q-46 4 -85 6q-46 -287 -60 -402q-1 -6 -5.5 -9.5t-9.5 -3.5q-7 0 -11.5 4.5t-4.5 10.5q0 1 1 2q14 116 60 399q-25 1 -48 1q-82 0 -156 -11q-62 -112 -130 -215q-5 -7 -13 -7q-6 0 -10.5 4.5t-4.5 10.5q0 5 2 8q61 93 117 193q-49 -9 -102 -24q-2 -1 -4 -1
q-7 0 -11.5 4.5t-4.5 10.5q0 12 12 15q67 19 129 29q65 120 137 281q59 132 72 157q15 30 27 44q16 19 33 19zM346 495q-4 -2 -9 -8q-10 -12 -24 -39q-13 -25 -71 -155q-67 -151 -127 -264q66 9 139 9h8q21 0 44 -1l25 160q22 150 24 222v15q0 31 -4 48q-2 8 -5 12v1z" />
    <glyph glyph-name="Aacute" unicode="&#xc1;" horiz-adv-x="496" 
d="M410 672h1q6 0 10.5 -4.5t4.5 -10.5t-3 -10l-52 -65q-5 -6 -12 -6t-11.5 4.5t-4.5 11.5q0 5 4 9l52 65q4 6 11 6zM346 525h2q14 -1 23 -13q7 -9 10 -24q5 -20 5 -52q0 -8 -1 -18q-2 -74 -24 -225l-25 -158q38 -2 83 -5q6 -1 10 -5.5t4 -10.5t-4.5 -10.5t-10.5 -4.5h-2
q-46 4 -85 6q-46 -287 -60 -402q-1 -6 -5.5 -9.5t-9.5 -3.5q-7 0 -11.5 4.5t-4.5 10.5q0 1 1 2q14 116 60 399q-25 1 -48 1q-82 0 -156 -11q-62 -112 -130 -215q-5 -7 -13 -7q-6 0 -10.5 4.5t-4.5 10.5q0 5 2 8q61 93 117 193q-49 -9 -102 -24q-2 -1 -4 -1q-7 0 -11.5 4.5
t-4.5 10.5q0 12 12 15q67 19 129 29q65 120 137 281q59 132 72 157q15 30 27 44q16 19 33 19zM346 495q-4 -2 -9 -8q-10 -12 -24 -39q-13 -25 -71 -155q-67 -151 -127 -264q66 9 139 9h8q21 0 44 -1l25 160q22 150 24 222v15q0 31 -4 48q-2 8 -5 12v1z" />
    <glyph glyph-name="Acircumflex" unicode="&#xc2;" horiz-adv-x="496" 
d="M347 645h2q16 0 35 -18q8 -7 44 -46q4 -4 4 -10t-4.5 -10.5t-10.5 -4.5q-7 0 -12 5q-34 37 -41 44q-11 10 -15 9q-5 0 -18 -11l-20 -20t-24 -23q-4 -5 -10.5 -5t-11 4.5t-4.5 11.5q0 6 5 11q8 7 23 22t22 21q20 19 36 20zM346 525h2q14 -1 23 -13q7 -9 10 -24
q5 -20 5 -52q0 -8 -1 -18q-2 -74 -24 -225l-25 -158q38 -2 83 -5q6 -1 10 -5.5t4 -10.5t-4.5 -10.5t-10.5 -4.5h-2q-46 4 -85 6q-46 -287 -60 -402q-1 -6 -5.5 -9.5t-9.5 -3.5q-7 0 -11.5 4.5t-4.5 10.5q0 1 1 2q14 116 60 399q-25 1 -48 1q-82 0 -156 -11
q-62 -112 -130 -215q-5 -7 -13 -7q-6 0 -10.5 4.5t-4.5 10.5q0 5 2 8q61 93 117 193q-49 -9 -102 -24q-2 -1 -4 -1q-7 0 -11.5 4.5t-4.5 10.5q0 12 12 15q67 19 129 29q65 120 137 281q59 132 72 157q15 30 27 44q16 19 33 19zM346 495q-4 -2 -9 -8q-10 -12 -24 -39
q-13 -25 -71 -155q-67 -151 -127 -264q66 9 139 9h8q21 0 44 -1l25 160q22 150 24 222v15q0 31 -4 48q-2 8 -5 12v1z" />
    <glyph glyph-name="Atilde" unicode="&#xc3;" horiz-adv-x="496" 
d="M318 646h1q24 0 50 -26q16 -16 28 -16h3q11 2 22 22q5 8 14 8q6 0 10.5 -4.5t4.5 -11.5q0 -4 -2 -7q-18 -32 -44 -37h-8q-24 0 -50 25q-16 16 -28 16h-3q-11 -2 -22 -22q-5 -7 -14 -7q-6 0 -10.5 4t-4.5 11q0 4 2 8q18 31 44 36q3 0 7 1zM346 525h2q14 -1 23 -13
q7 -9 10 -24q5 -20 5 -52q0 -8 -1 -18q-2 -74 -24 -225l-25 -158q38 -2 83 -5q6 -1 10 -5.5t4 -10.5t-4.5 -10.5t-10.5 -4.5h-2q-46 4 -85 6q-46 -287 -60 -402q-1 -6 -5.5 -9.5t-9.5 -3.5q-7 0 -11.5 4.5t-4.5 10.5q0 1 1 2q14 116 60 399q-25 1 -48 1q-82 0 -156 -11
q-62 -112 -130 -215q-5 -7 -13 -7q-6 0 -10.5 4.5t-4.5 10.5q0 5 2 8q61 93 117 193q-49 -9 -102 -24q-2 -1 -4 -1q-7 0 -11.5 4.5t-4.5 10.5q0 12 12 15q67 19 129 29q65 120 137 281q59 132 72 157q15 30 27 44q16 19 33 19zM346 495q-4 -2 -9 -8q-10 -12 -24 -39
q-13 -25 -71 -155q-67 -151 -127 -264q66 9 139 9h8q21 0 44 -1l25 160q22 150 24 222v15q0 31 -4 48q-2 8 -5 12v1z" />
    <glyph glyph-name="Adieresis" unicode="&#xc4;" horiz-adv-x="496" 
d="M394.5 623q6.5 0 10.5 -4.5t4 -10.5v-2q-1 -11 -6 -22q-4 -9 -14 -9q-6 0 -10.5 4.5t-4.5 10.5q0 4 1 7q3 6 4 13q1 5 5 9t10.5 4zM324.5 623q6.5 0 10.5 -4.5t4 -10.5v-2q-1 -11 -6 -22q-4 -9 -14 -9q-6 0 -10.5 4.5t-4.5 10.5q0 4 1 7q3 6 4 13q1 5 5 9t10.5 4z
M346 525h2q14 -1 23 -13q7 -9 10 -24q5 -20 5 -52q0 -8 -1 -18q-2 -74 -24 -225l-25 -158q38 -2 83 -5q6 -1 10 -5.5t4 -10.5t-4.5 -10.5t-10.5 -4.5h-2q-46 4 -85 6q-46 -287 -60 -402q-1 -6 -5.5 -9.5t-9.5 -3.5q-7 0 -11.5 4.5t-4.5 10.5q0 1 1 2q14 116 60 399
q-25 1 -48 1q-82 0 -156 -11q-62 -112 -130 -215q-5 -7 -13 -7q-6 0 -10.5 4.5t-4.5 10.5q0 5 2 8q61 93 117 193q-49 -9 -102 -24q-2 -1 -4 -1q-7 0 -11.5 4.5t-4.5 10.5q0 12 12 15q67 19 129 29q65 120 137 281q59 132 72 157q15 30 27 44q16 19 33 19zM346 495
q-4 -2 -9 -8q-10 -12 -24 -39q-13 -25 -71 -155q-67 -151 -127 -264q66 9 139 9h8q21 0 44 -1l25 160q22 150 24 222v15q0 31 -4 48q-2 8 -5 12v1z" />
    <glyph glyph-name="Aring" unicode="&#xc5;" horiz-adv-x="496" 
d="M396 701q7 1 13 -3q15 -7 15 -28q0 -15 -10 -37q-17 -35 -35 -50q-12 -10 -24 -10q-6 0 -11 3q-15 7 -17 27v6q0 11 4 25q11 38 35 61q5 4 11 4q2 0 5 -1q6 3 12 3h2zM393 669q-3 -2 -4 -5q-5 -9 -14 -9h-1q-10 -15 -14 -29q-3 -12 -2 -20q1 1 2 1q12 10 26 39q6 14 7 23
zM346 525h2q14 -1 23 -13q7 -9 10 -24q5 -20 5 -52q0 -8 -1 -18q-2 -74 -24 -225l-25 -158q38 -2 83 -5q6 -1 10 -5.5t4 -10.5t-4.5 -10.5t-10.5 -4.5h-2q-46 4 -85 6q-46 -287 -60 -402q-1 -6 -5.5 -9.5t-9.5 -3.5q-7 0 -11.5 4.5t-4.5 10.5q0 1 1 2q14 116 60 399
q-25 1 -48 1q-82 0 -156 -11q-62 -112 -130 -215q-5 -7 -13 -7q-6 0 -10.5 4.5t-4.5 10.5q0 5 2 8q61 93 117 193q-49 -9 -102 -24q-2 -1 -4 -1q-7 0 -11.5 4.5t-4.5 10.5q0 12 12 15q67 19 129 29q65 120 137 281q59 132 72 157q15 30 27 44q16 19 33 19zM346 495
q-4 -2 -9 -8q-10 -12 -24 -39q-13 -25 -71 -155q-67 -151 -127 -264q66 9 139 9h8q21 0 44 -1l25 160q22 150 24 222v15q0 31 -4 48q-2 8 -5 12v1z" />
    <glyph glyph-name="AE" unicode="&#xc6;" horiz-adv-x="722" 
d="M642 523q10 0 18 -3q18 -7 26 -27q8 -18 8 -46q0 -27 -8 -67q-2 -12 -15 -12q-6 0 -10.5 4.5t-4.5 10.5v3q7 35 7 61q0 22 -5 34q-3 8 -9 11q-7 2 -17 -1q-24 -6 -63 -40t-74 -79q-36 -48 -60.5 -98.5t-26.5 -86.5v-8q0 -30 18 -45q19 -14 55 -14q14 0 31 2q1 1 2 1
q6 0 10.5 -4.5t4.5 -11.5q0 -8 -7 -12q-115 -81 -177 -189q-46 -80 -46 -142q0 -9 1 -17q4 -26 19 -36q10 -7 25 -7q9 0 20 3q79 19 200 150q4 4 11 4q6 0 10.5 -4.5t4.5 -10.5t-4 -10q-127 -137 -214 -158q-15 -4 -28 -4q-24 0 -42 12q-26 18 -32 57q-2 10 -2 22
q0 69 50 156q54 94 148 169q-36 3 -58 20q-31 24 -31 70q0 4 1 9q5 85 93 201q86 113 153 131q10 2 18 2zM346 525h2q14 -1 23 -13q7 -9 10 -24q5 -20 5 -52q0 -8 -1 -18q-2 -74 -24 -225l-25 -158q38 -2 83 -5q6 -1 10 -5.5t4 -10.5t-4.5 -10.5t-10.5 -4.5h-2q-46 4 -85 6
q-46 -287 -60 -402q-1 -6 -5.5 -9.5t-9.5 -3.5q-7 0 -11.5 4.5t-4.5 10.5q0 1 1 2q14 116 60 399q-25 1 -48 1q-82 0 -156 -11q-62 -112 -130 -215q-5 -7 -13 -7q-6 0 -10.5 4.5t-4.5 10.5q0 5 2 8q61 93 117 193q-49 -9 -102 -24q-2 -1 -4 -1q-7 0 -11.5 4.5t-4.5 10.5
q0 12 12 15q67 19 129 29q65 120 137 281q59 132 72 157q15 30 27 44q16 19 33 19zM346 495q-4 -2 -9 -8q-10 -12 -24 -39q-13 -25 -71 -155q-67 -151 -127 -264q66 9 139 9h8q21 0 44 -1l25 160q22 150 24 222v15q0 31 -4 48q-2 8 -5 12v1z" />
    <glyph glyph-name="Ccedilla" unicode="&#xc7;" horiz-adv-x="391" 
d="M123 -353q6 0 9.5 -3.5t3.5 -9.5v-1l-2 -20q23 0 36 -10q15 -9 15 -26q0 -4 -2 -9q-5 -13 -22 -23q-13 -8 -29 -11q-17 -3 -28 2q-9 3 -12 11t0 18q3 8 12 8q5 0 8.5 -3.5t3.5 -8.5v-3q6 -1 12 1q11 2 21 7q9 6 11 12q1 2 -4 5q-8 5 -25 5h-9h-1q-5 0 -9 3.5t-4 8.5
q0 1 1 1l2 34q0 5 3.5 8.5t8.5 3.5zM310 528q12 0 23 -3q30 -11 37 -51q3 -14 3 -31q0 -76 -57 -221q-4 -10 -14 -10q-7 0 -11.5 4.5t-4.5 10.5q0 3 2 6q54 139 54 213q0 13 -2 22q-4 23 -17 28q-4 1 -9 1q-13 0 -31 -9q-62 -30 -134 -129q-79 -109 -123 -245
q-12 -37 -20 -73.5t-11.5 -68.5t-3.5 -62q0 -129 56 -187q30 -30 66 -30q16 0 34 6q66 23 126 122q4 8 13 8q6 0 10.5 -4.5t4.5 -11.5q0 -4 -2 -8q-65 -108 -142 -135q-21 -7 -43 -7q-51 0 -89 39q-66 67 -66 205q0 101 38 216q45 140 128 254q75 105 144 139q23 11 41 12z
" />
    <glyph glyph-name="Egrave" unicode="&#xc8;" horiz-adv-x="385" 
d="M266 668q8 0 12 -5l52 -65q4 -5 4 -10q0 -6 -4.5 -10.5t-10.5 -4.5q-8 0 -12 6l-53 64q-3 5 -3 10q0 7 4.5 11t10.5 4zM319 523q10 0 18 -3q18 -7 26 -27q8 -18 8 -46q0 -27 -8 -67q-2 -12 -15 -12q-6 0 -10.5 4.5t-4.5 10.5v3q7 35 7 61q0 22 -5 34q-3 8 -9 11
q-7 2 -17 -1q-24 -6 -63 -40t-74 -79q-36 -48 -60.5 -98.5t-26.5 -86.5v-8q0 -30 18 -45q19 -14 55 -14q14 0 31 2q1 1 2 1q6 0 10.5 -4.5t4.5 -11.5q0 -8 -7 -12q-115 -81 -177 -189q-46 -80 -46 -142q0 -9 1 -17q4 -26 19 -36q10 -7 25 -7q9 0 20 3q79 19 200 150
q4 4 11 4q6 0 10.5 -4.5t4.5 -10.5t-4 -10q-127 -137 -214 -158q-15 -4 -28 -4q-24 0 -42 12q-26 18 -32 57q-2 10 -2 22q0 69 50 156q54 94 148 169q-36 3 -58 20q-31 24 -31 70q0 4 1 9q5 85 93 201q86 113 153 131q10 2 18 2z" />
    <glyph glyph-name="Eacute" unicode="&#xc9;" horiz-adv-x="385" 
d="M375 666h1q6 0 10.5 -4.5t4.5 -10.5t-3 -10l-52 -65q-5 -6 -12 -6t-11.5 4.5t-4.5 11.5q0 5 4 9l52 65q4 6 11 6zM319 523q10 0 18 -3q18 -7 26 -27q8 -18 8 -46q0 -27 -8 -67q-2 -12 -15 -12q-6 0 -10.5 4.5t-4.5 10.5v3q7 35 7 61q0 22 -5 34q-3 8 -9 11q-7 2 -17 -1
q-24 -6 -63 -40t-74 -79q-36 -48 -60.5 -98.5t-26.5 -86.5v-8q0 -30 18 -45q19 -14 55 -14q14 0 31 2q1 1 2 1q6 0 10.5 -4.5t4.5 -11.5q0 -8 -7 -12q-115 -81 -177 -189q-46 -80 -46 -142q0 -9 1 -17q4 -26 19 -36q10 -7 25 -7q9 0 20 3q79 19 200 150q4 4 11 4
q6 0 10.5 -4.5t4.5 -10.5t-4 -10q-127 -137 -214 -158q-15 -4 -28 -4q-24 0 -42 12q-26 18 -32 57q-2 10 -2 22q0 69 50 156q54 94 148 169q-36 3 -58 20q-31 24 -31 70q0 4 1 9q5 85 93 201q86 113 153 131q10 2 18 2z" />
    <glyph glyph-name="Ecircumflex" unicode="&#xca;" horiz-adv-x="385" 
d="M308 647h2q16 0 35 -18q8 -7 44 -46q4 -4 4 -10t-4.5 -10.5t-10.5 -4.5q-7 0 -12 5q-34 37 -41 44q-11 10 -15 9q-5 0 -18 -11l-20 -20t-24 -23q-4 -5 -10.5 -5t-11 4.5t-4.5 11.5q0 6 5 11q8 7 23 22t22 21q20 19 36 20zM319 523q10 0 18 -3q18 -7 26 -27q8 -18 8 -46
q0 -27 -8 -67q-2 -12 -15 -12q-6 0 -10.5 4.5t-4.5 10.5v3q7 35 7 61q0 22 -5 34q-3 8 -9 11q-7 2 -17 -1q-24 -6 -63 -40t-74 -79q-36 -48 -60.5 -98.5t-26.5 -86.5v-8q0 -30 18 -45q19 -14 55 -14q14 0 31 2q1 1 2 1q6 0 10.5 -4.5t4.5 -11.5q0 -8 -7 -12
q-115 -81 -177 -189q-46 -80 -46 -142q0 -9 1 -17q4 -26 19 -36q10 -7 25 -7q9 0 20 3q79 19 200 150q4 4 11 4q6 0 10.5 -4.5t4.5 -10.5t-4 -10q-127 -137 -214 -158q-15 -4 -28 -4q-24 0 -42 12q-26 18 -32 57q-2 10 -2 22q0 69 50 156q54 94 148 169q-36 3 -58 20
q-31 24 -31 70q0 4 1 9q5 85 93 201q86 113 153 131q10 2 18 2z" />
    <glyph glyph-name="Edieresis" unicode="&#xcb;" horiz-adv-x="385" 
d="M354.5 621q6.5 0 10.5 -4.5t4 -10.5v-2q-1 -11 -6 -22q-4 -9 -14 -9q-6 0 -10.5 4.5t-4.5 10.5q0 4 1 7q3 6 4 13q1 5 5 9t10.5 4zM284.5 621q6.5 0 10.5 -4.5t4 -10.5v-2q-1 -11 -6 -22q-4 -9 -14 -9q-6 0 -10.5 4.5t-4.5 10.5q0 4 1 7q3 6 4 13q1 5 5 9t10.5 4z
M319 523q10 0 18 -3q18 -7 26 -27q8 -18 8 -46q0 -27 -8 -67q-2 -12 -15 -12q-6 0 -10.5 4.5t-4.5 10.5v3q7 35 7 61q0 22 -5 34q-3 8 -9 11q-7 2 -17 -1q-24 -6 -63 -40t-74 -79q-36 -48 -60.5 -98.5t-26.5 -86.5v-8q0 -30 18 -45q19 -14 55 -14q14 0 31 2q1 1 2 1
q6 0 10.5 -4.5t4.5 -11.5q0 -8 -7 -12q-115 -81 -177 -189q-46 -80 -46 -142q0 -9 1 -17q4 -26 19 -36q10 -7 25 -7q9 0 20 3q79 19 200 150q4 4 11 4q6 0 10.5 -4.5t4.5 -10.5t-4 -10q-127 -137 -214 -158q-15 -4 -28 -4q-24 0 -42 12q-26 18 -32 57q-2 10 -2 22
q0 69 50 156q54 94 148 169q-36 3 -58 20q-31 24 -31 70q0 4 1 9q5 85 93 201q86 113 153 131q10 2 18 2z" />
    <glyph glyph-name="Igrave" unicode="&#xcc;" horiz-adv-x="343" 
d="M205 658q8 0 12 -5l52 -65q4 -5 4 -10q0 -6 -4.5 -10.5t-10.5 -4.5q-8 0 -12 6l-53 64q-3 5 -3 10q0 7 4.5 11t10.5 4zM247 531q6 0 10.5 -4.5t4.5 -11.5q0 -4 -3 -8q-5 -9 -15 -37q133 45 159 53h4h1q6 0 10.5 -4t4.5 -11q0 -11 -11 -14l-53.5 -17.5l-67.5 -22.5
l-60 -20q-10 -32 -21 -75q-31 -117 -60 -265q-31 -152 -44 -256q-4 -28 -6 -50q70 17 127 17q3 0 6 -1q6 0 10.5 -4t4.5 -10.5t-4.5 -11t-10.5 -4.5h-1h-5q-57 0 -129 -19v-1.5v-2.5q0 -16 1 -24q1 -3 2 -5h-1q5 -4 5 -12q0 -6 -4.5 -10.5t-10.5 -4.5t-11 4q-8 7 -10 23
q-1 10 -1 25q-96 -30 -174 -79q-3 -3 -8 -3q-6 0 -10.5 4.5t-4.5 11.5q0 8 7 13q87 55 191 85q2 27 6 63q14 105 45 258q30 149 61 266l15 56q-96 -30 -145 -38q-1 -1 -2 -1q-7 0 -11.5 4.5t-4.5 11.5q0 5 4 9.5t9 5.5q49 8 161 44q2 6 2 7q15 43 25 59q5 6 13 7z" />
    <glyph glyph-name="Iacute" unicode="&#xcd;" horiz-adv-x="343" 
d="M261 663h1q6 0 10.5 -4.5t4.5 -10.5t-3 -10l-52 -65q-5 -6 -12 -6t-11.5 4.5t-4.5 11.5q0 5 4 9l52 65q4 6 11 6zM247 531q6 0 10.5 -4.5t4.5 -11.5q0 -4 -3 -8q-5 -9 -15 -37q133 45 159 53h4h1q6 0 10.5 -4t4.5 -11q0 -11 -11 -14l-53.5 -17.5l-67.5 -22.5l-60 -20
q-10 -32 -21 -75q-31 -117 -60 -265q-31 -152 -44 -256q-4 -28 -6 -50q70 17 127 17q3 0 6 -1q6 0 10.5 -4t4.5 -10.5t-4.5 -11t-10.5 -4.5h-1h-5q-57 0 -129 -19v-1.5v-2.5q0 -16 1 -24q1 -3 2 -5h-1q5 -4 5 -12q0 -6 -4.5 -10.5t-10.5 -4.5t-11 4q-8 7 -10 23q-1 10 -1 25
q-96 -30 -174 -79q-3 -3 -8 -3q-6 0 -10.5 4.5t-4.5 11.5q0 8 7 13q87 55 191 85q2 27 6 63q14 105 45 258q30 149 61 266l15 56q-96 -30 -145 -38q-1 -1 -2 -1q-7 0 -11.5 4.5t-4.5 11.5q0 5 4 9.5t9 5.5q49 8 161 44q2 6 2 7q15 43 25 59q5 6 13 7z" />
    <glyph glyph-name="Icircumflex" unicode="&#xce;" horiz-adv-x="343" 
d="M239 631h2q16 0 35 -18q8 -7 44 -46q4 -4 4 -10t-4.5 -10.5t-10.5 -4.5q-7 0 -12 5q-34 37 -41 44q-11 10 -15 9q-5 0 -18 -11l-20 -20t-24 -23q-4 -5 -10.5 -5t-11 4.5t-4.5 11.5q0 6 5 11q8 7 23 22t22 21q20 19 36 20zM247 531q6 0 10.5 -4.5t4.5 -11.5q0 -4 -3 -8
q-5 -9 -15 -37q133 45 159 53h4h1q6 0 10.5 -4t4.5 -11q0 -11 -11 -14l-53.5 -17.5l-67.5 -22.5l-60 -20q-10 -32 -21 -75q-31 -117 -60 -265q-31 -152 -44 -256q-4 -28 -6 -50q70 17 127 17q3 0 6 -1q6 0 10.5 -4t4.5 -10.5t-4.5 -11t-10.5 -4.5h-1h-5q-57 0 -129 -19v-1.5
v-2.5q0 -16 1 -24q1 -3 2 -5h-1q5 -4 5 -12q0 -6 -4.5 -10.5t-10.5 -4.5t-11 4q-8 7 -10 23q-1 10 -1 25q-96 -30 -174 -79q-3 -3 -8 -3q-6 0 -10.5 4.5t-4.5 11.5q0 8 7 13q87 55 191 85q2 27 6 63q14 105 45 258q30 149 61 266l15 56q-96 -30 -145 -38q-1 -1 -2 -1
q-7 0 -11.5 4.5t-4.5 11.5q0 5 4 9.5t9 5.5q49 8 161 44q2 6 2 7q15 43 25 59q5 6 13 7z" />
    <glyph glyph-name="Idieresis" unicode="&#xcf;" horiz-adv-x="343" 
d="M282.5 609q6.5 0 10.5 -4.5t4 -10.5v-2q-1 -11 -6 -22q-4 -9 -14 -9q-6 0 -10.5 4.5t-4.5 10.5q0 4 1 7q3 6 4 13q1 5 5 9t10.5 4zM212.5 609q6.5 0 10.5 -4.5t4 -10.5v-2q-1 -11 -6 -22q-4 -9 -14 -9q-6 0 -10.5 4.5t-4.5 10.5q0 4 1 7q3 6 4 13q1 5 5 9t10.5 4z
M247 531q6 0 10.5 -4.5t4.5 -11.5q0 -4 -3 -8q-5 -9 -15 -37q133 45 159 53h4h1q6 0 10.5 -4t4.5 -11q0 -11 -11 -14l-53.5 -17.5l-67.5 -22.5l-60 -20q-10 -32 -21 -75q-31 -117 -60 -265q-31 -152 -44 -256q-4 -28 -6 -50q70 17 127 17q3 0 6 -1q6 0 10.5 -4t4.5 -10.5
t-4.5 -11t-10.5 -4.5h-1h-5q-57 0 -129 -19v-1.5v-2.5q0 -16 1 -24q1 -3 2 -5h-1q5 -4 5 -12q0 -6 -4.5 -10.5t-10.5 -4.5t-11 4q-8 7 -10 23q-1 10 -1 25q-96 -30 -174 -79q-3 -3 -8 -3q-6 0 -10.5 4.5t-4.5 11.5q0 8 7 13q87 55 191 85q2 27 6 63q14 105 45 258
q30 149 61 266l15 56q-96 -30 -145 -38q-1 -1 -2 -1q-7 0 -11.5 4.5t-4.5 11.5q0 5 4 9.5t9 5.5q49 8 161 44q2 6 2 7q15 43 25 59q5 6 13 7z" />
    <glyph glyph-name="Ntilde" unicode="&#xd1;" horiz-adv-x="500" 
d="M238 670h1q24 0 50 -26q16 -16 28 -16h3q11 2 22 22q5 8 14 8q6 0 10.5 -4.5t4.5 -11.5q0 -4 -2 -7q-18 -32 -44 -37h-8q-24 0 -50 25q-16 16 -28 16h-3q-11 -2 -22 -22q-5 -7 -14 -7q-6 0 -10.5 4t-4.5 11q0 4 2 8q18 31 44 36q3 0 7 1zM407 545h5q17 -5 23 -27
q4 -15 4 -40q0 -40 -11 -129q-3 -18 -11 -77.5t-12 -92.5t-9 -83.5t-7 -90.5q-1 -27 -1 -52q0 -157 47 -212q4 -5 4 -11t-5 -10.5t-11 -3.5q-7 0 -11 5q-55 64 -55 224q0 28 2 61q1 41 6 92.5t9.5 85l12.5 92t10 77.5q11 87 11 124q0 22 -2 32q-1 3 -2 5q-5 -1 -10 -5
q-13 -11 -34 -36q-43 -53 -118 -175q-49 -80 -88.5 -167t-76.5 -177t-65 -145q-2 -4 -5 -7q-5 -4 -11 -4q-9 0 -13 7q-3 4 -3 10v6q1 11 5 38q8 50 28 152q32 166 94 455q1 6 5.5 9.5t9.5 3.5q7 -1 11 -5.5t4 -10.5q0 -2 -1 -3l-93 -455l-18 -96l38 91.5l44 103.5t47 98
t62 112q76 123 121 178q22 28 38.5 40.5t28.5 12.5h3zM10 -182v-2v1v1z" />
    <glyph glyph-name="Ograve" unicode="&#xd2;" horiz-adv-x="532" 
d="M219 653q8 0 12 -5l52 -65q4 -5 4 -10q0 -6 -4.5 -10.5t-10.5 -4.5q-8 0 -12 6l-53 64q-3 5 -3 10q0 7 4.5 11t10.5 4zM281 507q15 -1 29 -4q38 -10 67.5 -42t45.5 -82q16 -53 16 -120q0 -74 -19 -162q-8 -37 -19 -73q52 18 87 40q4 3 8 3q7 0 11 -5t4 -11q0 -8 -7 -12
q-47 -31 -116 -51q-31 -86 -77 -142q-66 -82 -137 -82h-5q-35 2 -63 26.5t-41 67.5q-11 36 -11 83q0 35 7 75q-20 16 -32 37q-23 39 -23 92q0 51 21 114q44 132 126 199q59 49 122 49h6zM280 477h-6q-51 0 -102 -42q-75 -62 -116 -186q-20 -58 -20 -104q0 -44 19 -76
q5 -9 13 -18q5 26 12 48q3 12 15 11q6 0 10.5 -4.5t4.5 -10.5q0 -3 -1 -5q-9 -30 -15 -61q16 -11 35 -18t42 -11q27 -5 59 -5q64 0 135 19q15 44 25 89q18 85 18 155q0 64 -15 112q-26 86 -91 103q-11 3 -22 4zM89 -4q-4 -29 -4 -56q0 -42 10 -73q21 -70 75 -72h4
q57 0 113 70q37 45 65 113q-62 -14 -119 -14q-36 0 -68 6q-43 8 -76 26z" />
    <glyph glyph-name="Oacute" unicode="&#xd3;" horiz-adv-x="532" 
d="M320 653h1q6 0 10.5 -4.5t4.5 -10.5t-3 -10l-52 -65q-5 -6 -12 -6t-11.5 4.5t-4.5 11.5q0 5 4 9l52 65q4 6 11 6zM281 507q15 -1 29 -4q38 -10 67.5 -42t45.5 -82q16 -53 16 -120q0 -74 -19 -162q-8 -37 -19 -73q52 18 87 40q4 3 8 3q7 0 11 -5t4 -11q0 -8 -7 -12
q-47 -31 -116 -51q-31 -86 -77 -142q-66 -82 -137 -82h-5q-35 2 -63 26.5t-41 67.5q-11 36 -11 83q0 35 7 75q-20 16 -32 37q-23 39 -23 92q0 51 21 114q44 132 126 199q59 49 122 49h6zM280 477h-6q-51 0 -102 -42q-75 -62 -116 -186q-20 -58 -20 -104q0 -44 19 -76
q5 -9 13 -18q5 26 12 48q3 12 15 11q6 0 10.5 -4.5t4.5 -10.5q0 -3 -1 -5q-9 -30 -15 -61q16 -11 35 -18t42 -11q27 -5 59 -5q64 0 135 19q15 44 25 89q18 85 18 155q0 64 -15 112q-26 86 -91 103q-11 3 -22 4zM89 -4q-4 -29 -4 -56q0 -42 10 -73q21 -70 75 -72h4
q57 0 113 70q37 45 65 113q-62 -14 -119 -14q-36 0 -68 6q-43 8 -76 26z" />
    <glyph glyph-name="Ocircumflex" unicode="&#xd4;" horiz-adv-x="532" 
d="M278 645h2q16 0 35 -18q8 -7 44 -46q4 -4 4 -10t-4.5 -10.5t-10.5 -4.5q-7 0 -12 5q-34 37 -41 44q-11 10 -15 9q-5 0 -18 -11l-20 -20t-24 -23q-4 -5 -10.5 -5t-11 4.5t-4.5 11.5q0 6 5 11q8 7 23 22t22 21q20 19 36 20zM281 507q15 -1 29 -4q38 -10 67.5 -42t45.5 -82
q16 -53 16 -120q0 -74 -19 -162q-8 -37 -19 -73q52 18 87 40q4 3 8 3q7 0 11 -5t4 -11q0 -8 -7 -12q-47 -31 -116 -51q-31 -86 -77 -142q-66 -82 -137 -82h-5q-35 2 -63 26.5t-41 67.5q-11 36 -11 83q0 35 7 75q-20 16 -32 37q-23 39 -23 92q0 51 21 114q44 132 126 199
q59 49 122 49h6zM280 477h-6q-51 0 -102 -42q-75 -62 -116 -186q-20 -58 -20 -104q0 -44 19 -76q5 -9 13 -18q5 26 12 48q3 12 15 11q6 0 10.5 -4.5t4.5 -10.5q0 -3 -1 -5q-9 -30 -15 -61q16 -11 35 -18t42 -11q27 -5 59 -5q64 0 135 19q15 44 25 89q18 85 18 155
q0 64 -15 112q-26 86 -91 103q-11 3 -22 4zM89 -4q-4 -29 -4 -56q0 -42 10 -73q21 -70 75 -72h4q57 0 113 70q37 45 65 113q-62 -14 -119 -14q-36 0 -68 6q-43 8 -76 26z" />
    <glyph glyph-name="Otilde" unicode="&#xd5;" horiz-adv-x="532" 
d="M250 633h1q24 0 50 -25q16 -17 28 -17h3q11 2 22 22q5 8 14 8q6 0 10.5 -4.5t4.5 -11.5q0 -4 -2 -7q-18 -32 -44 -37h-8q-24 0 -50 25q-16 16 -28 16h-3q-11 -2 -22 -22q-5 -7 -14 -7q-6 0 -10.5 4t-4.5 11q0 4 2 8q18 31 44 36q3 0 7 1zM281 507q15 -1 29 -4
q38 -10 67.5 -42t45.5 -82q16 -53 16 -120q0 -74 -19 -162q-8 -37 -19 -73q52 18 87 40q4 3 8 3q7 0 11 -5t4 -11q0 -8 -7 -12q-47 -31 -116 -51q-31 -86 -77 -142q-66 -82 -137 -82h-5q-35 2 -63 26.5t-41 67.5q-11 36 -11 83q0 35 7 75q-20 16 -32 37q-23 39 -23 92
q0 51 21 114q44 132 126 199q59 49 122 49h6zM280 477h-6q-51 0 -102 -42q-75 -62 -116 -186q-20 -58 -20 -104q0 -44 19 -76q5 -9 13 -18q5 26 12 48q3 12 15 11q6 0 10.5 -4.5t4.5 -10.5q0 -3 -1 -5q-9 -30 -15 -61q16 -11 35 -18t42 -11q27 -5 59 -5q64 0 135 19
q15 44 25 89q18 85 18 155q0 64 -15 112q-26 86 -91 103q-11 3 -22 4zM89 -4q-4 -29 -4 -56q0 -42 10 -73q21 -70 75 -72h4q57 0 113 70q37 45 65 113q-62 -14 -119 -14q-36 0 -68 6q-43 8 -76 26z" />
    <glyph glyph-name="Odieresis" unicode="&#xd6;" horiz-adv-x="532" 
d="M323.5 603q6.5 0 10.5 -4.5t4 -10.5v-2q-1 -11 -6 -22q-4 -9 -14 -9q-6 0 -10.5 4.5t-4.5 10.5q0 4 1 7q3 6 4 13q1 5 5 9t10.5 4zM253.5 603q6.5 0 10.5 -4.5t4 -10.5v-2q-1 -11 -6 -22q-4 -9 -14 -9q-6 0 -10.5 4.5t-4.5 10.5q0 4 1 7q3 6 4 13q1 5 5 9t10.5 4z
M281 507q15 -1 29 -4q38 -10 67.5 -42t45.5 -82q16 -53 16 -120q0 -74 -19 -162q-8 -37 -19 -73q52 18 87 40q4 3 8 3q7 0 11 -5t4 -11q0 -8 -7 -12q-47 -31 -116 -51q-31 -86 -77 -142q-66 -82 -137 -82h-5q-35 2 -63 26.5t-41 67.5q-11 36 -11 83q0 35 7 75q-20 16 -32 37
q-23 39 -23 92q0 51 21 114q44 132 126 199q59 49 122 49h6zM280 477h-6q-51 0 -102 -42q-75 -62 -116 -186q-20 -58 -20 -104q0 -44 19 -76q5 -9 13 -18q5 26 12 48q3 12 15 11q6 0 10.5 -4.5t4.5 -10.5q0 -3 -1 -5q-9 -30 -15 -61q16 -11 35 -18t42 -11q27 -5 59 -5
q64 0 135 19q15 44 25 89q18 85 18 155q0 64 -15 112q-26 86 -91 103q-11 3 -22 4zM89 -4q-4 -29 -4 -56q0 -42 10 -73q21 -70 75 -72h4q57 0 113 70q37 45 65 113q-62 -14 -119 -14q-36 0 -68 6q-43 8 -76 26z" />
    <glyph glyph-name="multiply" unicode="&#xd7;" horiz-adv-x="236" 
d="M37 241q6 0 10.5 -4.5t4.5 -9.5q1 -9 16 -35q13 -23 33 -52q53 63 99 97q4 3 9 3q6 0 10.5 -4.5t4.5 -10.5q0 -8 -6 -12q-44 -33 -98 -99q22 -29 43.5 -54t38.5 -39q6 -4 6 -12q0 -6 -4.5 -10.5t-10.5 -4.5t-10 4q-36 29 -82 91q-33 -43 -67 -94q-4 -8 -13 -8
q-6 0 -10.5 4.5t-4.5 11.5q0 4 3 8q39 61 72 104q-24 34 -40 62q-18 32 -19 47v1q0 7 4.5 11t10.5 5z" />
    <glyph glyph-name="Oslash" unicode="&#xd8;" horiz-adv-x="532" 
d="M298 625h1q6 0 10.5 -4t4.5 -11v-4q-19 -70 -75 -471q-56 -407 -71 -466q-3 -11 -15 -11q-6 0 -10.5 4.5t-4.5 10.5v4q15 57 71 462q56 404 75 475q3 11 14 11zM281 507q15 -1 29 -4q38 -10 67.5 -42t45.5 -82q16 -53 16 -120q0 -74 -19 -162q-8 -37 -19 -73q52 18 87 40
q4 3 8 3q7 0 11 -5t4 -11q0 -8 -7 -12q-47 -31 -116 -51q-31 -86 -77 -142q-66 -82 -137 -82h-5q-35 2 -63 26.5t-41 67.5q-11 36 -11 83q0 35 7 75q-20 16 -32 37q-23 39 -23 92q0 51 21 114q44 132 126 199q59 49 122 49h6zM280 477h-6q-51 0 -102 -42q-75 -62 -116 -186
q-20 -58 -20 -104q0 -44 19 -76q5 -9 13 -18q5 26 12 48q3 12 15 11q6 0 10.5 -4.5t4.5 -10.5q0 -3 -1 -5q-9 -30 -15 -61q16 -11 35 -18t42 -11q27 -5 59 -5q64 0 135 19q15 44 25 89q18 85 18 155q0 64 -15 112q-26 86 -91 103q-11 3 -22 4zM89 -4q-4 -29 -4 -56
q0 -42 10 -73q21 -70 75 -72h4q57 0 113 70q37 45 65 113q-62 -14 -119 -14q-36 0 -68 6q-43 8 -76 26z" />
    <glyph glyph-name="Ugrave" unicode="&#xd9;" horiz-adv-x="544" 
d="M266 681q7 0 12 -5l52 -65q4 -5 4 -10q0 -6 -4.5 -10.5t-11.5 -4.5t-12 6l-52 64q-3 5 -3 10q0 7 4.5 11t10.5 4zM495 538h1q6 0 10.5 -4.5t4.5 -10.5v-3q-2 -7 -5 -20.5l-8.5 -36.5l-10.5 -43q-22 -98 -37 -187q-27 -169 -27 -315q0 -98 12 -183v-2q0 -6 -4.5 -10.5
t-10.5 -4.5t-10 3.5t-5 9.5q-13 88 -13 188q0 147 28 319q4 27 10 59q-121 -319 -209 -446q-52 -76 -94 -82h-7q-19 0 -34 14t-25 41q-20 55 -20 155q0 70 10 152q25 212 87 335q4 9 14 9q6 0 10.5 -4.5t4.5 -10.5q0 -4 -2 -8q-59 -118 -84 -324q-9 -77 -9 -146
q0 -99 18 -148q7 -20 17 -29q7 -7 16 -6q28 4 73 69q114 165 285 660q4 10 14 10z" />
    <glyph glyph-name="Uacute" unicode="&#xda;" horiz-adv-x="545" 
d="M370 682h1q6 0 10.5 -4.5t4.5 -10.5t-3 -10l-53 -65q-4 -6 -12 -6q-6 0 -10.5 4.5t-4.5 11.5q0 5 4 9l52 65q4 6 11 6zM495 538h1q6 0 10.5 -4.5t4.5 -10.5v-3q-2 -7 -5 -20.5l-8.5 -36.5l-10.5 -43q-22 -98 -37 -187q-27 -169 -27 -315q0 -98 12 -183v-2
q0 -6 -4.5 -10.5t-10.5 -4.5t-10 3.5t-5 9.5q-13 88 -13 188q0 147 28 319q4 27 10 59q-121 -319 -209 -446q-52 -76 -94 -82h-7q-19 0 -34 14t-25 41q-20 55 -20 155q0 70 10 152q25 212 87 335q4 9 14 9q6 0 10.5 -4.5t4.5 -10.5q0 -4 -2 -8q-59 -118 -84 -324
q-9 -77 -9 -146q0 -99 18 -148q7 -20 17 -29q7 -7 16 -6q28 4 73 69q114 165 285 660q4 10 14 10z" />
    <glyph glyph-name="Ucircumflex" unicode="&#xdb;" horiz-adv-x="545" 
d="M321 675h2q16 0 35 -18q8 -7 43 -46q5 -4 5 -10t-4.5 -10.5t-11.5 -4.5t-11 5l-42 44q-10 10 -15 9q-4 0 -17 -11q-6 -5 -20.5 -20t-23.5 -23q-5 -5 -11 -5t-10.5 4.5t-4.5 11.5q0 6 5 11q8 7 23 22l21 21q21 19 37 20zM495 538h1q6 0 10.5 -4.5t4.5 -10.5v-3
q-2 -7 -5 -20.5l-8.5 -36.5l-10.5 -43q-22 -98 -37 -187q-27 -169 -27 -315q0 -98 12 -183v-2q0 -6 -4.5 -10.5t-10.5 -4.5t-10 3.5t-5 9.5q-13 88 -13 188q0 147 28 319q4 27 10 59q-121 -319 -209 -446q-52 -76 -94 -82h-7q-19 0 -34 14t-25 41q-20 55 -20 155
q0 70 10 152q25 212 87 335q4 9 14 9q6 0 10.5 -4.5t4.5 -10.5q0 -4 -2 -8q-59 -118 -84 -324q-9 -77 -9 -146q0 -99 18 -148q7 -20 17 -29q7 -7 16 -6q28 4 73 69q114 165 285 660q4 10 14 10z" />
    <glyph glyph-name="Udieresis" unicode="&#xdc;" horiz-adv-x="545" 
d="M364 637q6 0 10.5 -4.5t4.5 -10.5v-2q-2 -11 -6 -22q-4 -9 -14 -9q-7 0 -11.5 4.5t-4.5 10.5q0 4 2 7q3 6 4 13q0 5 4.5 9t10.5 4zM294 637q6 0 10.5 -4.5t4.5 -10.5v-2q-2 -11 -6 -22q-4 -9 -14 -9q-7 0 -11.5 4.5t-4.5 10.5q0 4 2 7q3 6 4 13q0 5 4.5 9t10.5 4z
M495 538h1q6 0 10.5 -4.5t4.5 -10.5v-3q-2 -7 -5 -20.5l-8.5 -36.5l-10.5 -43q-22 -98 -37 -187q-27 -169 -27 -315q0 -98 12 -183v-2q0 -6 -4.5 -10.5t-10.5 -4.5t-10 3.5t-5 9.5q-13 88 -13 188q0 147 28 319q4 27 10 59q-121 -319 -209 -446q-52 -76 -94 -82h-7
q-19 0 -34 14t-25 41q-20 55 -20 155q0 70 10 152q25 212 87 335q4 9 14 9q6 0 10.5 -4.5t4.5 -10.5q0 -4 -2 -8q-59 -118 -84 -324q-9 -77 -9 -146q0 -99 18 -148q7 -20 17 -29q7 -7 16 -6q28 4 73 69q114 165 285 660q4 10 14 10z" />
    <glyph glyph-name="Yacute" unicode="&#xdd;" horiz-adv-x="495" 
d="M300 695h1q6 0 10.5 -4.5t4.5 -10.5t-3 -10l-52 -65q-5 -6 -12 -6t-11.5 4.5t-4.5 11.5q0 5 4 9l52 65q4 6 11 6zM410 552q9 0 14 -9q14 -26 14 -84v-6q-1 -56 -13 -137q-15 -99 -45 -222q22 23 42 42q5 4 11 4t10.5 -4.5t4.5 -10.5q0 -7 -5 -11q-41 -39 -79 -82l-16 -61
q-55 -191 -109 -309q-28 -62 -52 -91q-14 -17 -28 -24q-7 -3 -15 -3q-11 0 -19 6q-6 4 -9 14q-2 8 -2 20q0 16 4 38q10 61 40 136q61 152 178 288q40 153 59 275q12 83 12 136q0 13 -1 28q-126 -317 -222 -439q-47 -60 -86 -71q-9 -3 -18 -3q-11 0 -21 4q-16 7 -28 26
q-30 45 -30 139q0 36 4 78q17 157 80 282q5 9 14 9q6 0 10.5 -4.5t4.5 -11.5q0 -4 -1 -7q-62 -119 -78 -271q-3 -35 -3 -67q0 -95 24 -130q7 -11 15 -14.5t19 -0.5q29 9 70 61q101 128 236 477q4 9 14 10zM316 -27q-83 -109 -130 -227q-29 -71 -38 -129q-3 -20 -3 -34v-8h1
q7 3 17 15q21 26 49 85q52 114 104 298zM146 -428z" />
    <glyph glyph-name="germandbls" unicode="&#xdf;" horiz-adv-x="465" 
d="M310 518q17 0 32 -8q37 -19 31 -70q-5 -45 -43 -101q-61 -90 -178 -169q65 11 113 -2q41 -10 68 -36.5t36 -63.5q19 -74 -23.5 -168.5t-133.5 -176.5q-1 0 -1 -1q-84 -68 -129 -78q-26 -5 -42 8q-15 11 -18 36q-5 38 17 110q19 61 56 144q4 10 14 10q6 0 10.5 -4.5
t4.5 -10.5q0 -4 -1 -7q-36 -81 -55 -141q-20 -66 -16 -97q1 -12 6.5 -16t17.5 -2q38 8 115 71v1q86 76 125.5 164t23.5 150t-82 79q-62 16 -160 -13q-53 -191 -124 -493q-3 -12 -15 -12q-6 0 -10.5 4.5t-4.5 10.5v4q68 285 119 475q-1 -1 -6 -2.5t-7.5 -2.5t-5.5 -1
q-6 0 -10.5 4.5t-4.5 10.5q0 9 8 14q18 9 38 20l17 57q33 109 94 203q36 56 71 81q26 19 53 19zM309 488q-15 0 -34 -14q-30 -21 -63 -72q-29 -44 -53.5 -99.5t-37.5 -96.5q-1 -4 -3.5 -13t-3.5 -11q127 80 190 174q34 50 38 87q4 31 -14 40q-10 5 -19 5z" />
    <glyph glyph-name="agrave" unicode="&#xe0;" 
d="M51 329q8 0 12 -5l52 -65q4 -5 4 -10q0 -6 -4.5 -10.5t-10.5 -4.5q-8 0 -12 6l-53 64q-3 5 -3 10q0 7 4.5 11t10.5 4zM175 205q6 0 10.5 -4.5t4.5 -10.5v-1q-5 -103 -7 -202v-6q0 -47 10 -57q2 -1 5 -1q6 1 16 8q31 22 97 110q5 6 13 6q6 0 10.5 -4.5t4.5 -10.5
q0 -5 -3 -10q-69 -92 -104 -116q-16 -11 -29 -13h-6q-15 0 -25 10q-20 18 -20 73q0 6 1 12q1 44 2 94q-20 -34 -68 -106q-22 -33 -45 -59q-27 -29 -45 -36q-16 -7 -28 2q-11 8 -11 29q0 27 21 86q28 80 76 126q42 40 89 40q7 0 14 -1l1 28q1 6 5.5 10t10.5 4zM143 134
q-34 0 -67 -32q-43 -41 -68 -114q-20 -55 -19 -77q13 8 30 27q22 24 43 55q62 93 87 140q-3 1 -6 1z" />
    <glyph glyph-name="aacute" unicode="&#xe1;" 
d="M140 318h1q6 0 10.5 -4.5t4.5 -10.5t-3 -10l-52 -65q-5 -6 -12 -6t-11.5 4.5t-4.5 11.5q0 5 4 9l52 65q4 6 11 6zM175 205q6 0 10.5 -4.5t4.5 -10.5v-1q-5 -103 -7 -202v-6q0 -47 10 -57q2 -1 5 -1q6 1 16 8q31 22 97 110q5 6 13 6q6 0 10.5 -4.5t4.5 -10.5q0 -5 -3 -10
q-69 -92 -104 -116q-16 -11 -29 -13h-6q-15 0 -25 10q-20 18 -20 73q0 6 1 12q1 44 2 94q-20 -34 -68 -106q-22 -33 -45 -59q-27 -29 -45 -36q-16 -7 -28 2q-11 8 -11 29q0 27 21 86q28 80 76 126q42 40 89 40q7 0 14 -1l1 28q1 6 5.5 10t10.5 4zM143 134q-34 0 -67 -32
q-43 -41 -68 -114q-20 -55 -19 -77q13 8 30 27q22 24 43 55q62 93 87 140q-3 1 -6 1z" />
    <glyph glyph-name="acircumflex" unicode="&#xe2;" 
d="M116 336h2q16 0 35 -18q8 -7 44 -46q4 -4 4 -10t-4.5 -10.5t-10.5 -4.5q-7 0 -12 5q-34 37 -41 44q-11 10 -15 9q-5 0 -18 -11l-20 -20t-24 -23q-4 -5 -10.5 -5t-11 4.5t-4.5 11.5q0 6 5 11q8 7 23 22t22 21q20 19 36 20zM175 205q6 0 10.5 -4.5t4.5 -10.5v-1
q-5 -103 -7 -202v-6q0 -47 10 -57q2 -1 5 -1q6 1 16 8q31 22 97 110q5 6 13 6q6 0 10.5 -4.5t4.5 -10.5q0 -5 -3 -10q-69 -92 -104 -116q-16 -11 -29 -13h-6q-15 0 -25 10q-20 18 -20 73q0 6 1 12q1 44 2 94q-20 -34 -68 -106q-22 -33 -45 -59q-27 -29 -45 -36q-16 -7 -28 2
q-11 8 -11 29q0 27 21 86q28 80 76 126q42 40 89 40q7 0 14 -1l1 28q1 6 5.5 10t10.5 4zM143 134q-34 0 -67 -32q-43 -41 -68 -114q-20 -55 -19 -77q13 8 30 27q22 24 43 55q62 93 87 140q-3 1 -6 1z" />
    <glyph glyph-name="atilde" unicode="&#xe3;" 
d="M98 304h1q24 0 50 -26q16 -16 28 -16h3q11 2 22 22q5 8 14 8q6 0 10.5 -4.5t4.5 -11.5q0 -4 -2 -7q-18 -32 -44 -37h-8q-24 0 -50 25q-16 16 -28 16h-3q-11 -2 -22 -22q-5 -7 -14 -7q-6 0 -10.5 4t-4.5 11q0 4 2 8q18 31 44 36q3 0 7 1zM175 205q6 0 10.5 -4.5t4.5 -10.5
v-1q-5 -103 -7 -202v-6q0 -47 10 -57q2 -1 5 -1q6 1 16 8q31 22 97 110q5 6 13 6q6 0 10.5 -4.5t4.5 -10.5q0 -5 -3 -10q-69 -92 -104 -116q-16 -11 -29 -13h-6q-15 0 -25 10q-20 18 -20 73q0 6 1 12q1 44 2 94q-20 -34 -68 -106q-22 -33 -45 -59q-27 -29 -45 -36
q-16 -7 -28 2q-11 8 -11 29q0 27 21 86q28 80 76 126q42 40 89 40q7 0 14 -1l1 28q1 6 5.5 10t10.5 4zM143 134q-34 0 -67 -32q-43 -41 -68 -114q-20 -55 -19 -77q13 8 30 27q22 24 43 55q62 93 87 140q-3 1 -6 1z" />
    <glyph glyph-name="adieresis" unicode="&#xe4;" 
d="M139.5 282q6.5 0 10.5 -4.5t4 -10.5v-3q-1 -10 -6 -21q-4 -9 -14 -9q-6 0 -10.5 4.5t-4.5 10.5q0 4 1 7q3 6 4 13q1 5 5 9t10.5 4zM69.5 282q6.5 0 10.5 -4.5t4 -10.5v-3q-1 -10 -6 -21q-4 -9 -14 -9q-6 0 -10.5 4.5t-4.5 10.5q0 4 1 7q3 6 4 13q1 5 5 9t10.5 4zM175 205
q6 0 10.5 -4.5t4.5 -10.5v-1q-5 -103 -7 -202v-6q0 -47 10 -57q2 -1 5 -1q6 1 16 8q31 22 97 110q5 6 13 6q6 0 10.5 -4.5t4.5 -10.5q0 -5 -3 -10q-69 -92 -104 -116q-16 -11 -29 -13h-6q-15 0 -25 10q-20 18 -20 73q0 6 1 12q1 44 2 94q-20 -34 -68 -106q-22 -33 -45 -59
q-27 -29 -45 -36q-16 -7 -28 2q-11 8 -11 29q0 27 21 86q28 80 76 126q42 40 89 40q7 0 14 -1l1 28q1 6 5.5 10t10.5 4zM143 134q-34 0 -67 -32q-43 -41 -68 -114q-20 -55 -19 -77q13 8 30 27q22 24 43 55q62 93 87 140q-3 1 -6 1z" />
    <glyph glyph-name="aring" unicode="&#xe5;" 
d="M146 360q7 1 13 -3q15 -7 15 -28q0 -15 -10 -37q-17 -35 -35 -50q-12 -10 -24 -10q-6 0 -11 3q-15 7 -17 27v6q0 11 4 25q11 38 35 61q5 4 11 4q2 0 5 -1q6 3 12 3h2zM143 328q-3 -2 -4 -5q-5 -9 -14 -9h-1q-10 -15 -14 -29q-3 -12 -2 -20q1 1 2 1q12 10 26 39q6 14 7 23
zM175 205q6 0 10.5 -4.5t4.5 -10.5v-1q-5 -103 -7 -202v-6q0 -47 10 -57q2 -1 5 -1q6 1 16 8q31 22 97 110q5 6 13 6q6 0 10.5 -4.5t4.5 -10.5q0 -5 -3 -10q-69 -92 -104 -116q-16 -11 -29 -13h-6q-15 0 -25 10q-20 18 -20 73q0 6 1 12q1 44 2 94q-20 -34 -68 -106
q-22 -33 -45 -59q-27 -29 -45 -36q-16 -7 -28 2q-11 8 -11 29q0 27 21 86q28 80 76 126q42 40 89 40q7 0 14 -1l1 28q1 6 5.5 10t10.5 4zM143 134q-34 0 -67 -32q-43 -41 -68 -114q-20 -55 -19 -77q13 8 30 27q22 24 43 55q62 93 87 140q-3 1 -6 1z" />
    <glyph glyph-name="ae" unicode="&#xe6;" horiz-adv-x="397" 
d="M277 215h2q7 0 12 -4q10 -6 13 -20q2 -10 0 -24q-5 -28 -27 -66q-16 -28 -40 -50.5t-48 -32.5q-7 -32 -7 -57q0 -44 19 -55q5 -4 14 -4q19 0 48 18q54 33 131 120q5 5 12 5q6 0 10.5 -4.5t4.5 -10.5t-4 -10q-80 -91 -138 -126q-37 -22 -65 -22q-16 0 -29 7q-3 2 -5 4
q-3 1 -5 3q-19 17 -24 53q-2 17 -2 39q0 14 1 34q0 15 5 69l-68 -105q-22 -33 -46 -59q-26 -29 -44 -36q-16 -7 -28 2q-11 8 -11 29q0 27 21 86q28 80 76 126q42 40 88 40q8 0 16 -1v27q0 6 4.5 10.5t10.5 4.5q7 0 11.5 -4.5t4.5 -10.5v-11q0 -28 -2 -65q4 9 16 31
q21 38 42 56q11 9 21 13q5 1 10 1zM274 183q-4 -1 -8 -5q-17 -15 -35 -48q-19 -34 -28 -61q0 -1 -3 -8q34 26 50 55v0q20 33 24 56q1 7 0 11zM142 134q-33 0 -66 -32q-43 -41 -69 -114q-19 -55 -19 -77q14 8 31 27q22 24 42 55q63 93 88 140q-3 1 -7 1z" />
    <glyph glyph-name="ccedilla" unicode="&#xe7;" horiz-adv-x="274" 
d="M114 -165q6 0 9.5 -3.5t3.5 -9.5v-1l-2 -20q23 0 36 -10q15 -9 15 -26q0 -4 -2 -9q-5 -13 -22 -23q-13 -8 -29 -11q-17 -3 -28 2q-9 3 -12 11t0 18q3 8 12 8q5 0 8.5 -3.5t3.5 -8.5v-3q6 -1 12 1q11 2 21 7q9 6 11 12q1 2 -4 5q-8 5 -25 5h-9h-1q-5 0 -9 3.5t-4 8.5
q0 1 1 1l2 34q0 5 3.5 8.5t8.5 3.5zM139 206q4 1 8 0q18 -2 26 -19q5 -11 5 -25q0 -23 -14 -64q-4 -10 -15 -10q-6 0 -10.5 4.5t-4.5 10.5q0 3 1 5q11 34 11 56q0 7 -1 10q-1 2 -2 2q-4 0 -13 -4q-22 -10 -50.5 -44t-45.5 -73q-26 -62 -28 -120v-7q0 -51 21 -68q10 -8 26 -7
q20 2 49 20q69 43 168 169q5 6 12 6t11.5 -4.5t4.5 -10.5t-4 -10q-103 -130 -176 -176q-35 -21 -62 -24q-4 -1 -8 -1q-24 0 -41 14q-31 27 -31 91v9q2 64 30 131q19 45 50 81.5t61 51.5q12 6 22 6z" />
    <glyph glyph-name="egrave" unicode="&#xe8;" horiz-adv-x="230" 
d="M36 340q8 0 12 -5l52 -65q4 -5 4 -10q0 -6 -4.5 -10.5t-10.5 -4.5q-8 0 -12 6l-53 64q-3 5 -3 10q0 7 4.5 11t10.5 4zM111 215q6 0 12 -4q10 -6 13 -20q2 -10 0 -24q-5 -28 -27 -66q-16 -28 -40 -50.5t-48 -32.5q-7 -32 -7 -57q0 -44 19 -55q5 -4 13 -4q20 0 49 18
q54 33 131 120q4 5 11 5t11.5 -4.5t4.5 -10.5t-4 -10q-80 -91 -138 -126q-37 -22 -65 -22q-16 0 -29 7q-33 20 -33 82q0 50 22 118q10 29 30 66q21 38 42 56q11 9 21 13q6 1 12 1zM106 183q-4 -1 -8 -5q-17 -15 -36 -48q-18 -34 -27 -61q-1 -1 -3 -8q33 26 50 55v0
q19 33 24 56q1 7 0 11z" />
    <glyph glyph-name="eacute" unicode="&#xe9;" horiz-adv-x="230" 
d="M140 341h1q6 0 10.5 -4.5t4.5 -10.5t-3 -10l-52 -65q-5 -6 -12 -6t-11.5 4.5t-4.5 11.5q0 5 4 9l52 65q4 6 11 6zM111 215q6 0 12 -4q10 -6 13 -20q2 -10 0 -24q-5 -28 -27 -66q-16 -28 -40 -50.5t-48 -32.5q-7 -32 -7 -57q0 -44 19 -55q5 -4 13 -4q20 0 49 18
q54 33 131 120q4 5 11 5t11.5 -4.5t4.5 -10.5t-4 -10q-80 -91 -138 -126q-37 -22 -65 -22q-16 0 -29 7q-33 20 -33 82q0 50 22 118q10 29 30 66q21 38 42 56q11 9 21 13q6 1 12 1zM106 183q-4 -1 -8 -5q-17 -15 -36 -48q-18 -34 -27 -61q-1 -1 -3 -8q33 26 50 55v0
q19 33 24 56q1 7 0 11z" />
    <glyph glyph-name="ecircumflex" unicode="&#xea;" horiz-adv-x="230" 
d="M86 336h2q16 0 35 -18q8 -7 44 -46q4 -4 4 -10t-4.5 -10.5t-10.5 -4.5q-7 0 -12 5q-34 37 -41 44q-11 10 -15 9q-5 0 -18 -11l-20 -20t-24 -23q-4 -5 -10.5 -5t-11 4.5t-4.5 11.5q0 6 5 11q8 7 23 22t22 21q20 19 36 20zM111 215q6 0 12 -4q10 -6 13 -20q2 -10 0 -24
q-5 -28 -27 -66q-16 -28 -40 -50.5t-48 -32.5q-7 -32 -7 -57q0 -44 19 -55q5 -4 13 -4q20 0 49 18q54 33 131 120q4 5 11 5t11.5 -4.5t4.5 -10.5t-4 -10q-80 -91 -138 -126q-37 -22 -65 -22q-16 0 -29 7q-33 20 -33 82q0 50 22 118q10 29 30 66q21 38 42 56q11 9 21 13
q6 1 12 1zM106 183q-4 -1 -8 -5q-17 -15 -36 -48q-18 -34 -27 -61q-1 -1 -3 -8q33 26 50 55v0q19 33 24 56q1 7 0 11z" />
    <glyph glyph-name="edieresis" unicode="&#xeb;" horiz-adv-x="230" 
d="M124.5 292q6.5 0 10.5 -4.5t4 -10.5v-3q-1 -10 -6 -21q-4 -9 -14 -9q-6 0 -10.5 4.5t-4.5 10.5q0 4 1 7q3 6 4 13q1 5 5 9t10.5 4zM54.5 292q6.5 0 10.5 -4.5t4 -10.5v-3q-1 -10 -6 -21q-4 -9 -14 -9q-6 0 -10.5 4.5t-4.5 10.5q0 4 1 7q3 6 4 13q1 5 5 9t10.5 4zM111 215
q6 0 12 -4q10 -6 13 -20q2 -10 0 -24q-5 -28 -27 -66q-16 -28 -40 -50.5t-48 -32.5q-7 -32 -7 -57q0 -44 19 -55q5 -4 13 -4q20 0 49 18q54 33 131 120q4 5 11 5t11.5 -4.5t4.5 -10.5t-4 -10q-80 -91 -138 -126q-37 -22 -65 -22q-16 0 -29 7q-33 20 -33 82q0 50 22 118
q10 29 30 66q21 38 42 56q11 9 21 13q6 1 12 1zM106 183q-4 -1 -8 -5q-17 -15 -36 -48q-18 -34 -27 -61q-1 -1 -3 -8q33 26 50 55v0q19 33 24 56q1 7 0 11z" />
    <glyph glyph-name="igrave" unicode="&#xec;" horiz-adv-x="168" 
d="M35 261q8 0 12 -5l52 -65q4 -5 4 -10q0 -6 -4.5 -10.5t-10.5 -4.5q-8 0 -12 6l-53 64q-3 5 -3 10q0 7 4.5 11t10.5 4zM31 135q7 0 11.5 -4.5t4.5 -10.5q0 -2 -1 -4q-18 -62 -26 -110q-5 -33 -5 -58q0 -17 3 -27q2 -8 6 -9q6 -2 19 5q42 24 120 120q5 6 12 6
q6 0 10.5 -4.5t4.5 -10.5t-3 -10q-82 -101 -129 -127q-18 -10 -32 -10q-6 0 -12 2q-9 3 -15.5 11t-10.5 19q-4 15 -4 36q0 24 6 62q8 50 27 113q3 11 14 11z" />
    <glyph glyph-name="iacute" unicode="&#xed;" horiz-adv-x="168" 
d="M50 261h1q6 0 10.5 -4.5t4.5 -10.5t-3 -10l-52 -65q-5 -6 -12 -6t-11.5 4.5t-4.5 11.5q0 5 4 9l52 65q4 6 11 6zM31 135q7 0 11.5 -4.5t4.5 -10.5q0 -2 -1 -4q-18 -62 -26 -110q-5 -33 -5 -58q0 -17 3 -27q2 -8 6 -9q6 -2 19 5q42 24 120 120q5 6 12 6q6 0 10.5 -4.5
t4.5 -10.5t-3 -10q-82 -101 -129 -127q-18 -10 -32 -10q-6 0 -12 2q-9 3 -15.5 11t-10.5 19q-4 15 -4 36q0 24 6 62q8 50 27 113q3 11 14 11z" />
    <glyph glyph-name="icircumflex" unicode="&#xee;" horiz-adv-x="168" 
d="M38 256h2q16 0 35 -18q8 -7 44 -46q4 -4 4 -10t-4.5 -10.5t-10.5 -4.5q-7 0 -12 5q-34 37 -41 44q-11 10 -15 9q-5 0 -18 -11l-20 -20t-24 -23q-4 -5 -10.5 -5t-11 4.5t-4.5 11.5q0 6 5 11q8 7 23 22t22 21q20 19 36 20zM31 135q7 0 11.5 -4.5t4.5 -10.5q0 -2 -1 -4
q-18 -62 -26 -110q-5 -33 -5 -58q0 -17 3 -27q2 -8 6 -9q6 -2 19 5q42 24 120 120q5 6 12 6q6 0 10.5 -4.5t4.5 -10.5t-3 -10q-82 -101 -129 -127q-18 -10 -32 -10q-6 0 -12 2q-9 3 -15.5 11t-10.5 19q-4 15 -4 36q0 24 6 62q8 50 27 113q3 11 14 11z" />
    <glyph glyph-name="idieresis" unicode="&#xef;" horiz-adv-x="168" 
d="M79.5 213q6.5 0 10.5 -4.5t4 -10.5v-2q-1 -11 -6 -22q-4 -9 -14 -9q-6 0 -10.5 4.5t-4.5 10.5q0 4 1 7q3 6 4 13q1 5 5 9t10.5 4zM9.5 213q6.5 0 10.5 -4.5t4 -10.5v-2q-1 -11 -6 -22q-4 -9 -14 -9q-6 0 -10.5 4.5t-4.5 10.5q0 4 1 7q3 6 4 13q1 5 5 9t10.5 4zM31 135
q7 0 11.5 -4.5t4.5 -10.5q0 -2 -1 -4q-18 -62 -26 -110q-5 -33 -5 -58q0 -17 3 -27q2 -8 6 -9q6 -2 19 5q42 24 120 120q5 6 12 6q6 0 10.5 -4.5t4.5 -10.5t-3 -10q-82 -101 -129 -127q-18 -10 -32 -10q-6 0 -12 2q-9 3 -15.5 11t-10.5 19q-4 15 -4 36q0 24 6 62
q8 50 27 113q3 11 14 11z" />
    <glyph glyph-name="eth" unicode="&#xf0;" horiz-adv-x="241" 
 />
    <glyph glyph-name="ntilde" unicode="&#xf1;" horiz-adv-x="368" 
d="M110 295h1q24 0 50 -25q16 -17 28 -17h3q11 2 22 22q5 8 14 8q6 0 10.5 -4.5t4.5 -11.5q0 -4 -2 -7q-18 -32 -44 -37h-8q-24 0 -50 25q-16 16 -28 16h-3q-11 -2 -22 -22q-5 -7 -14 -7q-6 0 -10.5 4t-4.5 11q0 4 2 8q18 31 44 36q3 0 7 1zM43 186q6 0 10.5 -4.5t4.5 -10.5
q0 -2 -1 -4q-31 -130 -51 -252q0 -3 -4 -26q20 34 50 80l62 100q28 47 50 72q11 14 22 21q13 10 25 10q15 -1 24 -15q6 -11 9 -30q1 -12 1 -28q0 -30 -5 -76q-5 -41 -5 -71q0 -27 3 -40q3 -8 5 -9t7 2q18 9 49 48q25 30 62 84q4 7 12 7q7 0 11.5 -4.5t4.5 -10.5q0 -5 -3 -9
q-38 -56 -63 -87q-35 -43 -59 -55q-11 -6 -21 -6q-6 0 -12 3q-15 6 -22 28q-5 18 -5 48t5 76q5 44 5 73q0 14 -1 23q-1 13 -4 18q-3 -1 -5 -3q-8 -6 -17 -17q-20 -23 -47 -68q-30 -51 -53.5 -86.5l-41.5 -64.5t-50 -88q-1 -3 -4 -5q-3 -3 -6 -4q-7 -2 -12.5 1.5t-7.5 9.5
q-1 3 -1 5q0 7 1 21q3 27 11 78q20 123 52 254q2 12 14 12h1zM-31 -171q-1 0 -1 -1z" />
    <glyph glyph-name="ograve" unicode="&#xf2;" horiz-adv-x="241" 
d="M106 341q8 0 12 -5l52 -65q4 -5 4 -10q0 -6 -4.5 -10.5t-10.5 -4.5q-8 0 -12 6l-53 64q-3 5 -3 10q0 7 4.5 11t10.5 4zM115 216q10 -1 20 -4q41 -13 50 -67q3 -14 3 -29q0 -48 -25 -113v-1.5v-0.5q38 7 74 40q5 4 11 4t10.5 -4.5t4.5 -10.5q0 -7 -5 -11q-51 -47 -109 -50
q-22 -46 -49 -66q-18 -13 -37 -13t-34 14q-14 12 -22.5 32t-11.5 47q-1 11 -1 22q0 48 17 100q1 2 3 4q10 55 45 85q26 22 55 22h1zM114 185q-18 0 -35 -14q-29 -24 -36 -71q-1 -5 -1 -11q0 -24 15 -46t40 -34q15 -8 32 -10q4 9 6 14q22 60 22 104q0 12 -2 23q-6 36 -30 43
q-5 2 -11 2zM27 34q-2 -15 -2 -29q0 -10 1 -19q4 -43 23 -59q7 -6 14 -6q9 0 19 7q17 12 34 43q-17 3 -32 10q-38 18 -57 53z" />
    <glyph glyph-name="oacute" unicode="&#xf3;" horiz-adv-x="241" 
d="M160 341h1q6 0 10.5 -4.5t4.5 -10.5t-3 -10l-52 -65q-5 -6 -12 -6t-11.5 4.5t-4.5 11.5q0 5 4 9l52 65q4 6 11 6zM115 216q10 -1 20 -4q41 -13 50 -67q3 -14 3 -29q0 -48 -25 -113v-1.5v-0.5q38 7 74 40q5 4 11 4t10.5 -4.5t4.5 -10.5q0 -7 -5 -11q-51 -47 -109 -50
q-22 -46 -49 -66q-18 -13 -37 -13t-34 14q-14 12 -22.5 32t-11.5 47q-1 11 -1 22q0 48 17 100q1 2 3 4q10 55 45 85q26 22 55 22h1zM114 185q-18 0 -35 -14q-29 -24 -36 -71q-1 -5 -1 -11q0 -24 15 -46t40 -34q15 -8 32 -10q4 9 6 14q22 60 22 104q0 12 -2 23q-6 36 -30 43
q-5 2 -11 2zM27 34q-2 -15 -2 -29q0 -10 1 -19q4 -43 23 -59q7 -6 14 -6q9 0 19 7q17 12 34 43q-17 3 -32 10q-38 18 -57 53z" />
    <glyph glyph-name="ocircumflex" unicode="&#xf4;" horiz-adv-x="241" 
d="M116 336h2q16 0 35 -18q8 -7 44 -46q4 -4 4 -10t-4.5 -10.5t-10.5 -4.5q-7 0 -12 5q-34 37 -41 44q-11 10 -15 9q-5 0 -18 -11l-20 -20t-24 -23q-4 -5 -10.5 -5t-11 4.5t-4.5 11.5q0 6 5 11q8 7 23 22t22 21q20 19 36 20zM115 216q10 -1 20 -4q41 -13 50 -67q3 -14 3 -29
q0 -48 -25 -113v-1.5v-0.5q38 7 74 40q5 4 11 4t10.5 -4.5t4.5 -10.5q0 -7 -5 -11q-51 -47 -109 -50q-22 -46 -49 -66q-18 -13 -37 -13t-34 14q-14 12 -22.5 32t-11.5 47q-1 11 -1 22q0 48 17 100q1 2 3 4q10 55 45 85q26 22 55 22h1zM114 185q-18 0 -35 -14
q-29 -24 -36 -71q-1 -5 -1 -11q0 -24 15 -46t40 -34q15 -8 32 -10q4 9 6 14q22 60 22 104q0 12 -2 23q-6 36 -30 43q-5 2 -11 2zM27 34q-2 -15 -2 -29q0 -10 1 -19q4 -43 23 -59q7 -6 14 -6q9 0 19 7q17 12 34 43q-17 3 -32 10q-38 18 -57 53z" />
    <glyph glyph-name="otilde" unicode="&#xf5;" horiz-adv-x="241" 
d="M90 317h1q24 0 50 -25q16 -17 28 -17h3q11 2 22 22q5 8 14 8q6 0 10.5 -4.5t4.5 -11.5q0 -4 -2 -7q-18 -32 -44 -37h-8q-24 0 -50 25q-16 16 -28 16h-3q-11 -2 -22 -22q-5 -7 -14 -7q-6 0 -10.5 4t-4.5 11q0 4 2 8q18 31 44 36q3 0 7 1zM115 216q10 -1 20 -4
q41 -13 50 -67q3 -14 3 -29q0 -48 -25 -113v-1.5v-0.5q38 7 74 40q5 4 11 4t10.5 -4.5t4.5 -10.5q0 -7 -5 -11q-51 -47 -109 -50q-22 -46 -49 -66q-18 -13 -37 -13t-34 14q-14 12 -22.5 32t-11.5 47q-1 11 -1 22q0 48 17 100q1 2 3 4q10 55 45 85q26 22 55 22h1zM114 185
q-18 0 -35 -14q-29 -24 -36 -71q-1 -5 -1 -11q0 -24 15 -46t40 -34q15 -8 32 -10q4 9 6 14q22 60 22 104q0 12 -2 23q-6 36 -30 43q-5 2 -11 2zM27 34q-2 -15 -2 -29q0 -10 1 -19q4 -43 23 -59q7 -6 14 -6q9 0 19 7q17 12 34 43q-17 3 -32 10q-38 18 -57 53z" />
    <glyph glyph-name="odieresis" unicode="&#xf6;" horiz-adv-x="241" 
d="M164.5 293q6.5 0 10.5 -4.5t4 -10.5v-2q-1 -11 -6 -22q-4 -9 -14 -9q-6 0 -10.5 4.5t-4.5 10.5q0 4 1 7q3 6 4 13q1 5 5 9t10.5 4zM94.5 293q6.5 0 10.5 -4.5t4 -10.5v-2q-1 -11 -6 -22q-4 -9 -14 -9q-6 0 -10.5 4.5t-4.5 10.5q0 4 1 7q3 6 4 13q1 5 5 9t10.5 4zM115 216
q10 -1 20 -4q41 -13 50 -67q3 -14 3 -29q0 -48 -25 -113v-1.5v-0.5q38 7 74 40q5 4 11 4t10.5 -4.5t4.5 -10.5q0 -7 -5 -11q-51 -47 -109 -50q-22 -46 -49 -66q-18 -13 -37 -13t-34 14q-14 12 -22.5 32t-11.5 47q-1 11 -1 22q0 48 17 100q1 2 3 4q10 55 45 85q26 22 55 22h1
zM114 185q-18 0 -35 -14q-29 -24 -36 -71q-1 -5 -1 -11q0 -24 15 -46t40 -34q15 -8 32 -10q4 9 6 14q22 60 22 104q0 12 -2 23q-6 36 -30 43q-5 2 -11 2zM27 34q-2 -15 -2 -29q0 -10 1 -19q4 -43 23 -59q7 -6 14 -6q9 0 19 7q17 12 34 43q-17 3 -32 10q-38 18 -57 53z" />
    <glyph glyph-name="divide" unicode="&#xf7;" horiz-adv-x="356" 
d="M417 558q6 0 10.5 -4.5t4.5 -10.5q0 -4 -2 -8l-56 -98l-88.5 -155.5l-85.5 -154.5q-75 -139 -119 -236q-53 -116 -61 -171q0 -5 -4.5 -9t-10.5 -4t-10.5 4.5t-4.5 11.5v2q9 59 63 179q44 97 120 238l174 309v-1q-63 -60 -96 -68q-2 -1 -4 -1q-7 0 -11.5 4.5t-4.5 10.5
q0 12 12 15q25 7 83 62q17 16 45 45l35 36q5 4 11 4zM168 373q5 0 11 -3q13 -7 13 -25q0 -12 -8 -29q-13 -27 -27 -39q-10 -8 -20 -8q-6 0 -10 2q-13 7 -15 24q-1 11 3 25q8 29 28 46q4 5 10 5q2 0 4 -1q5 2 9 2q1 1 2 1zM157 331q-2 0 -4 -1q-6 -9 -8 -19l-1 -3q6 8 12 21
q1 0 1 1v1zM192 -92q7 1 13 -3q15 -7 15 -28q0 -15 -10 -37q-17 -35 -35 -50q-12 -10 -24 -10q-6 0 -11 3q-15 7 -17 27v6q0 11 4 25q11 38 35 61q5 4 11 4q2 0 5 -1q6 3 12 3h2zM189 -124q-3 -2 -4 -5q-5 -9 -14 -9h-1q-10 -15 -14 -29q-3 -12 -2 -20q1 1 2 1q12 10 26 39
q6 14 7 23z" />
    <glyph glyph-name="oslash" unicode="&#xf8;" horiz-adv-x="241" 
d="M149 260q7 0 11.5 -4t4.5 -11q0 -2 -1 -4l-5.5 -19.5t-4.5 -16.5q29 -18 36 -60q2 -14 2 -29q0 -49 -24 -114q-27 -72 -63 -99q-18 -13 -37 -13h-4l-13 -46q-3 -12 -15 -12q-6 0 -10.5 4.5t-4.5 11.5v4l14 50l-2 2q-7 6 -12.5 14t-9.5 18t-7 21.5t-4 24.5q-1 11 -1 23
q0 47 17 99q1 3 3 5q9 55 45 85q25 21 55 21h1h5q2 8 10 34q3 11 14 11zM116 185q-17 -1 -33 -15q-28 -24 -35 -70q-1 -4 -4 -8q-14 -46 -14 -87v-20q3 -29 15 -48zM144 174l-72 -253q7 1 15 7q29 21 53 85q22 60 22 104q0 12 -2 22q-4 23 -16 35z" />
    <glyph glyph-name="ugrave" unicode="&#xf9;" horiz-adv-x="303" 
d="M76 334q8 0 12 -5l52 -65q4 -5 4 -10q0 -6 -4.5 -10.5t-10.5 -4.5q-8 0 -12 6l-53 64q-3 5 -3 10q0 7 4.5 11t10.5 4zM190 209q6 0 10.5 -4.5t4.5 -10.5v-2q-3 -21 -8 -127q-1 -19 -1 -34q0 -27 3 -44q4 -27 11 -32q2 -1 6 0q7 2 17 10q26 19 65 72q5 7 13 7
q6 0 10.5 -4.5t4.5 -11.5q0 -5 -3 -9q-42 -56 -71 -79q-16 -11 -29 -15q-17 -3 -29 5q-20 12 -25 52q-3 20 -3 48q0 16 1 36q0 12 0.5 24.5t1.5 19.5q-32 -69 -57 -114t-44 -70q-13 -17 -22.5 -24.5t-21.5 -8.5q-14 -1 -23 11q-6 8 -9 21q-3 15 -3 37q0 34 8 88
q12 78 29 125q4 11 15 11q6 0 10.5 -4.5t4.5 -11.5q0 -3 -1 -5q-16 -44 -28 -120q-7 -48 -7 -85q0 -18 2 -29l2 -6q10 7 20 20q47 61 132 255q4 9 14 9z" />
    <glyph glyph-name="uacute" unicode="&#xfa;" horiz-adv-x="303" 
d="M160 333h1q6 0 10.5 -4.5t4.5 -10.5t-3 -10l-52 -65q-5 -6 -12 -6t-11.5 4.5t-4.5 11.5q0 5 4 9l52 65q4 6 11 6zM190 209q6 0 10.5 -4.5t4.5 -10.5v-2q-3 -21 -8 -127q-1 -19 -1 -34q0 -27 3 -44q4 -27 11 -32q2 -1 6 0q7 2 17 10q26 19 65 72q5 7 13 7q6 0 10.5 -4.5
t4.5 -11.5q0 -5 -3 -9q-42 -56 -71 -79q-16 -11 -29 -15q-17 -3 -29 5q-20 12 -25 52q-3 20 -3 48q0 16 1 36q0 12 0.5 24.5t1.5 19.5q-32 -69 -57 -114t-44 -70q-13 -17 -22.5 -24.5t-21.5 -8.5q-14 -1 -23 11q-6 8 -9 21q-3 15 -3 37q0 34 8 88q12 78 29 125q4 11 15 11
q6 0 10.5 -4.5t4.5 -11.5q0 -3 -1 -5q-16 -44 -28 -120q-7 -48 -7 -85q0 -18 2 -29l2 -6q10 7 20 20q47 61 132 255q4 9 14 9z" />
    <glyph glyph-name="ucircumflex" unicode="&#xfb;" horiz-adv-x="303" 
d="M111 328h2q16 0 35 -18q8 -7 44 -46q4 -4 4 -10t-4.5 -10.5t-10.5 -4.5q-7 0 -12 5q-34 37 -41 44q-11 10 -15 9q-5 0 -18 -11l-20 -20t-24 -23q-4 -5 -10.5 -5t-11 4.5t-4.5 11.5q0 6 5 11q8 7 23 22t22 21q20 19 36 20zM190 209q6 0 10.5 -4.5t4.5 -10.5v-2
q-3 -21 -8 -127q-1 -19 -1 -34q0 -27 3 -44q4 -27 11 -32q2 -1 6 0q7 2 17 10q26 19 65 72q5 7 13 7q6 0 10.5 -4.5t4.5 -11.5q0 -5 -3 -9q-42 -56 -71 -79q-16 -11 -29 -15q-17 -3 -29 5q-20 12 -25 52q-3 20 -3 48q0 16 1 36q0 12 0.5 24.5t1.5 19.5q-32 -69 -57 -114
t-44 -70q-13 -17 -22.5 -24.5t-21.5 -8.5q-14 -1 -23 11q-6 8 -9 21q-3 15 -3 37q0 34 8 88q12 78 29 125q4 11 15 11q6 0 10.5 -4.5t4.5 -11.5q0 -3 -1 -5q-16 -44 -28 -120q-7 -48 -7 -85q0 -18 2 -29l2 -6q10 7 20 20q47 61 132 255q4 9 14 9z" />
    <glyph glyph-name="udieresis" unicode="&#xfc;" horiz-adv-x="303" 
d="M161.5 287q6.5 0 10.5 -4.5t4 -10.5v-2q-1 -11 -6 -22q-4 -9 -14 -9q-6 0 -10.5 4.5t-4.5 10.5q0 4 1 7q3 6 4 13q1 5 5 9t10.5 4zM91.5 287q6.5 0 10.5 -4.5t4 -10.5v-2q-1 -11 -6 -22q-4 -9 -14 -9q-6 0 -10.5 4.5t-4.5 10.5q0 4 1 7q3 6 4 13q1 5 5 9t10.5 4zM190 209
q6 0 10.5 -4.5t4.5 -10.5v-2q-3 -21 -8 -127q-1 -19 -1 -34q0 -27 3 -44q4 -27 11 -32q2 -1 6 0q7 2 17 10q26 19 65 72q5 7 13 7q6 0 10.5 -4.5t4.5 -11.5q0 -5 -3 -9q-42 -56 -71 -79q-16 -11 -29 -15q-17 -3 -29 5q-20 12 -25 52q-3 20 -3 48q0 16 1 36q0 12 0.5 24.5
t1.5 19.5q-32 -69 -57 -114t-44 -70q-13 -17 -22.5 -24.5t-21.5 -8.5q-14 -1 -23 11q-6 8 -9 21q-3 15 -3 37q0 34 8 88q12 78 29 125q4 11 15 11q6 0 10.5 -4.5t4.5 -11.5q0 -3 -1 -5q-16 -44 -28 -120q-7 -48 -7 -85q0 -18 2 -29l2 -6q10 7 20 20q47 61 132 255q4 9 14 9z
" />
    <glyph glyph-name="yacute" unicode="&#xfd;" horiz-adv-x="291" 
d="M190 318h1q6 0 10.5 -4.5t4.5 -10.5t-3 -10l-52 -65q-5 -6 -12 -6t-11.5 4.5t-4.5 11.5q0 5 4 9l52 65q4 6 11 6zM50 180q6 0 10.5 -4.5t4.5 -10.5q0 -3 -1 -5q-52 -150 -54 -212q-1 -18 3 -26q3 0 7 2q29 15 80 82q50 67 99 155q4 8 13 8q6 0 10.5 -4t4.5 -10
q1 -14 1 -29q0 -100 -33 -230q1 0 3.5 1t3.5 2q3 1 6 1q7 0 11 -4.5t4 -10.5q0 -10 -9 -14q-14 -7 -30 -16q-28 -99 -58 -161q-50 -104 -90 -153q-19 -23 -34 -31q-10 -5 -18 -5q-11 -1 -19 7q-11 10 -11 32q0 20 8 49q17 60 61 135q56 96 134 147q35 124 40 222
q-37 -62 -73 -109q-55 -73 -90 -91q-11 -6 -21 -6q-13 0 -22 9q-12 13 -12 40v9q3 66 56 221q4 10 15 10zM143 -174q-53 -44 -94 -113q-42 -72 -58 -129q-6 -23 -6 -39q0 -5 1 -9q1 0 1 1q10 5 25 24q38 46 87 146q21 44 44 119z" />
    <glyph glyph-name="ydieresis" unicode="&#xff;" horiz-adv-x="291" 
d="M185.5 282q6.5 0 10.5 -4.5t4 -10.5v-3q-1 -10 -6 -21q-4 -9 -14 -9q-6 0 -10.5 4.5t-4.5 10.5q0 4 1 7q3 6 4 13q1 5 5 9t10.5 4zM115.5 282q6.5 0 10.5 -4.5t4 -10.5v-3q-1 -10 -6 -21q-4 -9 -14 -9q-6 0 -10.5 4.5t-4.5 10.5q0 4 1 7q3 6 4 13q1 5 5 9t10.5 4zM50 180
q6 0 10.5 -4.5t4.5 -10.5q0 -3 -1 -5q-52 -150 -54 -212q-1 -18 3 -26q3 0 7 2q29 15 80 82q50 67 99 155q4 8 13 8q6 0 10.5 -4t4.5 -10q1 -14 1 -29q0 -100 -33 -230q1 0 3.5 1t3.5 2q3 1 6 1q7 0 11 -4.5t4 -10.5q0 -10 -9 -14q-14 -7 -30 -16q-28 -99 -58 -161
q-50 -104 -90 -153q-19 -23 -34 -31q-10 -5 -18 -5q-11 -1 -19 7q-11 10 -11 32q0 20 8 49q17 60 61 135q56 96 134 147q35 124 40 222q-37 -62 -73 -109q-55 -73 -90 -91q-11 -6 -21 -6q-13 0 -22 9q-12 13 -12 40v9q3 66 56 221q4 10 15 10zM143 -174q-53 -44 -94 -113
q-42 -72 -58 -129q-6 -23 -6 -39q0 -5 1 -9q1 0 1 1q10 5 25 24q38 46 87 146q21 44 44 119z" />
    <glyph glyph-name="OE" unicode="&#x152;" horiz-adv-x="798" 
d="M725 553q10 0 18 -3q18 -7 26 -27q8 -18 8 -46q0 -27 -8 -67q-2 -12 -15 -12q-6 0 -10.5 4.5t-4.5 10.5v3q7 35 7 61q0 22 -5 34q-3 8 -9 11q-7 2 -17 -1q-24 -6 -63 -40t-74 -79q-36 -48 -60.5 -98.5t-26.5 -86.5v-8q0 -30 18 -45q19 -14 55 -14q14 0 31 2q1 1 2 1
q6 0 10.5 -4.5t4.5 -11.5q0 -8 -7 -12q-115 -81 -177 -189q-46 -80 -46 -142q0 -9 1 -17q4 -26 19 -36q10 -7 25 -7q9 0 20 3q79 19 200 150q4 4 11 4q6 0 10.5 -4.5t4.5 -10.5t-4 -10q-127 -137 -214 -158q-15 -4 -28 -4q-24 0 -42 12q-26 18 -32 57q-2 10 -2 22
q0 69 50 156q54 94 148 169q-36 3 -58 20q-31 24 -31 70q0 4 1 9q5 85 93 201q86 113 153 131q10 2 18 2zM281 507q15 -1 29 -4q38 -10 67.5 -42t45.5 -82q16 -53 16 -120q0 -74 -19 -162q-8 -37 -19 -73q52 18 87 40q4 3 8 3q7 0 11 -5t4 -11q0 -8 -7 -12q-47 -31 -116 -51
q-31 -86 -77 -142q-66 -82 -137 -82h-5q-35 2 -63 26.5t-41 67.5q-11 36 -11 83q0 35 7 75q-20 16 -32 37q-23 39 -23 92q0 51 21 114q44 132 126 199q59 49 122 49h6zM280 477h-6q-51 0 -102 -42q-75 -62 -116 -186q-20 -58 -20 -104q0 -44 19 -76q5 -9 13 -18q5 26 12 48
q3 12 15 11q6 0 10.5 -4.5t4.5 -10.5q0 -3 -1 -5q-9 -30 -15 -61q16 -11 35 -18t42 -11q27 -5 59 -5q64 0 135 19q15 44 25 89q18 85 18 155q0 64 -15 112q-26 86 -91 103q-11 3 -22 4zM89 -4q-4 -29 -4 -56q0 -42 10 -73q21 -70 75 -72h4q57 0 113 70q37 45 65 113
q-62 -14 -119 -14q-36 0 -68 6q-43 8 -76 26z" />
    <glyph glyph-name="oe" unicode="&#x153;" horiz-adv-x="387" 
d="M117 216q10 -1 19 -4q41 -13 51 -67q1 -4 1 -8l2 4l2 4q21 38 42 56q11 9 21 13q6 1 12 1q7 0 12 -4q10 -6 13 -20q2 -10 0 -24q-5 -28 -27 -66q-16 -28 -40 -50.5t-48 -32.5q-7 -34 -6 -60q0 -42 18 -52q20 -12 62 14q55 33 131 120q5 5 12 5q6 0 10.5 -4.5t4.5 -10.5
t-4 -10q-79 -91 -137.5 -126t-93.5 -15q-31 18 -34 70q-17 -30 -38 -46q-18 -13 -37 -13t-35 14q-9 8 -16 20t-11 26.5t-6 32.5q-6 56 16 122q1 2 3 4q9 55 45 85q26 22 56 22zM114 185q-17 0 -34 -14q-28 -24 -35 -71q-3 -17 7 -36.5t27 -30.5q32 -20 65 2q20 63 13 105
q-6 36 -30 43q-5 2 -11 2h-2zM263 183q-4 -1 -9 -5q-17 -15 -35 -48q-19 -34 -28 -61q0 -1 -2 -8q33 26 50 55v0q19 33 23 56q1 7 1 11zM29 41q-4 -30 -2 -55q5 -43 23 -59q7 -6 15 -6q9 0 19 7q24 18 46 69q-36 -9 -67 11q-20 12 -34 33z" />
    <glyph glyph-name="scedilla" unicode="&#x15f;" horiz-adv-x="543" 
 />
    <glyph glyph-name="Scaron" unicode="&#x160;" horiz-adv-x="524" 
d="M332 575h-2q-16 0 -35 18q-8 7 -44 46q-4 4 -4 10t4.5 10.5t10.5 4.5q7 0 12 -5q34 -37 41 -44q11 -10 15 -9q5 0 18 11l20 20t24 23q4 5 10.5 5t11 -4.5t4.5 -11.5q0 -6 -5 -11q-8 -7 -23 -22t-22 -21q-20 -19 -36 -20zM349 523q47 -2 76 -31q40 -39 40 -122
q0 -38 -9 -85q-1 -6 -5.5 -10t-10.5 -4q-6 1 -10.5 5.5t-3.5 10.5v3q8 44 8 79q0 71 -30 101q-23 23 -61 23q-25 0 -56 -10q-77 -25 -146 -92q-70 -68 -81 -132q-1 -10 -1 -20q0 -44 39 -73q29 -22 117 -51q93 -30 129 -58q28 -21 42 -51l56 44q5 4 10 4q7 -1 11 -5.5
t4 -10.5q-1 -7 -6 -12q-34 -26 -64 -52q3 -15 3 -32q0 -6 -1 -13q-6 -81 -61 -149q-51 -63 -105 -63q-5 0 -10 1q-10 0 -18.5 7.5t-12.5 19.5q-1 6 -1 14q0 21 13 48q36 73 159 178q-10 27 -38 48q-32 24 -119 53q-93 31 -126 56q-24 17 -37.5 42.5t-13.5 57.5q0 10 1 21v1
q13 74 90 149q74 72 158 99q34 11 65 11h6zM369 -49q-107 -95 -137 -158q-11 -20 -11 -35q0 -3 1 -5q1 -6 3 -5h1h1h5q40 0 83 52q48 60 54 131q1 10 0 20z" />
    <glyph glyph-name="scaron" unicode="&#x161;" horiz-adv-x="222" 
d="M62 265h-2q-16 0 -35 18q-8 7 -44 46q-4 4 -4 10t4.5 10.5t10.5 4.5q7 0 12 -5q34 -37 41 -44q11 -10 15 -9q5 0 18 11l20 20t24 23q4 5 10.5 5t11 -4.5t4.5 -11.5q0 -6 -5 -11q-8 -7 -23 -22t-22 -21q-20 -19 -36 -20zM64 215q16 -1 24 -12q7 -10 7 -25q0 -6 -1 -13
q-8 -51 -67 -130q0 -1 -1 -1l4 -21q10 -45 14 -91l17 14q25 20 52.5 39.5l61 41.5l39.5 26q4 3 9 3q6 0 10.5 -4.5t4.5 -10.5q0 -9 -7 -13.5l-40 -26l-60 -40.5t-51 -39q-16 -13 -33 -29q1 -15 1 -28q0 -43 -7 -75q-10 -48 -29 -75q-19 -29 -43 -29q-13 0 -23 9q-8 8 -12 22
q-3 11 -3 24q0 19 6 42q15 60 79 122q-4 57 -16 111q-8 38 -8 71q0 40 11 73q18 54 52 64q4 1 9 1zM63 184q-5 -2 -15 -13.5t-16 -30.5q-8 -25 -9 -58q35 55 40 87q2 10 0 15zM17 -148q-19 -22 -32 -43.5t-19 -43.5q-4 -18 -4 -34q0 -9 1 -16q2 -6 5 -8q0 -1 1 -1q8 0 18 16
q16 23 24 64q6 27 6 66z" />
    <glyph glyph-name="Ydieresis" unicode="&#x178;" horiz-adv-x="495" 
d="M284.5 647q6.5 0 10.5 -4.5t4 -10.5v-2q-1 -11 -6 -22q-4 -9 -14 -9q-6 0 -10.5 4.5t-4.5 10.5q0 4 1 7q3 6 4 13q1 5 5 9t10.5 4zM214.5 647q6.5 0 10.5 -4.5t4 -10.5v-2q-1 -11 -6 -22q-4 -9 -14 -9q-6 0 -10.5 4.5t-4.5 10.5q0 4 1 7q3 6 4 13q1 5 5 9t10.5 4z
M410 552q9 0 14 -9q14 -26 14 -84v-6q-1 -56 -13 -137q-15 -99 -45 -222q22 23 42 42q5 4 11 4t10.5 -4.5t4.5 -10.5q0 -7 -5 -11q-41 -39 -79 -82l-16 -61q-55 -191 -109 -309q-28 -62 -52 -91q-14 -17 -28 -24q-7 -3 -15 -3q-11 0 -19 6q-6 4 -9 14q-2 8 -2 20q0 16 4 38
q10 61 40 136q61 152 178 288q40 153 59 275q12 83 12 136q0 13 -1 28q-126 -317 -222 -439q-47 -60 -86 -71q-9 -3 -18 -3q-11 0 -21 4q-16 7 -28 26q-30 45 -30 139q0 36 4 78q17 157 80 282q5 9 14 9q6 0 10.5 -4.5t4.5 -11.5q0 -4 -1 -7q-62 -119 -78 -271
q-3 -35 -3 -67q0 -95 24 -130q7 -11 15 -14.5t19 -0.5q29 9 70 61q101 128 236 477q4 9 14 10zM316 -27q-83 -109 -130 -227q-29 -71 -38 -129q-3 -20 -3 -34v-8h1q7 3 17 15q21 26 49 85q52 114 104 298zM146 -428z" />
    <glyph glyph-name="Zcaron" unicode="&#x17d;" horiz-adv-x="492" 
d="M292 585h-2q-16 0 -35 18q-8 7 -44 46q-4 4 -4 10t4.5 10.5t10.5 4.5q7 0 12 -5q34 -37 41 -44q11 -10 15 -9q5 0 18 11l20 20t24 23q4 5 10.5 5t11 -4.5t4.5 -11.5q0 -6 -5 -11q-8 -7 -23 -22t-22 -21q-20 -19 -36 -20zM399 549q8 0 15 -1q32 -2 48 -22q14 -16 14 -43
q0 -19 -7 -44q-15 -55 -62 -129q-82 -131 -234 -281q59 27 102 33q12 1 23 1q23 0 41 -7q25 -12 35 -39q6 -15 6 -33q0 -37 -23 -85q-21 -45 -59 -89q33 5 64 8h1q7 0 11.5 -4.5t4.5 -10.5t-4.5 -10.5t-10.5 -5.5q-54 -4 -103 -15q-1 0 -1.5 -0.5t-0.5 -1.5
q-120 -108 -193 -138q-23 -9 -35 -9q-8 0 -15 3q-13 6 -15 20q-1 10 5 22q23 44 109 87q58 28 131 45q55 53 84 112q19 41 19 73q0 13 -3 22q-6 14 -20 21q-11 5 -29 5q-8 0 -18 -1q-73 -10 -196 -88q-4 -2 -8 -2q-6 0 -10.5 4.5t-4.5 10.5q0 7 5 11q212 192 316 358
q44 71 58 121q6 20 6 35q0 17 -6 25q-8 9 -28 11h-7q-20 0 -46 -7q-65 -17 -142 -64q-79 -49 -126 -103q-43 -49 -43 -85q0 -5 1 -9v-3q0 -6 -4.5 -10.5t-10.5 -4.5q-13 0 -15 12q-2 8 -2 16q0 47 51 104q50 57 133 109q81 50 150 68q28 7 49 8zM192 -247q-35 -12 -63 -26
q-37 -18 -62.5 -38.5t-32.5 -33.5q10 1 21 6q51 21 137 92z" />
    <glyph glyph-name="zcaron" unicode="&#x17e;" horiz-adv-x="322" 
d="M81 196h-2q-16 0 -35 18q-8 7 -44 46q-4 4 -4 10t4.5 10.5t10.5 4.5q7 0 12 -5q34 -37 41 -44q11 -10 15 -9q5 0 18 11l20 20t24 23q4 5 10.5 5t11 -4.5t4.5 -11.5q0 -6 -5 -11q-8 -7 -23 -22t-22 -21q-20 -19 -36 -20zM125 154q19 0 27 -16q2 -4 2 -10q0 -3 -1 -7
q-2 -7 -6 -18q-7 -21 -22 -52q-21 -46 -52 -100q47 27 79 27h3q27 -1 40 -21l1 -1q59 48 122 85q4 3 8 3q7 0 11.5 -4.5t4.5 -10.5q0 -10 -8 -14q-67 -40 -129 -92v-12q-3 -50 -38 -119.5t-89 -129.5q-43 -49 -75 -73q-28 -22 -44 -22q-4 0 -8 1q-14 3 -19 18q-3 10 -1 24
q4 25 24 63q29 58 85.5 128t131.5 134q-1 3 -2 5q-5 7 -16 8h-1q-39 0 -119 -59q-4 -3 -9 -3q-7 0 -11.5 4.5t-4.5 10.5q0 5 3 8q51 79 86 155q13 29 21 50l3 9q-9 -3 -20 -10q-36 -26 -83 -91q-4 -6 -12 -6q-7 0 -11 4.5t-4 10.5q0 5 2 9q50 69 91 98q20 14 35 16h5z
M123 130v-1v1zM172 -106q-66 -59 -115 -122t-75 -113q-17 -33 -21 -53v-7q12 5 24 14q29 22 71 69q43 49 75 109t41 103z" />
  </font>
</defs>
</svg>
